<?xml version="1.0" encoding="utf-8"?>
<!-- Generator: Adobe Illustrator 22.0.1, SVG Export Plug-In . SVG Version: 6.00 Build 0)  -->
<svg version="1.1" id="Layer_1" xmlns="http://www.w3.org/2000/svg" xmlns:xlink="http://www.w3.org/1999/xlink" x="0px" y="0px"
	 viewBox="0 0 200 100" style="enable-background:new 0 0 200 100;" xml:space="preserve">
<g>
	<path d="M21.6,59.4c0.4-0.7,0.8-1.3,1.2-2s0.9-1.4,1.5-2.3c0.6-0.8,1.2-1.8,2-2.9c0.8-1.1,1.7-2.3,2.8-3.7c-0.3,0-0.6,0-1,0.1
		s-0.7,0.1-1,0.1c0.2-0.6,0.7-1,1.2-1.4c0.6-0.3,1.3-0.5,2.1-0.7c0.2-0.3,0.3-0.5,0.5-0.6c0.1-0.1,0.3-0.3,0.4-0.6
		c0.2-0.2,0.4-0.5,0.7-0.9c0.3-0.4,0.8-1,1.3-1.7c0.6-0.7,1.3-1.7,2.2-2.9c0.1-0.1,0.2-0.3,0.4-0.6c0.2-0.3,0.4-0.5,0.5-0.8
		c0.1-0.1,0.1-0.3,0.1-0.3c0-0.1-0.1-0.1-0.3-0.1c-0.4,0-0.8,0.2-1.4,0.5c-0.5,0.3-1.1,0.8-1.6,1.3c-0.5,0.5-1,1-1.4,1.6
		c-0.4,0.5-0.7,1-0.9,1.5c-0.1,0.1-0.1,0.3-0.1,0.5c0,0.2-0.1,0.4-0.1,0.7c-0.8,0-1.3-0.2-1.5-0.5c-0.2-0.3-0.2-0.8,0-1.3
		c0.3-0.6,0.7-1.3,1.4-1.9c0.6-0.6,1.4-1.2,2.2-1.7c0.8-0.5,1.7-1,2.5-1.3c0.8-0.3,1.5-0.5,2.1-0.5c0.6,0,1,0.2,1.1,0.5
		c0.1,0.3,0.1,0.7-0.1,1.1c-0.1,0.2-0.2,0.4-0.3,0.6c-0.1,0.2-0.3,0.4-0.4,0.6l-4.8,6.7c0.2,0,0.5,0,0.7,0c0.2,0,0.5,0,0.7,0
		c0.9,0,1.8,0,2.6,0.1c0.8,0,1.6,0.1,2.3,0.2c1.1-1.6,2-2.8,2.8-3.8c0.7-1,1.4-1.8,1.9-2.5c0.5-0.7,1-1.2,1.4-1.7
		c0.1-0.1,0.3-0.3,0.6-0.6c0.2-0.3,0.5-0.5,0.9-0.7c0.4-0.2,0.8-0.3,1.2-0.3c-0.5,0.6-1.2,1.5-2,2.6c-0.8,1.1-1.6,2.2-2.5,3.5
		c-0.9,1.2-1.7,2.5-2.6,3.7c0.3,0,0.6,0,1.1,0c0.5,0,0.9,0,1.3,0c-0.8,0.6-1.5,0.9-2,1.1c-0.5,0.1-1,0.2-1.3,0.2
		c-0.6,0.9-1.1,1.7-1.6,2.4c-0.5,0.8-0.9,1.5-1.3,2.2c-0.7,1.2-1.3,2.2-1.8,3.1c-0.5,0.9-0.8,1.6-1,2.1c-0.1,0.3-0.2,0.6-0.3,0.8
		C34.1,59,34,59.2,34,59.4c-0.9-0.1-1.5-0.3-1.7-0.7c-0.2-0.4-0.1-1,0.3-1.9c0.2-0.4,0.4-0.9,0.7-1.4c0.3-0.5,0.7-1.1,1.1-1.8
		c0.4-0.7,1-1.5,1.6-2.4c0.6-0.9,1.4-1.9,2.3-3.1c-1.2,0-2.1,0-2.9,0c-0.8,0-1.4,0-2,0.1c-0.6,0-1.2,0.1-1.8,0.1
		c-0.1,0.1-0.2,0.2-0.3,0.5c-0.2,0.2-0.5,0.7-0.9,1.3c-0.4,0.6-1.1,1.5-2,2.7s-2,2.8-3.5,4.8c-0.5,0.7-1.1,1.2-1.7,1.5
		C22.4,59.3,21.9,59.4,21.6,59.4z"/>
	<path d="M40.2,57.9c-0.9,0-1.3-0.3-1.4-0.8c-0.1-0.5,0-1.1,0.3-1.8c0.2-0.6,0.6-1.2,1-1.8c0.4-0.6,0.9-1.2,1.5-1.7s1.1-1,1.6-1.3
		c0.5-0.3,1-0.5,1.4-0.5c0.1,0,0.3,0,0.4,0.1c0.2,0,0.3,0.1,0.3,0.2c-0.3,0.3-0.7,0.6-1.1,1c-0.4,0.4-0.8,0.8-1.2,1.3
		c-0.4,0.5-0.7,0.9-1,1.4c-0.3,0.5-0.5,0.9-0.7,1.3c-0.2,0.4-0.2,0.7-0.2,0.9c0,0.2,0.2,0.4,0.6,0.4c0.4,0,0.9-0.2,1.5-0.6
		c0.7-0.4,1.3-0.9,2-1.4c-0.4-0.5-0.6-1.1-0.6-1.8c0-0.6,0.2-1.4,0.6-2.3c0.2-0.4,0.4-0.8,0.8-1.3c0.4-0.5,0.9-0.9,1.5-1.3
		c0.6-0.4,1.3-0.6,2-0.6c0.8,0,1.3,0.2,1.5,0.7c0.1,0.4,0.1,1-0.2,1.6c-0.3,0.7-0.8,1.5-1.5,2.3c-0.7,0.9-1.5,1.7-2.3,2.4
		c0.2,0.1,0.4,0.2,0.7,0.2c0.3,0,0.7-0.1,1.1-0.2c0.5-0.1,0.9-0.3,1.4-0.7s1-0.7,1.4-1.2l0.4,0.4c-0.8,0.9-1.7,1.6-2.5,2.1
		s-1.6,0.7-2.3,0.7c-0.2,0-0.5,0-0.7-0.1c-0.2,0-0.4-0.1-0.6-0.2c-1,0.7-2,1.4-3,1.9C42,57.6,41.1,57.9,40.2,57.9z M46.5,53.6
		c0.7-0.6,1.4-1.3,2-2.1c0.6-0.7,1.1-1.4,1.3-2.1c0.2-0.4,0.2-0.7,0.2-0.9c-0.1-0.2-0.2-0.3-0.5-0.3c-0.4,0-0.8,0.2-1.4,0.7
		c-0.6,0.5-1,1.1-1.4,1.9c-0.2,0.4-0.3,0.9-0.4,1.4C46.3,52.9,46.4,53.3,46.5,53.6z"/>
	<path d="M51.4,58.3c-0.8,0-1.4-0.2-1.7-0.7c-0.3-0.5-0.3-1.2,0.1-2.2c0.3-0.8,0.9-1.7,1.6-2.8s1.6-2.3,2.6-3.5
		c-0.1,0-0.3-0.1-0.4-0.1c-0.2,0-0.3-0.1-0.5-0.2l0.4-0.9c0.3,0,0.5,0.1,0.7,0.1c0.2,0,0.4,0,0.6,0.1c0.8-1,1.6-1.9,2.5-2.8
		c0.8-0.9,1.6-1.7,2.4-2.5c0.8-0.7,1.4-1.3,2-1.7c0.6-0.4,1-0.6,1.4-0.6c0.2,0,0.3,0.1,0.5,0.2c0.1,0.1,0.1,0.3,0,0.6
		c-0.2,0.4-0.6,0.9-1.2,1.6c-0.7,0.7-1.5,1.5-2.4,2.4c-0.9,0.9-1.9,1.9-2.9,2.9c0.2,0,0.3,0,0.5,0s0.3,0,0.4,0c0.8,0,1.6,0,2.3,0
		c0.7,0,1.4-0.1,2.1-0.2l-0.4,0.9c-1.1,0.1-2.1,0.2-3,0.2c-0.9,0.1-1.8,0.1-2.6,0.1c-0.1,0-0.1,0-0.2,0c-0.1,0-0.1,0-0.2,0
		c-0.8,0.9-1.5,1.8-2.2,2.8c-0.7,1-1.2,1.9-1.6,2.8c-0.3,0.8-0.4,1.3-0.3,1.6c0.1,0.3,0.4,0.5,1,0.5c1,0,2.1-0.4,3.4-1.3
		c1.3-0.8,2.7-2,4-3.4l0.3,0.3c-0.9,1.1-2,2.1-3.1,3c-1.1,0.9-2.2,1.6-3.3,2.1C53.3,58,52.3,58.3,51.4,58.3z"/>
	<path d="M60.4,58.2c-1.2,0-2-0.3-2.4-1c-0.4-0.6-0.4-1.4,0-2.4c0.3-0.8,0.9-1.7,1.7-2.6s1.7-1.8,2.8-2.6c1.1-0.8,2.1-1.5,3.2-2
		c1.1-0.5,2.1-0.7,2.9-0.7c0.5,0,0.9,0.1,1.3,0.4c0.3,0.2,0.4,0.7,0.1,1.5c-0.3,0.7-0.8,1.4-1.4,2c-0.7,0.6-1.5,1.2-2.4,1.6
		c-0.9,0.5-1.8,0.9-2.8,1.2c-1,0.3-1.9,0.5-2.8,0.6c0,0.1-0.1,0.2-0.1,0.2c0,0.1-0.1,0.2-0.2,0.4c0,0.1-0.1,0.3-0.2,0.5
		c-0.1,0.2-0.1,0.5-0.1,0.7c0,0.3,0.2,0.5,0.4,0.7C60.6,57,61,57,61.5,57c0.8,0,1.7-0.2,2.7-0.6c1-0.4,2-1,3-1.7
		c1-0.7,1.9-1.5,2.8-2.4l0.4,0.4c-1,1.1-2,2.1-3.2,2.9c-1.2,0.8-2.3,1.5-3.5,1.9C62.5,58,61.4,58.2,60.4,58.2z M61.2,53.2
		c0.5-0.1,1.1-0.2,1.9-0.5c0.7-0.3,1.5-0.6,2.2-1.1c0.7-0.4,1.4-0.9,2-1.4c0.6-0.5,1-1,1.2-1.5c0.1-0.2,0.1-0.3,0.1-0.4
		c0-0.1-0.2-0.1-0.3-0.1c-0.4,0-1,0.2-1.6,0.5c-0.6,0.3-1.2,0.7-1.9,1.2c-0.7,0.5-1.3,1-1.9,1.6C62.2,52.1,61.7,52.6,61.2,53.2z"/>
	<path d="M69.4,57.9c-0.9,0-1.4-0.3-1.5-0.9c-0.1-0.6,0-1.3,0.3-2.1c0.4-0.9,1-2,1.8-3.2c0.8-1.2,1.8-2.5,2.9-3.8
		c1.1-1.3,2.3-2.7,3.5-3.9c1.2-1.3,2.4-2.4,3.5-3.5c1.1-1,2.1-1.9,2.9-2.5s1.4-0.9,1.8-0.9c0.2,0,0.4,0.1,0.5,0.4
		c0.1,0.3,0.1,0.5,0,0.9c0,0.3-0.1,0.7-0.2,1c-0.2,0.5-0.6,1.2-1.2,2c-0.6,0.8-1.3,1.7-2.2,2.6c-0.9,1-1.8,1.9-2.9,3
		c-1.1,1-2.2,2-3.3,2.9c-1.1,0.9-2.3,1.7-3.4,2.4c-0.3,0.5-0.5,0.9-0.8,1.4c-0.3,0.5-0.5,0.9-0.6,1.2c-0.3,0.7-0.4,1.2-0.3,1.5
		s0.3,0.5,0.7,0.5c0.5,0,1.1-0.2,1.7-0.7c0.7-0.4,1.4-1,2.1-1.7c0.7-0.7,1.4-1.4,2.1-2.1l0.5,0.4c-1.5,1.6-3,2.9-4.4,3.9
		C71.8,57.4,70.5,57.9,69.4,57.9z M73.2,50.3c0.9-0.7,1.9-1.4,2.8-2.2c0.9-0.8,1.8-1.6,2.6-2.5c0.8-0.8,1.6-1.6,2.3-2.4
		c0.7-0.8,1.3-1.5,1.7-2.1s0.8-1.1,0.9-1.5c0,0,0,0,0,0c0,0,0,0,0,0c-0.2,0-0.5,0.2-1,0.6c-0.5,0.4-1.1,1-1.9,1.7
		c-0.8,0.7-1.6,1.5-2.4,2.5c-0.9,0.9-1.7,1.9-2.6,2.9C74.8,48.3,73.9,49.3,73.2,50.3z"/>
	<path d="M86.2,59.4c-0.7,0-1.3-0.1-1.8-0.3c-0.5-0.2-0.9-0.6-1.1-1.1c0.2-0.4,0.6-1.1,1.2-1.9c0.6-0.9,1.2-1.8,2-2.9
		c0.8-1.1,1.6-2.2,2.4-3.3c0.8-1.1,1.6-2.2,2.4-3.3c0.8-1,1.5-2,2.1-2.7c0.6-0.8,1-1.4,1.3-1.7c0.1-0.1,0.3-0.4,0.6-0.7
		c0.3-0.3,0.6-0.6,0.9-0.9c0.3-0.3,0.7-0.6,1.1-0.8c0.4-0.2,0.7-0.3,1-0.3c0.3,0,0.6,0.1,0.9,0.4c-1.1,1.3-2.3,2.7-3.6,4.3
		c-1.3,1.6-2.5,3.2-3.7,4.9c-1.2,1.7-2.4,3.3-3.5,4.9s-2.1,3-2.9,4.3c0.1,0.1,0.3,0.1,0.6,0.1c0.3,0,0.5,0,0.8,0
		c1.2,0,2.5-0.3,3.9-0.9c1.4-0.6,2.7-1.4,4.1-2.3c1.3-1,2.6-2.1,3.8-3.3c1.2-1.2,2.3-2.5,3.2-3.7c0.9-1.3,1.6-2.5,2.1-3.7
		c0.6-1.5,0.9-2.7,0.7-3.6c-0.1-0.9-0.6-1.6-1.3-2.1s-1.7-0.7-2.9-0.7c-1.2,0-2.4,0.2-3.6,0.6c-1.2,0.4-2.2,1-3.1,1.8
		c-0.9,0.7-1.5,1.6-1.9,2.6c-0.1,0.2-0.2,0.4-0.2,0.7c-0.1,0.2-0.1,0.5-0.1,0.7c-0.8,0-1.3-0.2-1.5-0.5c-0.2-0.3-0.2-0.8,0-1.3
		c0.3-0.6,0.8-1.3,1.5-2c0.8-0.7,1.7-1.3,2.8-1.8c1.1-0.6,2.3-1,3.6-1.4c1.3-0.3,2.6-0.5,3.9-0.5c1.9,0,3.2,0.3,4.1,1
		c0.8,0.7,1.3,1.6,1.3,2.8c0,1.2-0.3,2.5-0.9,3.9c-0.7,1.6-1.5,3.1-2.7,4.6c-1.1,1.5-2.4,2.8-3.8,4c-1.4,1.2-2.9,2.3-4.5,3.2
		c-1.6,0.9-3.2,1.6-4.7,2.1C89.1,59.2,87.6,59.4,86.2,59.4z"/>
	<path d="M103.9,58.3c-1.2,0-2-0.3-2.4-1s-0.4-1.4,0-2.4c0.3-0.8,0.9-1.7,1.7-2.6c0.8-0.9,1.7-1.8,2.8-2.6c1.1-0.8,2.1-1.5,3.2-2
		c1.1-0.5,2.1-0.7,2.9-0.7c0.5,0,0.9,0.1,1.3,0.4c0.3,0.2,0.4,0.7,0.1,1.5c-0.3,0.7-0.8,1.4-1.4,2c-0.7,0.6-1.5,1.2-2.4,1.6
		c-0.9,0.5-1.8,0.9-2.8,1.2s-1.9,0.5-2.8,0.6c0,0.1-0.1,0.2-0.1,0.2s-0.1,0.2-0.2,0.4c0,0.1-0.1,0.3-0.2,0.5
		c-0.1,0.2-0.1,0.5-0.1,0.7c0,0.3,0.2,0.5,0.4,0.7c0.2,0.2,0.6,0.3,1.1,0.3c0.8,0,1.7-0.2,2.7-0.7c1-0.4,2-1,3-1.7
		c1-0.7,1.9-1.5,2.8-2.4l0.4,0.4c-1,1.1-2,2.1-3.2,2.9c-1.2,0.8-2.3,1.5-3.5,1.9C106.1,58,105,58.3,103.9,58.3z M104.8,53.2
		c0.5-0.1,1.1-0.2,1.9-0.5c0.7-0.3,1.5-0.6,2.2-1.1c0.7-0.4,1.4-0.9,2-1.4s1-1,1.2-1.5c0.1-0.2,0.1-0.3,0.1-0.4
		c0-0.1-0.2-0.1-0.3-0.1c-0.4,0-1,0.2-1.6,0.5c-0.6,0.3-1.2,0.7-1.9,1.2c-0.7,0.5-1.3,1-1.9,1.6C105.8,52.1,105.2,52.7,104.8,53.2z"
		/>
	<path d="M113,57.9c-0.9,0-1.4-0.3-1.5-0.9c-0.1-0.6,0-1.3,0.3-2.1c0.4-0.9,1-2,1.8-3.2c0.8-1.2,1.8-2.5,2.9-3.8
		c1.1-1.3,2.3-2.7,3.5-3.9c1.2-1.3,2.4-2.4,3.5-3.5c1.1-1,2.1-1.9,2.9-2.5s1.4-0.9,1.8-0.9c0.2,0,0.4,0.1,0.5,0.4
		c0.1,0.3,0.1,0.5,0,0.9c0,0.3-0.1,0.7-0.2,1c-0.2,0.5-0.6,1.2-1.2,2c-0.6,0.8-1.3,1.7-2.2,2.6s-1.8,1.9-2.9,3c-1.1,1-2.2,2-3.3,2.9
		c-1.1,0.9-2.3,1.7-3.4,2.4c-0.3,0.5-0.5,0.9-0.8,1.4c-0.3,0.5-0.5,0.9-0.6,1.2c-0.3,0.7-0.4,1.2-0.3,1.5c0.1,0.3,0.3,0.5,0.7,0.5
		c0.5,0,1.1-0.2,1.7-0.7c0.7-0.4,1.4-1,2.1-1.7c0.7-0.7,1.4-1.4,2.1-2.1l0.5,0.4c-1.5,1.6-3,2.9-4.4,3.9
		C115.3,57.4,114.1,57.9,113,57.9z M116.8,50.4c0.9-0.7,1.9-1.4,2.8-2.2c0.9-0.8,1.8-1.6,2.6-2.5c0.8-0.8,1.6-1.6,2.3-2.4
		c0.7-0.8,1.3-1.5,1.7-2.1s0.8-1.1,0.9-1.5c0,0,0,0,0,0c0,0,0,0,0,0c-0.2,0-0.5,0.2-1,0.6c-0.5,0.4-1.1,1-1.9,1.7
		c-0.8,0.7-1.6,1.5-2.4,2.5c-0.9,0.9-1.7,1.9-2.6,2.9C118.3,48.4,117.5,49.4,116.8,50.4z"/>
	<path d="M136.8,59.5c-0.7,0-1.4-0.1-2.2-0.4c-0.8-0.3-1.5-0.6-2.3-1c-0.8-0.4-1.5-0.8-2.2-1.1c-0.7,0.5-1.4,0.9-2,1.2
		c-0.7,0.3-1.3,0.4-1.9,0.4c-0.7,0-1.2-0.1-1.6-0.4c-0.4-0.3-0.6-0.6-0.7-1c-0.1-0.4-0.1-0.8,0.1-1.1c0.2-0.4,0.5-0.7,0.9-1
		c0.5-0.3,1.1-0.4,2-0.4c0.5,0,1.1,0.1,1.6,0.2c0.6,0.1,1.2,0.2,1.7,0.4c0.7-0.7,1.5-1.6,2.3-2.6c0.8-1,1.6-2,2.4-3.1
		c0.8-1.1,1.6-2.2,2.4-3.2c-0.8-0.3-1.4-0.8-1.7-1.3c-0.3-0.6-0.3-1.1-0.1-1.7c0.2-0.4,0.4-0.7,0.7-1.1c0.3-0.4,0.7-0.7,1.2-0.9
		c0.5-0.3,0.9-0.4,1.4-0.4c-0.4,0.3-0.7,0.6-0.9,1s-0.4,0.7-0.5,0.9c-0.3,0.6-0.3,1.1-0.2,1.6c0.1,0.4,0.3,0.8,0.6,1
		c0.8-1.1,1.6-2.1,2.4-3c0.8-1,1.6-1.8,2.4-2.6c0.8-0.7,1.6-1.3,2.4-1.8c0.8-0.4,1.6-0.7,2.4-0.7c0.4,0,0.9,0.1,1.3,0.3
		c0.4,0.2,0.7,0.5,0.9,0.9s0.1,1-0.2,1.8c-0.3,0.6-0.7,1.3-1.3,2c-0.6,0.7-1.3,1.4-2.2,2.1c-0.9,0.7-1.8,1.2-2.9,1.6
		c-1.1,0.4-2.3,0.7-3.6,0.7c0,0-0.1,0-0.1,0s-0.1,0-0.1,0c-0.8,1.1-1.6,2.2-2.5,3.2c-0.9,1.1-1.7,2.1-2.6,3.1
		c-0.9,1-1.7,1.9-2.6,2.7c0.7,0.2,1.4,0.4,2.2,0.7c0.8,0.3,1.6,0.5,2.4,0.7c0.8,0.2,1.6,0.3,2.3,0.3c0.5,0,0.9-0.1,1.3-0.2
		c0.4-0.1,0.9-0.3,1.4-0.5c-0.8,1-1.6,1.8-2.3,2.2C138.3,59.3,137.6,59.5,136.8,59.5z M126.2,57.5c0.5,0,0.9-0.1,1.3-0.3
		c0.4-0.2,0.8-0.5,1.2-0.8c-0.5-0.2-1-0.4-1.4-0.5s-0.9-0.2-1.3-0.2c-0.4,0-0.7,0.1-0.9,0.2c-0.2,0.1-0.4,0.3-0.4,0.5
		c-0.1,0.3,0,0.6,0.2,0.8C125.3,57.4,125.7,57.5,126.2,57.5z M140.1,45.6c0.9-0.1,1.7-0.3,2.6-0.8c0.8-0.5,1.6-1,2.3-1.7
		c0.7-0.6,1.3-1.3,1.9-2c0.5-0.7,0.9-1.3,1.1-1.8c0.2-0.5,0.2-0.8,0.1-1c-0.1-0.2-0.3-0.3-0.5-0.3c-0.6,0-1.2,0.3-2,1
		c-0.8,0.7-1.6,1.6-2.5,2.7C142.1,43,141.1,44.3,140.1,45.6z"/>
	<path d="M144,57.9c-0.6,0-1.1-0.3-1.2-0.9c-0.2-0.6-0.1-1.3,0.2-2c0.2-0.5,0.6-1.1,1-1.8c0.5-0.7,1-1.4,1.5-2.1
		c0.5-0.7,1.1-1.2,1.5-1.7c0.5-0.4,0.8-0.7,1.1-0.7c0.1,0,0.3,0.1,0.5,0.2c0.2,0.1,0.4,0.3,0.5,0.5c-0.3,0.3-0.8,0.7-1.3,1.4
		c-0.5,0.6-1.1,1.3-1.6,2c-0.5,0.7-0.9,1.3-1.1,1.9c0,0.1-0.1,0.3-0.2,0.5c-0.1,0.3-0.1,0.5-0.1,0.8c0,0.2,0.2,0.4,0.5,0.4
		c0.3,0,0.7-0.2,1.3-0.5c0.5-0.3,1.1-0.8,1.7-1.3c0.6-0.5,1.2-1.1,1.9-1.8c0.6-0.6,1.2-1.2,1.8-1.8c0.5-0.6,1-1.1,1.3-1.5
		c0.2,0,0.4,0.1,0.6,0.1c0.2,0.1,0.4,0.2,0.6,0.3c0.2,0.1,0.2,0.3,0.1,0.5c0,0.1-0.2,0.3-0.6,0.7c-0.3,0.4-0.8,0.9-1.2,1.4
		c-0.5,0.6-0.9,1.1-1.3,1.7s-0.7,1.1-0.9,1.5c-0.1,0.3-0.1,0.5-0.1,0.7c0,0.2,0.2,0.3,0.5,0.3c0.4,0,0.9-0.2,1.6-0.5
		c0.7-0.4,1.5-0.9,2.3-1.5c0.9-0.7,1.7-1.5,2.6-2.4l0.3,0.3c-0.8,1-1.7,1.9-2.7,2.7c-1,0.8-2,1.4-2.9,1.9c-1,0.5-1.8,0.7-2.5,0.7
		c-0.6,0-0.9-0.1-1.1-0.4c-0.2-0.3-0.2-0.6-0.2-1c0.1-0.4,0.2-0.8,0.3-1.2c0-0.1,0.1-0.2,0.1-0.3c0-0.1,0.1-0.2,0.1-0.3
		c-0.5,0.5-1.1,1-1.7,1.5c-0.6,0.5-1.1,0.9-1.7,1.2C145,57.7,144.5,57.9,144,57.9z"/>
	<path d="M164.2,57.6c-0.7,0-1.2-0.2-1.5-0.5c-0.2-0.4-0.2-0.8,0-1.4c0.2-0.4,0.4-0.8,0.7-1.2c0.3-0.4,0.6-0.8,0.9-1.3
		c0.3-0.4,0.5-0.8,0.7-1.2c0.2-0.4,0.2-0.7,0-0.8c-0.1-0.2-0.3-0.2-0.6-0.2c-0.6,0-1.3,0.2-2,0.7c-0.8,0.5-1.6,1-2.4,1.7
		c-0.8,0.7-1.7,1.4-2.5,2.1c-0.8,0.7-1.5,1.4-2.1,2c-0.4,0-0.7-0.1-1-0.2c-0.3-0.1-0.5-0.3-0.6-0.6c0.1-0.1,0.3-0.4,0.7-0.8
		c0.4-0.5,0.9-1,1.4-1.7c0.5-0.7,1-1.3,1.5-2.1c0.5-0.7,0.9-1.4,1.1-2c0.2-0.1,0.5-0.3,0.8-0.4c0.3-0.1,0.7-0.2,1-0.2
		c0.7,0,0.9,0.3,0.7,0.8c-0.1,0.2-0.3,0.5-0.5,1c-0.3,0.4-0.6,0.9-1,1.5c0.8-0.6,1.6-1.3,2.4-1.8c0.8-0.6,1.6-1,2.4-1.4
		c0.8-0.4,1.5-0.5,2.2-0.5c0.8,0,1.3,0.3,1.5,0.8c0.2,0.5,0.1,1.1-0.1,1.8c-0.2,0.6-0.5,1.1-0.9,1.6c-0.4,0.5-0.8,0.9-1.1,1.4
		c-0.4,0.4-0.6,0.8-0.8,1.2c-0.1,0.3-0.1,0.5,0,0.6s0.2,0.2,0.4,0.2c0.5,0,1-0.2,1.7-0.6s1.4-1,2.1-1.6c0.7-0.7,1.4-1.3,2-2l0.3,0.4
		c-0.8,0.9-1.6,1.7-2.4,2.5c-0.8,0.7-1.6,1.3-2.4,1.8S164.9,57.6,164.2,57.6z"/>
	<path d="M169.4,58.4c-0.6,0-1.1-0.2-1.4-0.6c-0.3-0.4-0.3-1,0.1-1.8c0.3-0.6,0.7-1.3,1.3-2.1c0.6-0.8,1.3-1.5,2.2-2.2
		c0.8-0.7,1.7-1.4,2.7-2c0.9-0.6,1.9-1.1,2.8-1.5c0.9-0.4,1.8-0.6,2.6-0.6c0.8,0,1.4,0.2,1.8,0.6c0.4,0.4,0.5,0.9,0.2,1.6
		c-0.2,0.5-0.5,0.9-1,1.1c-0.5,0.2-0.9,0.3-1.4,0.2c0.1-0.2,0.2-0.3,0.3-0.5c0.1-0.2,0.2-0.3,0.3-0.5c0.2-0.4,0.2-0.7,0.2-1
		c0-0.3-0.3-0.4-0.8-0.4c-0.5,0-1.1,0.2-1.8,0.5c-0.7,0.4-1.4,0.8-2.2,1.4c-0.7,0.6-1.4,1.2-2.1,1.9c-0.7,0.7-1.3,1.3-1.8,2
		c-0.5,0.6-0.9,1.2-1.1,1.7c-0.2,0.6-0.1,0.9,0.3,0.9c0.4,0,1-0.2,1.7-0.6c0.7-0.4,1.5-0.9,2.3-1.6c0.8-0.6,1.6-1.3,2.4-1.9
		c0.8-0.7,1.4-1.2,2-1.7c0.1-0.1,0.2-0.1,0.3-0.1c0.1,0,0.2,0.1,0.4,0.1c0.2,0.1,0.4,0.2,0.5,0.3c0.1,0.1,0.2,0.3,0.1,0.5
		c-0.1,0.2-0.3,0.4-0.5,0.7c-0.3,0.3-0.6,0.6-1,0.9c-0.4,0.3-0.7,0.7-1,1c-0.3,0.3-0.5,0.7-0.6,1c-0.1,0.2-0.1,0.5-0.1,0.7
		c0,0.2,0.2,0.3,0.5,0.3c0.5,0,1.2-0.3,2.3-1c1.1-0.7,2.4-1.8,3.9-3.3l0.3,0.5c-0.9,1-1.8,1.9-2.7,2.6s-1.9,1.4-2.8,1.8
		c-0.9,0.4-1.7,0.7-2.4,0.7c-0.8,0-1.3-0.2-1.4-0.7s-0.2-1,0-1.6c0,0,0-0.1,0-0.1c0,0,0,0,0-0.1c-1.1,0.9-2.1,1.6-3,2.1
		C170.9,58.1,170.1,58.4,169.4,58.4z"/>
</g>
</svg>
