<?xml version="1.0" encoding="utf-8"?>
<!-- Generator: Adobe Illustrator 22.0.1, SVG Export Plug-In . SVG Version: 6.00 Build 0)  -->
<svg version="1.1" id="Layer_1" xmlns="http://www.w3.org/2000/svg" xmlns:xlink="http://www.w3.org/1999/xlink" x="0px" y="0px"
	 viewBox="0 0 200 100" style="enable-background:new 0 0 200 100;" xml:space="preserve">
<style type="text/css">
	.st0{stroke:#000000;stroke-miterlimit:10;}
</style>
<g>
	<g>
		<path class="st0" d="M21.7,57.3c0.4-0.6,0.7-1.1,1.1-1.7c0.4-0.6,0.9-1.2,1.4-1.9c0.5-0.7,1.1-1.5,1.8-2.4c0.7-0.9,1.5-2,2.5-3.2
			c-0.2,0-0.5,0-0.8,0.1c-0.3,0-0.5,0.1-0.8,0.1c0.2-0.5,0.6-0.9,1.1-1.2c0.5-0.3,1.1-0.5,1.7-0.6c0.2-0.2,0.3-0.4,0.4-0.5
			c0.1-0.1,0.2-0.3,0.4-0.5c0.2-0.2,0.4-0.5,0.7-0.8c0.3-0.3,0.7-0.8,1.2-1.4c0.5-0.6,1.2-1.5,2-2.5c0.1-0.1,0.2-0.2,0.4-0.5
			c0.2-0.2,0.3-0.5,0.4-0.7c0.1-0.1,0.1-0.2,0.1-0.3c0,0-0.1-0.1-0.2-0.1c-0.3,0-0.7,0.1-1.1,0.4c-0.4,0.3-0.9,0.6-1.4,1.1
			c-0.5,0.4-0.9,0.9-1.3,1.3s-0.7,0.9-0.8,1.2c-0.1,0.1-0.1,0.3-0.2,0.4c0,0.2-0.1,0.4-0.1,0.6c-0.6,0-1-0.1-1.1-0.4
			c-0.1-0.3-0.1-0.7,0.1-1.1c0.3-0.5,0.7-1.1,1.2-1.6c0.6-0.5,1.2-1,1.9-1.5c0.7-0.4,1.4-0.8,2.1-1.1c0.7-0.3,1.3-0.4,1.7-0.4
			c0.5,0,0.7,0.1,0.8,0.4c0,0.3,0,0.6-0.2,0.9c-0.1,0.2-0.2,0.3-0.3,0.5s-0.2,0.3-0.4,0.5l-4.4,5.7c0.2,0,0.4,0,0.6,0
			c0.2,0,0.4,0,0.6,0c0.7,0,1.4,0,2,0.1c0.6,0,1.2,0.1,1.8,0.1c1-1.3,1.9-2.4,2.5-3.2c0.7-0.8,1.3-1.5,1.7-2.1
			c0.5-0.6,0.9-1,1.3-1.5c0.1-0.1,0.3-0.3,0.5-0.5c0.2-0.2,0.5-0.4,0.8-0.6c0.3-0.2,0.6-0.2,1-0.2c-0.5,0.5-1.1,1.3-1.8,2.2
			c-0.7,0.9-1.5,1.9-2.3,2.9c-0.8,1.1-1.6,2.1-2.3,3.1c0.2,0,0.5,0,0.9,0c0.4,0,0.7,0,1,0c-0.7,0.5-1.3,0.8-1.7,0.9
			c-0.4,0.1-0.8,0.2-1.1,0.2c-0.5,0.7-1,1.4-1.5,2.1c-0.5,0.7-0.9,1.3-1.2,1.8c-0.7,1-1.2,1.9-1.7,2.6c-0.4,0.7-0.8,1.4-1,1.8
			c-0.1,0.3-0.2,0.5-0.3,0.7c-0.1,0.2-0.1,0.4-0.2,0.6c-0.7-0.1-1.1-0.3-1.3-0.6c-0.1-0.3,0-0.8,0.4-1.6c0.2-0.4,0.4-0.8,0.7-1.2
			c0.3-0.4,0.6-1,1-1.6c0.4-0.6,0.9-1.2,1.5-2c0.6-0.8,1.3-1.6,2.1-2.6c-0.9,0-1.7,0-2.3,0c-0.6,0-1.1,0-1.6,0c-0.5,0-0.9,0-1.4,0.1
			c0,0.1-0.1,0.2-0.3,0.4c-0.2,0.2-0.4,0.6-0.8,1.1c-0.4,0.5-1,1.3-1.8,2.3c-0.8,1-1.9,2.4-3.2,4c-0.4,0.6-0.9,1-1.5,1.2
			S22,57.3,21.7,57.3z"/>
		<path class="st0" d="M39.4,56.1c-0.7,0-1-0.2-1-0.7c0-0.5,0.1-1,0.4-1.5c0.2-0.5,0.6-1,1-1.5c0.4-0.5,0.9-1,1.3-1.5
			c0.5-0.5,1-0.8,1.4-1.1c0.5-0.3,0.8-0.4,1.2-0.4c0.1,0,0.2,0,0.3,0.1c0.1,0,0.2,0.1,0.2,0.2c-0.3,0.2-0.6,0.5-1,0.9
			c-0.4,0.3-0.7,0.7-1.1,1.1c-0.3,0.4-0.7,0.8-0.9,1.2c-0.3,0.4-0.5,0.8-0.7,1.1c-0.2,0.3-0.2,0.6-0.2,0.8c0,0.2,0.2,0.3,0.4,0.3
			c0.3,0,0.7-0.2,1.3-0.5c0.6-0.3,1.1-0.7,1.7-1.2c-0.3-0.5-0.4-1-0.3-1.5c0.1-0.5,0.3-1.2,0.6-2c0.2-0.3,0.4-0.7,0.8-1.1
			c0.4-0.4,0.8-0.8,1.3-1.1c0.5-0.3,1.1-0.5,1.7-0.5c0.6,0,1,0.2,1.1,0.6c0.1,0.4,0,0.8-0.3,1.3c-0.3,0.6-0.7,1.2-1.4,2
			c-0.6,0.7-1.3,1.4-2,2c0.1,0.1,0.3,0.1,0.6,0.1c0.2,0,0.5-0.1,0.9-0.2c0.4-0.1,0.8-0.3,1.2-0.5c0.4-0.3,0.8-0.6,1.2-1l0.3,0.3
			c-0.7,0.8-1.4,1.4-2.2,1.8c-0.7,0.4-1.4,0.5-1.9,0.5c-0.2,0-0.4,0-0.6-0.1c-0.2,0-0.3-0.1-0.5-0.2c-0.8,0.6-1.7,1.2-2.6,1.6
			C40.8,55.9,40,56.1,39.4,56.1z M44.7,52.5c0.6-0.5,1.2-1.1,1.8-1.8c0.6-0.6,1-1.2,1.2-1.7c0.2-0.4,0.3-0.6,0.2-0.8
			s-0.1-0.2-0.4-0.2c-0.3,0-0.7,0.2-1.2,0.6c-0.5,0.4-0.9,1-1.2,1.6c-0.2,0.3-0.3,0.7-0.4,1.2C44.6,51.8,44.6,52.2,44.7,52.5z"/>
		<path class="st0" d="M50.3,56.5c-0.7,0-1.1-0.2-1.3-0.6c-0.2-0.4-0.1-1,0.3-1.9c0.3-0.6,0.8-1.4,1.5-2.4c0.7-1,1.5-1.9,2.3-3
			c-0.1,0-0.2-0.1-0.3-0.1c-0.1,0-0.2-0.1-0.4-0.1l0.4-0.7c0.2,0,0.4,0.1,0.6,0.1c0.1,0,0.3,0,0.5,0c0.7-0.8,1.5-1.6,2.2-2.4
			c0.7-0.8,1.5-1.5,2.1-2.1c0.7-0.6,1.3-1.1,1.8-1.4c0.5-0.4,0.9-0.5,1.1-0.5c0.1,0,0.3,0.1,0.3,0.2c0.1,0.1,0.1,0.3,0,0.5
			c-0.2,0.3-0.5,0.8-1.1,1.3c-0.6,0.6-1.3,1.3-2.1,2c-0.8,0.8-1.7,1.6-2.5,2.5c0.1,0,0.2,0,0.4,0c0.1,0,0.2,0,0.3,0
			c0.7,0,1.3,0,1.8,0c0.5,0,1.1-0.1,1.7-0.1l-0.4,0.8c-0.9,0.1-1.6,0.1-2.4,0.2s-1.4,0.1-2,0.1c0,0-0.1,0-0.1,0c0,0-0.1,0-0.1,0
			c-0.7,0.8-1.4,1.6-2,2.4c-0.6,0.8-1.1,1.6-1.5,2.4c-0.3,0.6-0.4,1.1-0.4,1.4c0.1,0.3,0.3,0.4,0.7,0.4c0.7,0,1.7-0.4,2.8-1.1
			c1.1-0.7,2.3-1.7,3.5-2.9l0.2,0.2c-0.8,0.9-1.7,1.8-2.7,2.5c-0.9,0.8-1.9,1.3-2.7,1.8C51.9,56.2,51.1,56.5,50.3,56.5z"/>
		<path class="st0" d="M59.6,56.4c-1,0-1.6-0.3-1.8-0.8c-0.3-0.5-0.2-1.2,0.2-2c0.3-0.7,0.9-1.4,1.6-2.2c0.7-0.8,1.5-1.5,2.4-2.2
			c0.9-0.7,1.8-1.2,2.7-1.7c0.9-0.4,1.7-0.6,2.4-0.6c0.4,0,0.7,0.1,1,0.3c0.2,0.2,0.2,0.6-0.1,1.3c-0.3,0.6-0.7,1.2-1.3,1.7
			c-0.6,0.5-1.3,1-2,1.4c-0.8,0.4-1.5,0.7-2.3,1c-0.8,0.3-1.5,0.4-2.3,0.5c0,0.1-0.1,0.1-0.1,0.2c0,0.1-0.1,0.2-0.2,0.3
			c0,0.1-0.1,0.2-0.2,0.4s-0.1,0.4-0.1,0.6s0.1,0.4,0.2,0.6c0.2,0.2,0.5,0.2,0.9,0.2c0.6,0,1.3-0.2,2.2-0.5c0.8-0.4,1.7-0.9,2.5-1.5
			c0.9-0.6,1.7-1.3,2.4-2l0.3,0.4c-0.9,0.9-1.8,1.8-2.8,2.5c-1,0.7-2,1.3-2.9,1.6C61.3,56.2,60.4,56.4,59.6,56.4z M60.8,52.2
			c0.4,0,0.9-0.2,1.5-0.4c0.6-0.2,1.2-0.5,1.8-0.9c0.6-0.4,1.2-0.8,1.7-1.2c0.5-0.4,0.9-0.9,1.1-1.3c0.1-0.2,0.1-0.3,0.1-0.4
			c0-0.1-0.1-0.1-0.2-0.1c-0.3,0-0.8,0.1-1.3,0.4c-0.5,0.3-1,0.6-1.6,1c-0.6,0.4-1.1,0.9-1.6,1.4C61.6,51.2,61.2,51.7,60.8,52.2z"/>
		<path class="st0" d="M69,56.1c-0.7,0-1.1-0.3-1.1-0.7c0-0.5,0.1-1.1,0.4-1.8c0.4-0.8,1-1.7,1.7-2.7c0.8-1,1.7-2.1,2.7-3.3
			c1-1.1,2-2.3,3.1-3.3c1.1-1.1,2.1-2.1,3-3c1-0.9,1.8-1.6,2.5-2.1c0.7-0.5,1.2-0.8,1.5-0.8c0.2,0,0.3,0.1,0.3,0.3
			c0,0.2,0,0.5,0,0.8c-0.1,0.3-0.2,0.6-0.3,0.8c-0.2,0.4-0.6,1-1.1,1.7c-0.5,0.7-1.2,1.4-2,2.2c-0.8,0.8-1.6,1.7-2.5,2.5
			c-0.9,0.9-1.9,1.7-2.9,2.4s-2,1.4-2.9,2c-0.3,0.4-0.5,0.8-0.7,1.2s-0.4,0.7-0.6,1c-0.3,0.6-0.4,1-0.3,1.2c0.1,0.3,0.2,0.4,0.5,0.4
			c0.4,0,0.8-0.2,1.4-0.5c0.6-0.4,1.2-0.8,1.8-1.4c0.6-0.6,1.3-1.2,1.8-1.8l0.4,0.3c-1.3,1.4-2.6,2.5-3.8,3.3
			C70.9,55.7,69.9,56.1,69,56.1z M72.7,49.7c0.8-0.6,1.6-1.2,2.4-1.9c0.8-0.7,1.5-1.4,2.3-2.1c0.7-0.7,1.4-1.4,2-2
			c0.6-0.7,1.1-1.3,1.5-1.8c0.4-0.5,0.7-0.9,0.9-1.3c0,0,0,0,0,0s0,0,0,0c-0.1,0-0.4,0.2-0.8,0.5c-0.4,0.4-1,0.8-1.6,1.4
			c-0.7,0.6-1.4,1.3-2.1,2.1c-0.8,0.8-1.5,1.6-2.3,2.5C74.1,48,73.3,48.9,72.7,49.7z"/>
		<path class="st0" d="M86.5,57.5c-0.5,0-1-0.1-1.4-0.2s-0.6-0.5-0.8-1c0.2-0.4,0.6-0.9,1.1-1.6c0.5-0.7,1.1-1.5,1.8-2.5
			c0.7-0.9,1.4-1.9,2.2-2.8c0.8-1,1.5-1.9,2.2-2.8c0.7-0.9,1.3-1.7,1.9-2.3c0.5-0.7,0.9-1.1,1.2-1.4c0.1-0.1,0.3-0.3,0.5-0.6
			c0.2-0.3,0.5-0.5,0.8-0.8c0.3-0.3,0.6-0.5,0.9-0.7c0.3-0.2,0.6-0.3,0.8-0.3c0.3,0,0.5,0.1,0.7,0.3c-1,1.1-2.1,2.3-3.2,3.7
			c-1.1,1.3-2.3,2.7-3.4,4.1c-1.1,1.4-2.2,2.8-3.2,4.1c-1,1.3-1.9,2.6-2.7,3.7c0.1,0,0.2,0.1,0.5,0.1c0.2,0,0.4,0,0.6,0
			c1,0,2-0.2,3.1-0.7c1.1-0.5,2.3-1.2,3.4-2c1.1-0.8,2.2-1.7,3.3-2.8c1.1-1,2-2.1,2.8-3.2c0.8-1.1,1.5-2.1,2-3.1
			c0.6-1.3,0.9-2.3,0.9-3.1c0-0.8-0.3-1.4-0.8-1.7c-0.5-0.4-1.3-0.6-2.2-0.6c-1,0-1.9,0.2-2.9,0.5c-1,0.4-1.8,0.9-2.6,1.5
			c-0.8,0.6-1.3,1.4-1.7,2.2c-0.1,0.2-0.2,0.4-0.2,0.6c-0.1,0.2-0.1,0.4-0.1,0.6c-0.6,0-1-0.1-1.2-0.4c-0.1-0.3-0.1-0.6,0.1-1.1
			c0.3-0.5,0.7-1.1,1.4-1.7c0.7-0.6,1.4-1.1,2.4-1.6c0.9-0.5,1.9-0.9,2.9-1.1c1-0.3,2.1-0.4,3.1-0.4c1.5,0,2.5,0.3,3.1,0.9
			c0.6,0.6,0.8,1.4,0.8,2.4s-0.4,2.1-1,3.3c-0.7,1.4-1.5,2.6-2.5,3.9c-1,1.2-2.1,2.4-3.4,3.4c-1.2,1-2.5,1.9-3.8,2.7
			s-2.6,1.4-3.9,1.8C88.8,57.3,87.6,57.5,86.5,57.5z"/>
		<path class="st0" d="M103,56.5c-1,0-1.6-0.3-1.8-0.8c-0.3-0.5-0.2-1.2,0.2-2c0.3-0.7,0.9-1.4,1.6-2.2c0.7-0.8,1.5-1.5,2.4-2.2
			c0.9-0.7,1.8-1.2,2.7-1.7c0.9-0.4,1.7-0.6,2.4-0.6c0.4,0,0.7,0.1,1,0.3c0.2,0.2,0.2,0.6-0.1,1.3c-0.3,0.6-0.7,1.2-1.3,1.7
			c-0.6,0.5-1.3,1-2,1.4c-0.8,0.4-1.5,0.7-2.3,1c-0.8,0.3-1.5,0.4-2.3,0.5c0,0.1-0.1,0.1-0.1,0.2c0,0.1-0.1,0.2-0.2,0.3
			c0,0.1-0.1,0.2-0.2,0.4s-0.1,0.4-0.1,0.6c0,0.2,0.1,0.4,0.2,0.6c0.2,0.2,0.5,0.2,0.9,0.2c0.6,0,1.3-0.2,2.2-0.5
			c0.8-0.4,1.7-0.9,2.5-1.5c0.9-0.6,1.7-1.3,2.4-2l0.3,0.4c-0.9,0.9-1.8,1.8-2.8,2.5c-1,0.7-2,1.3-2.9,1.6
			C104.7,56.4,103.8,56.6,103,56.5z M104.1,52.3c0.4,0,0.9-0.2,1.5-0.4c0.6-0.2,1.2-0.5,1.8-0.9c0.6-0.4,1.2-0.8,1.7-1.2
			c0.5-0.4,0.9-0.9,1.1-1.3c0.1-0.2,0.1-0.3,0.1-0.4c0-0.1-0.1-0.1-0.2-0.1c-0.3,0-0.8,0.1-1.3,0.4c-0.5,0.3-1,0.6-1.6,1
			c-0.6,0.4-1.1,0.9-1.6,1.4C105,51.3,104.5,51.8,104.1,52.3z"/>
		<path class="st0" d="M112.3,56.2c-0.7,0-1.1-0.3-1.1-0.7c0-0.5,0.1-1.1,0.4-1.8c0.4-0.8,1-1.7,1.7-2.7c0.8-1,1.7-2.1,2.7-3.3
			c1-1.1,2-2.3,3.1-3.3c1.1-1.1,2.1-2.1,3-3c1-0.9,1.8-1.6,2.5-2.1c0.7-0.5,1.2-0.8,1.5-0.8c0.2,0,0.3,0.1,0.3,0.3
			c0,0.2,0,0.5,0,0.8c-0.1,0.3-0.2,0.6-0.3,0.8c-0.2,0.4-0.6,1-1.1,1.7c-0.5,0.7-1.2,1.4-2,2.2c-0.8,0.8-1.6,1.7-2.5,2.5
			c-0.9,0.9-1.9,1.7-2.9,2.4s-2,1.4-2.9,2c-0.3,0.4-0.5,0.8-0.7,1.2s-0.4,0.7-0.6,1c-0.3,0.6-0.4,1-0.3,1.2c0.1,0.3,0.2,0.4,0.5,0.4
			c0.4,0,0.8-0.2,1.4-0.5c0.6-0.4,1.2-0.8,1.8-1.4c0.6-0.6,1.3-1.2,1.8-1.8l0.4,0.3c-1.3,1.4-2.6,2.5-3.8,3.3
			C114.2,55.8,113.2,56.2,112.3,56.2z M116,49.9c0.8-0.6,1.6-1.2,2.4-1.9c0.8-0.7,1.5-1.4,2.3-2.1c0.7-0.7,1.4-1.4,2-2
			c0.6-0.7,1.1-1.3,1.5-1.8c0.4-0.5,0.7-0.9,0.9-1.3c0,0,0,0,0,0s0,0,0,0c-0.1,0-0.4,0.2-0.8,0.5c-0.4,0.4-1,0.8-1.6,1.4
			c-0.7,0.6-1.4,1.3-2.1,2.1c-0.8,0.8-1.5,1.6-2.3,2.5C117.4,48.2,116.7,49,116,49.9z"/>
		<path class="st0" d="M135.4,57.7c-0.6,0-1.1-0.1-1.7-0.4c-0.6-0.2-1.1-0.5-1.7-0.9c-0.6-0.3-1.1-0.6-1.7-0.9
			c-0.6,0.4-1.1,0.8-1.7,1c-0.5,0.2-1.1,0.4-1.6,0.3c-0.5,0-0.9-0.1-1.2-0.4c-0.3-0.2-0.4-0.5-0.4-0.9c0-0.3,0-0.7,0.2-0.9
			c0.2-0.3,0.4-0.6,0.8-0.8c0.4-0.2,0.9-0.4,1.6-0.3c0.4,0,0.8,0,1.3,0.1c0.4,0.1,0.9,0.2,1.3,0.3c0.7-0.6,1.3-1.4,2-2.2
			c0.7-0.8,1.4-1.7,2.2-2.7c0.7-0.9,1.5-1.8,2.2-2.7c-0.6-0.3-1-0.6-1.2-1.1c-0.2-0.5-0.1-1,0.1-1.5c0.2-0.3,0.4-0.6,0.7-0.9
			c0.3-0.3,0.6-0.6,1-0.8c0.4-0.2,0.8-0.3,1.2-0.3c-0.3,0.3-0.6,0.5-0.8,0.8c-0.2,0.3-0.4,0.6-0.4,0.8c-0.3,0.5-0.4,1-0.3,1.3
			c0,0.4,0.2,0.6,0.4,0.9c0.7-0.9,1.4-1.8,2.2-2.6c0.7-0.8,1.4-1.6,2.1-2.2c0.7-0.6,1.4-1.1,2.1-1.5c0.7-0.4,1.3-0.6,1.9-0.6
			c0.3,0,0.7,0.1,1,0.2s0.5,0.4,0.6,0.8c0.1,0.4,0,0.9-0.3,1.6c-0.3,0.5-0.6,1.1-1.2,1.7c-0.5,0.6-1.1,1.2-1.9,1.8
			c-0.7,0.6-1.6,1-2.5,1.4c-0.9,0.4-1.9,0.6-2.9,0.6c0,0-0.1,0-0.1,0c0,0-0.1,0-0.1,0c-0.7,0.9-1.5,1.8-2.2,2.8
			c-0.8,0.9-1.5,1.8-2.3,2.7c-0.8,0.8-1.5,1.6-2.3,2.3c0.5,0.2,1,0.4,1.7,0.6s1.2,0.4,1.9,0.6c0.6,0.2,1.2,0.2,1.8,0.2
			c0.4,0,0.7,0,1.1-0.1s0.7-0.2,1.2-0.4c-0.7,0.9-1.4,1.5-2,1.9C136.6,57.5,136,57.7,135.4,57.7z M127.3,56c0.4,0,0.7-0.1,1.1-0.3
			c0.3-0.2,0.7-0.4,1-0.7c-0.4-0.2-0.7-0.3-1.1-0.4c-0.3-0.1-0.7-0.2-1-0.2c-0.3,0-0.5,0.1-0.7,0.2c-0.2,0.1-0.3,0.2-0.4,0.4
			c-0.1,0.3-0.1,0.5,0.1,0.7C126.5,55.9,126.8,56,127.3,56z M139.2,45.9c0.7,0,1.4-0.3,2.1-0.7c0.7-0.4,1.4-0.9,2-1.4
			c0.6-0.5,1.2-1.1,1.6-1.7c0.5-0.6,0.8-1.1,1-1.5c0.2-0.4,0.3-0.7,0.2-0.8c-0.1-0.1-0.2-0.2-0.4-0.2c-0.4,0-1,0.3-1.7,0.9
			c-0.7,0.6-1.4,1.3-2.2,2.3C141,43.7,140.1,44.7,139.2,45.9z"/>
		<path class="st0" d="M143.8,56.3c-0.5,0-0.8-0.3-0.9-0.7c-0.1-0.5,0-1.1,0.4-1.7c0.2-0.4,0.5-1,1-1.6c0.4-0.6,0.9-1.2,1.4-1.7
			c0.5-0.6,0.9-1,1.4-1.4s0.7-0.6,0.9-0.6c0.1,0,0.2,0.1,0.4,0.2c0.2,0.1,0.3,0.3,0.4,0.4c-0.3,0.3-0.7,0.6-1.2,1.2
			c-0.5,0.5-1,1.1-1.4,1.7c-0.5,0.6-0.8,1.1-1.1,1.6c0,0.1-0.1,0.2-0.2,0.4s-0.1,0.5-0.2,0.7c0,0.2,0.1,0.3,0.3,0.3
			c0.3,0,0.6-0.1,1-0.4s0.9-0.7,1.4-1.1c0.5-0.5,1.1-1,1.6-1.5c0.6-0.5,1.1-1,1.5-1.6c0.5-0.5,0.9-0.9,1.2-1.3
			c0.1,0,0.3,0.1,0.5,0.1c0.2,0.1,0.3,0.1,0.5,0.2s0.1,0.2,0,0.4c0,0-0.2,0.2-0.5,0.6c-0.3,0.3-0.7,0.7-1.1,1.2
			c-0.4,0.5-0.8,1-1.2,1.4c-0.4,0.5-0.7,0.9-0.9,1.3c-0.1,0.2-0.2,0.4-0.2,0.6c0,0.2,0.1,0.2,0.4,0.2c0.3,0,0.8-0.1,1.3-0.4
			c0.6-0.3,1.2-0.7,2-1.3c0.7-0.6,1.5-1.2,2.2-2l0.2,0.3c-0.7,0.8-1.5,1.6-2.4,2.3c-0.9,0.7-1.7,1.2-2.5,1.6c-0.8,0.4-1.5,0.6-2,0.6
			c-0.4,0-0.7-0.1-0.8-0.3c-0.1-0.2-0.1-0.5,0-0.8c0.1-0.3,0.2-0.7,0.4-1c0-0.1,0.1-0.2,0.1-0.2c0-0.1,0.1-0.2,0.1-0.2
			c-0.5,0.4-0.9,0.8-1.4,1.2s-1,0.7-1.4,1C144.6,56.2,144.2,56.3,143.8,56.3z"/>
		<path class="st0" d="M161.9,56.1c-0.6,0-1-0.2-1.1-0.5c-0.2-0.3-0.1-0.7,0.1-1.2c0.2-0.3,0.4-0.6,0.6-1c0.3-0.4,0.6-0.7,0.8-1.1
			c0.3-0.4,0.5-0.7,0.7-1c0.2-0.3,0.2-0.6,0.1-0.7c-0.1-0.1-0.2-0.2-0.5-0.2c-0.4,0-1,0.2-1.7,0.6c-0.7,0.4-1.4,0.9-2.1,1.4
			c-0.7,0.6-1.4,1.2-2.1,1.8c-0.7,0.6-1.3,1.2-1.8,1.7c-0.3,0-0.5-0.1-0.7-0.2c-0.2-0.1-0.3-0.3-0.4-0.5c0.1-0.1,0.3-0.3,0.6-0.7
			c0.4-0.4,0.8-0.9,1.2-1.4c0.5-0.6,0.9-1.1,1.4-1.8c0.4-0.6,0.8-1.2,1-1.7c0.2-0.1,0.4-0.3,0.7-0.4c0.3-0.1,0.5-0.2,0.8-0.2
			c0.5,0,0.7,0.2,0.4,0.7c-0.1,0.2-0.3,0.5-0.5,0.8s-0.5,0.8-0.9,1.3c0.7-0.5,1.3-1.1,2-1.6c0.7-0.5,1.4-0.9,2-1.2s1.2-0.5,1.7-0.5
			c0.6,0,1,0.2,1.1,0.7c0.1,0.5,0,1-0.3,1.5c-0.2,0.5-0.5,0.9-0.9,1.3c-0.4,0.4-0.7,0.8-1,1.2c-0.3,0.4-0.6,0.7-0.7,1.1
			c-0.1,0.3-0.2,0.4-0.1,0.5c0.1,0.1,0.2,0.2,0.3,0.2c0.4,0,0.8-0.2,1.4-0.5c0.6-0.4,1.2-0.8,1.8-1.4c0.6-0.6,1.2-1.1,1.8-1.7
			l0.2,0.3c-0.7,0.8-1.4,1.5-2.1,2.1c-0.7,0.6-1.4,1.1-2.1,1.5C163.2,56,162.5,56.1,161.9,56.1z"/>
		<path class="st0" d="M168.2,56.8c-0.5,0-0.8-0.2-1-0.5c-0.2-0.3-0.1-0.9,0.2-1.6c0.3-0.6,0.7-1.1,1.2-1.8c0.6-0.6,1.2-1.3,1.9-1.9
			c0.7-0.6,1.5-1.2,2.3-1.7c0.8-0.5,1.6-0.9,2.3-1.2c0.8-0.3,1.5-0.5,2.1-0.5c0.6,0,1.1,0.2,1.4,0.5s0.3,0.8,0,1.4
			c-0.2,0.4-0.5,0.7-0.9,0.9c-0.4,0.2-0.7,0.2-1.1,0.2c0.1-0.1,0.2-0.3,0.3-0.4c0.1-0.1,0.2-0.3,0.3-0.4c0.2-0.3,0.2-0.6,0.2-0.8
			c0-0.3-0.2-0.4-0.6-0.4c-0.4,0-0.9,0.1-1.5,0.4c-0.6,0.3-1.2,0.7-1.8,1.2c-0.6,0.5-1.2,1-1.8,1.6c-0.6,0.6-1.1,1.1-1.6,1.7
			c-0.4,0.5-0.8,1-1,1.5c-0.2,0.5-0.2,0.8,0.1,0.8s0.8-0.2,1.4-0.5c0.6-0.4,1.2-0.8,1.9-1.3c0.7-0.5,1.4-1.1,2-1.6
			c0.7-0.6,1.2-1,1.7-1.4c0.1-0.1,0.2-0.1,0.2-0.1c0.1,0,0.2,0.1,0.3,0.1c0.1,0.1,0.3,0.1,0.4,0.2c0.1,0.1,0.1,0.3,0,0.4
			c-0.1,0.2-0.2,0.4-0.5,0.6c-0.2,0.2-0.5,0.5-0.8,0.8c-0.3,0.3-0.6,0.6-0.9,0.9c-0.3,0.3-0.5,0.6-0.6,0.8c-0.1,0.2-0.1,0.4-0.1,0.6
			c0,0.2,0.1,0.3,0.4,0.3c0.4,0,1-0.3,1.9-0.8c0.9-0.6,2-1.5,3.4-2.8l0.2,0.4c-0.8,0.8-1.6,1.6-2.4,2.2c-0.8,0.7-1.6,1.2-2.3,1.5
			c-0.7,0.4-1.4,0.6-2,0.5c-0.6,0-1-0.2-1.1-0.6c-0.1-0.4,0-0.8,0.2-1.3c0,0,0-0.1,0-0.1c0,0,0,0,0,0c-1,0.8-1.8,1.3-2.5,1.8
			C169.4,56.6,168.7,56.8,168.2,56.8z"/>
	</g>
</g>
</svg>
