<?xml version="1.0" encoding="utf-8"?>
<!-- Generator: Adobe Illustrator 22.0.1, SVG Export Plug-In . SVG Version: 6.00 Build 0)  -->
<svg version="1.1" id="Layer_1" xmlns="http://www.w3.org/2000/svg" xmlns:xlink="http://www.w3.org/1999/xlink" x="0px" y="0px"
	 viewBox="0 0 405.9 418.8" style="enable-background:new 0 0 405.9 418.8;" xml:space="preserve">
<style type="text/css">
	.st0{fill:none;stroke:#040000;stroke-miterlimit:10;}
</style>
<g>
	<path class="st0" d="M24.3,14c0,0,23.3,136.2,178.6,195.4s170.7,191.9,170.7,191.9"/>
	<path class="st0" d="M43.7,14c0,0,27.1,134.7,158.3,195.4s151.7,192.1,151.7,192.1"/>
	<path class="st0" d="M63.1,14c0,0,30.8,133.2,137.9,195.4s132.8,192.4,132.8,192.4"/>
	<path class="st0" d="M82.6,14c0,0,34.6,131.7,117.5,195.4S313.9,402,313.9,402"/>
	<path class="st0" d="M102,14c0,0,38.4,130.2,97.2,195.4S294,402.2,294,402.2"/>
	<path class="st0" d="M121.4,14c0,0,42.2,128.8,76.8,195.4s75.9,193,75.9,193"/>
	<path class="st0" d="M140.8,14c0,0,46,127.3,56.4,195.4c10.5,68.1,56.9,193.2,56.9,193.2"/>
	<path class="st0" d="M160.2,14c0,0,49.8,125.8,36.1,195.4c-13.7,69.6,37.9,193.5,37.9,193.5"/>
	<path class="st0" d="M179.6,14c0,0,53.5,124.3,15.7,195.4s19,193.7,19,193.7"/>
	<path class="st0" d="M199,14c0,0,57.3,122.8-4.7,195.4s0,193.9,0,193.9"/>
</g>
</svg>
