<?xml version="1.0" encoding="utf-8"?>
<!-- Generator: Adobe Illustrator 22.0.1, SVG Export Plug-In . SVG Version: 6.00 Build 0)  -->
<svg version="1.1" id="Layer_1" xmlns="http://www.w3.org/2000/svg" xmlns:xlink="http://www.w3.org/1999/xlink" x="0px" y="0px"
	 viewBox="0 0 2919.6 1294.7" style="enable-background:new 0 0 2919.6 1294.7;" xml:space="preserve">
<style type="text/css">
	.st0{fill:none;stroke:#6DD2FF;}
</style>
<g id="그룹_2963" transform="translate(927.02 -609.096)">
	<path id="패스_2285" class="st0" d="M508.4,979h36.9l-51.8-250.1h-40.4L401.3,979h36.5l8.6-44.2h53.4L508.4,979z M490.8,887.8
		h-35.3l17.5-91.6L490.8,887.8z M657.9,728.9h-53.7V979h53.7c45.7,0,75.1-51,75.1-125.1C733,779.5,703.6,728.9,657.9,728.9
		L657.9,728.9z M639.1,926.3V780.9h16.5c26.3,0,41.8,27.1,41.8,73c0,46-15.5,72.3-41.8,72.3L639.1,926.3z M752.6,979h34.9V780.2
		h-34.9V979z M770.1,759.5c12.2,0,20.6-14.6,20.6-32.8c0-18.5-8.4-33.1-20.6-33.1c-12.4,0-20.8,14.6-20.8,33.1
		C749.3,744.9,757.7,759.5,770.1,759.5L770.1,759.5z M805.8,879.2c0,62.7,22.2,102.6,50.2,102.6c16.7,0,28.8-13.9,35.1-31.4v28.2
		c0,33.5-10.4,45.6-23.7,45.6c-12,0-20.6-9.6-22.8-24.6h-34.5c3.1,47.4,25.1,77.3,59,77.3c39.4,0,56.9-45.3,56.9-98.3V780.2h-34.9
		v28.1c-6.1-17.8-18.4-31-35.1-31C828,777.3,805.8,816.5,805.8,879.2L805.8,879.2z M891.1,879.6c0,31.7-11.6,49.2-24.9,49.2
		c-13.1,0-24.9-17.8-24.9-49.5s11.8-48.8,24.9-48.8C879.5,830.4,891.1,847.9,891.1,879.6L891.1,879.6z M951.3,979h34.9V780.2h-34.9
		V979z M968.8,759.5c12.2,0,20.6-14.6,20.6-32.8c0-18.5-8.4-33.1-20.6-33.1c-12.4,0-20.8,14.6-20.8,33.1
		C948,744.9,956.4,759.5,968.8,759.5z M1017,909.9c0,51.7,16.5,69.1,40.2,69.1h17.7v-51.7h-12.4c-7.8,0-10.6-5-10.6-16.7v-79.8h22.8
		v-50.6h-22.8v-48.5H1017v48.5h-13.9v50.6h13.9V909.9z M1087.3,879.2c0,62.7,22.2,102.6,50,102.6c16.9,0,29-13.5,35.3-31V979h34.9
		V780.2h-34.9v28.1c-6.1-17.5-18.2-31-35.1-31C1109.6,777.3,1087.3,816.5,1087.3,879.2z M1172.6,879.6c0,31.7-11.6,49.2-24.9,49.2
		c-13.1,0-24.9-17.8-24.9-49.5s11.8-48.8,24.9-48.8C1161,830.4,1172.6,847.9,1172.6,879.6L1172.6,879.6z M1232.8,979h34.9V715.3
		h-34.9V979z M1440.3,904.5c0-83.7-70.8-64.1-70.8-107.6c0-15.7,6.3-23.2,14.7-22.8c9.4,0.3,15.9,10,16.5,26h37.7
		c-1.4-47.7-22.4-74.8-53.7-74.8c-30,0-52.2,26.4-52.2,73.8c-0.4,88.7,71.2,63.8,71.2,110.1c0,14.6-6.5,23.5-16.7,23.5
		c-9.8,0-16.7-9.3-17.7-28.5h-37.1c1,50.6,25.1,77.3,55.9,77.3C1421.5,981.5,1440.3,946.6,1440.3,904.5z M1467.2,909.9
		c0,51.7,16.5,69.1,40.2,69.1h17.7v-51.7h-12.4c-7.8,0-10.6-5-10.6-16.7v-79.8h22.8v-50.6h-22.8v-48.5h-34.9v48.5h-13.9v50.6h13.9
		V909.9z M1656.9,780.2H1622v108c0,27.1-8.6,42-22,42c-13.1,0-21.8-15-21.8-42v-108h-34.7v116.2c0,53.1,17.7,84.8,44.1,84.8
		c15.3,0,27.5-12.1,34.5-29.2V979h34.9V780.2z M1675.1,879.2c0,62.7,22.2,102.6,50.2,102.6c16.7,0,28.8-13.2,35.1-31.4V979h34.9
		V715.3h-34.9v92.3c-6.9-18.2-20-30.3-35.1-30.3C1697.3,777.3,1675.1,816.5,1675.1,879.2z M1760.3,879.6c0,31.7-11.6,49.2-24.9,49.2
		c-13.1,0-24.9-17.8-24.9-49.5s11.8-48.8,24.9-48.8C1748.7,830.4,1760.3,847.9,1760.3,879.6L1760.3,879.6z M1820.5,979h34.9V780.2
		h-34.9V979z M1838,759.5c12.2,0,20.6-14.6,20.6-32.8c0-18.5-8.4-33.1-20.6-33.1c-12.4,0-20.8,14.6-20.8,33.1
		C1817.2,744.9,1825.6,759.5,1838,759.5z M1992.1,879.6c0-63.1-25.7-102.3-59.2-102.3c-33.3,0-59.2,39.2-59.2,102.3
		s25.3,102.3,58.8,102.3S1992.1,942.7,1992.1,879.6z M1909.2,879.6c0-33.9,11-49.5,23.7-49.5c12.2,0,23.7,15.7,23.7,49.5
		c0,33.5-11.6,49.5-24.1,49.5C1919.9,929.1,1909.2,913.1,1909.2,879.6L1909.2,879.6z"/>
	<path id="패스_2284" class="st0" d="M-335.7,1102.7v250.1h80.6v-47h-45.7v-203.1H-335.7z M-188.3,1199.9
		c11.6,0,21.4,12.5,21.4,34.2h-43.7C-208.5,1212-199.7,1199.9-188.3,1199.9L-188.3,1199.9z M-133.8,1286.9h-37.1
		c-2.9,10.7-8.4,19.2-18.2,19.2c-11.2,0-20.4-12.1-21.6-38.1h78.9c0.4-5.9,0.6-11.9,0.6-17.8c0-60.6-23.5-99.1-56.7-99.1
		c-33.9,0-57.5,39.2-57.5,102.3s24.1,102.3,57.5,102.3C-159.5,1355.6-139.3,1325.7-133.8,1286.9L-133.8,1286.9z M-119.7,1253
		c0,62.7,22.2,102.6,50,102.6c16.9,0,29-13.5,35.3-31v28.1H0.4V1154h-34.9v28.1c-6.1-17.5-18.2-31-35.1-31
		C-97.5,1151.1-119.7,1190.3-119.7,1253L-119.7,1253z M-34.4,1253.4c0,31.7-11.6,49.2-24.9,49.2c-13.1,0-24.9-17.8-24.9-49.5
		s11.8-48.8,24.9-48.8C-46.1,1204.2-34.4,1221.7-34.4,1253.4L-34.4,1253.4z M18.8,1253c0,62.7,22.2,102.6,50.2,102.6
		c16.7,0,28.8-13.2,35.1-31.4v28.5H139v-263.7h-34.9v92.3c-6.9-18.2-20-30.3-35.1-30.3C41,1151.1,18.8,1190.3,18.8,1253L18.8,1253z
		 M104.1,1253.4c0,31.7-11.6,49.2-24.9,49.2c-13.1,0-24.9-17.8-24.9-49.5s11.8-48.8,24.9-48.8
		C92.5,1204.2,104.1,1221.7,104.1,1253.4L104.1,1253.4z M164.3,1352.8h34.9V1154h-34.9V1352.8z M181.8,1133.3
		c12.2,0,20.6-14.6,20.6-32.8c0-18.5-8.4-33.1-20.6-33.1c-12.4,0-20.8,14.6-20.8,33.1C161,1118.7,169.4,1133.3,181.8,1133.3z
		 M303,1352.8h34.7v-116.2c0-53.4-17.5-84.8-43.9-84.8c-15.3,0-27.5,11.8-34.5,28.5V1154h-34.9v198.8h34.9v-108
		c0-27.1,8.6-42,21.8-42s21.8,15,21.8,42L303,1352.8z M355,1253c0,62.7,22.2,102.6,50.2,102.6c16.7,0,28.8-13.9,35.1-31.4v28.2
		c0,33.5-10.4,45.6-23.7,45.6c-12,0-20.6-9.6-22.8-24.6h-34.5c3.1,47.4,25.1,77.3,59,77.3c39.4,0,56.9-45.3,56.9-98.3V1154h-34.9
		v28.1c-6.1-17.8-18.4-31-35.1-31C377.2,1151.1,355,1190.3,355,1253z M440.3,1253.4c0,31.7-11.6,49.2-24.9,49.2
		c-13.1,0-24.9-17.8-24.9-49.5s11.8-48.8,24.9-48.8C428.6,1204.2,440.3,1221.7,440.3,1253.4L440.3,1253.4z M535.9,1151.5h37.9v201.3
		h34.9v-201.3h37.9v-48.8H535.9L535.9,1151.5z M664.3,1352.8h34.9v-108c0-27.1,8.6-42,21.8-42s21.8,15,21.8,42v108h34.7v-116.2
		c0-53.4-17.3-84.8-43.2-84.8c-15.7,0-28.2,11.8-35.1,28.9v-91.6h-34.9V1352.8z M851.9,1199.9c11.6,0,21.4,12.5,21.4,34.2h-43.7
		C831.7,1212,840.5,1199.9,851.9,1199.9L851.9,1199.9z M906.4,1286.9h-37.1c-2.9,10.7-8.4,19.2-18.2,19.2
		c-11.2,0-20.4-12.1-21.6-38.1h78.9c0.4-5.9,0.6-11.9,0.6-17.8c0-60.6-23.5-99.1-56.7-99.1c-33.9,0-57.5,39.2-57.5,102.3
		s24.1,102.3,57.5,102.3C880.7,1355.6,900.9,1325.7,906.4,1286.9z M1068.4,1352.8h36.9l-51.8-250.1h-40.4l-51.8,250.1h36.5l8.6-44.2
		h53.4L1068.4,1352.8z M1050.8,1261.6h-35.3l17.5-91.6L1050.8,1261.6z M1213.4,1295.1c-0.6-74.1-62.2-51.7-62.2-83.4
		c0-9.6,4.5-15.3,12.6-15.3c9.8,0,15.7,8.9,16.7,22.4h32.2c-2.2-39.2-18.6-67.7-47.9-67.7c-29.8,0-46.3,27.8-46.3,61.6
		c0,73,62,49.9,62,82c0,8.9-4.7,16-13.7,16c-9.6,0-16.7-9.3-17.5-23.2h-34.5c1.6,38.5,22,68.1,52.4,68.1
		C1195.9,1355.6,1213.4,1329.6,1213.4,1295.1z M1234.8,1352.8h34.9V1154h-34.9V1352.8z M1252.4,1133.3c12.2,0,20.6-14.6,20.6-32.8
		c0-18.5-8.4-33.1-20.6-33.1c-12.4,0-20.8,14.6-20.8,33.1C1231.6,1118.7,1239.9,1133.3,1252.4,1133.3z M1288.1,1253
		c0,62.7,22.2,102.6,50,102.6c16.9,0,29-13.5,35.3-31v28.1h34.9V1154h-34.9v28.1c-6.1-17.5-18.2-31-35.1-31
		C1310.3,1151.1,1288.1,1190.3,1288.1,1253z M1373.4,1253.4c0,31.7-11.6,49.2-24.9,49.2c-13.1,0-24.9-17.8-24.9-49.5
		s11.8-48.8,24.9-48.8C1361.7,1204.2,1373.4,1221.7,1373.4,1253.4L1373.4,1253.4z M1512.1,1352.8h34.7v-116.2
		c0-53.4-17.5-84.8-43.9-84.8c-15.3,0-27.5,11.8-34.5,28.5V1154h-34.9v198.8h34.9v-108c0-27.1,8.6-42,21.8-42s21.8,15,21.8,42
		V1352.8z"/>
	<path id="패스_2283" class="st0" d="M-891.6,1588.3v-62.7h19c13.9,0,19.8,12.1,19.8,31.4c0,19.2-5.9,31.4-19.8,31.4
		L-891.6,1588.3z M-817.4,1557c0-46-17.5-80.5-52.6-80.5h-56.5v250.1h34.9v-89.8h21.6C-833.5,1636.8-817.4,1598.3-817.4,1557z
		 M-687.8,1627.2c0-63.1-25.7-102.3-59.2-102.3c-33.3,0-59.2,39.2-59.2,102.3s25.3,102.3,58.8,102.3S-687.8,1690.2-687.8,1627.2
		L-687.8,1627.2z M-770.7,1627.2c0-33.9,11-49.5,23.7-49.5c12.2,0,23.7,15.7,23.7,49.5c0,33.5-11.6,49.5-24.1,49.5
		C-760.1,1676.7-770.7,1660.7-770.7,1627.2L-770.7,1627.2z M-634.4,1555.9v-28.1h-34.9v293.6h34.9v-122.6
		c6.3,16.7,18.4,30.6,35.1,30.6c27.9,0,50.2-39.9,50.2-102.6s-22.2-101.9-50.2-101.9C-616,1524.9-628.1,1538.4-634.4,1555.9
		L-634.4,1555.9z M-584.6,1626.8c0,31.7-11.8,49.5-25.1,49.5c-13.1,0-24.9-17.5-24.9-49.2c0-31.7,11.8-49.2,24.9-49.2
		C-596.4,1578-584.6,1595.1-584.6,1626.8L-584.6,1626.8z M-493.4,1601.2c0,74.8,29.8,127.2,72,127.2c34.1,0,59.8-33.1,67.9-87.3
		h-38.4c-5.9,21.4-16.7,32.1-30,32.1c-21.4,0-36.1-27.8-36.1-72s14.7-72,36.1-72c13.3,0,24.1,10.7,30,32.1h38.4
		c-8.2-54.2-33.9-87.7-67.9-87.7C-463.6,1473.6-493.4,1526.3-493.4,1601.2L-493.4,1601.2z M-219.7,1527.8h-34.9v108
		c0,27.1-8.6,42-22,42c-13.1,0-21.8-15-21.8-42v-108h-34.7v116.2c0,53.1,17.7,84.8,44.1,84.8c15.3,0,27.5-12.1,34.5-29.2v27.1h34.9
		V1527.8z M-194.6,1726.6h34.9v-263.7h-34.9V1726.6z M-128.9,1657.5c0,51.7,16.5,69.1,40.2,69.1h17.7v-51.7h-12.4
		c-7.8,0-10.6-5-10.6-16.7v-79.8h22.8v-50.6H-94v-48.5h-34.9v48.5h-13.9v50.6h13.9L-128.9,1657.5z M60.8,1527.8H26v108
		c0,27.1-8.6,42-22,42c-13.1,0-21.8-15-21.8-42v-108h-34.7v116.2c0,53.1,17.7,84.8,44.1,84.8c15.3,0,27.5-12.1,34.5-29.2v27.1h34.9
		V1527.8z M120.8,1634.3c0-34.2,9.6-44.2,26.1-44.2h9.6v-64.5c-15.3,0-27.7,14.3-35.7,35.3v-33.1H85.9v198.8h34.9V1634.3z
		 M223.4,1573.7c11.6,0,21.4,12.5,21.4,34.2h-43.7C203.2,1585.8,212,1573.7,223.4,1573.7L223.4,1573.7z M277.9,1660.7h-37.1
		c-2.9,10.7-8.4,19.2-18.2,19.2c-11.2,0-20.4-12.1-21.6-38.1h78.9c0.4-5.9,0.6-11.9,0.6-17.8c0-60.6-23.5-99.1-56.7-99.1
		c-33.9,0-57.5,39.2-57.5,102.3s24.1,102.3,57.5,102.3C252.2,1729.4,272.4,1699.5,277.9,1660.7z M342.2,1726.6H377v-150.4
		l32.2,150.4h28.2l32-150v150h34.9v-250.1h-41l-39.8,173.2l-40.2-173.2h-41.2V1726.6z M522.5,1626.8c0,62.7,22.2,102.6,50,102.6
		c16.9,0,29-13.5,35.3-31v28.1h34.9v-198.8h-34.9v28.1c-6.1-17.5-18.2-31-35.1-31C544.7,1524.9,522.5,1564.1,522.5,1626.8z
		 M607.8,1627.2c0,31.7-11.6,49.2-24.9,49.2c-13.1,0-24.9-17.8-24.9-49.5s11.8-48.8,24.9-48.8C596.1,1578,607.8,1595.5,607.8,1627.2
		L607.8,1627.2z M702.8,1634.3c0-34.2,9.6-44.2,26.1-44.2h9.6v-64.5c-15.3,0-27.7,14.3-35.7,35.3v-33.1h-34.9v198.8h34.9
		L702.8,1634.3z M755.3,1726.6h34.9v-83.4l34.7,83.4h43.2l-47.7-99.1l47.3-99.8h-43l-34.5,80.9v-145.7h-34.9V1726.6z M931.5,1573.7
		c11.6,0,21.4,12.5,21.4,34.2h-43.7C911.3,1585.8,920.1,1573.7,931.5,1573.7z M986,1660.7h-37.1c-2.9,10.7-8.4,19.2-18.2,19.2
		c-11.2,0-20.4-12.1-21.6-38.1H988c0.4-5.9,0.6-11.9,0.6-17.8c0-60.6-23.5-99.1-56.7-99.1c-33.9,0-57.5,39.2-57.5,102.3
		s24.1,102.3,57.5,102.3C960.3,1729.4,980.5,1699.5,986,1660.7z M1012.5,1657.5c0,51.7,16.5,69.1,40.2,69.1h17.7v-51.7H1058
		c-7.8,0-10.6-5-10.6-16.7v-79.8h22.8v-50.6h-22.8v-48.5h-34.9v48.5h-13.9v50.6h13.9V1657.5z"/>
</g>
</svg>
