<?xml version="1.0" encoding="utf-8"?>
<!-- Generator: Adobe Illustrator 22.0.1, SVG Export Plug-In . SVG Version: 6.00 Build 0)  -->
<svg version="1.1" id="Layer_1" xmlns="http://www.w3.org/2000/svg" xmlns:xlink="http://www.w3.org/1999/xlink" x="0px" y="0px"
	 viewBox="0 0 180.8 192" style="enable-background:new 0 0 180.8 192;" xml:space="preserve">
<style type="text/css">
	.st0{fill:#FFFFFF;}
	.st1{clip-path:url(#SVGID_2_);fill:#28E575;}
	.st2{clip-path:url(#SVGID_2_);fill:none;stroke:#FFFFFF;stroke-width:2;stroke-miterlimit:10;}
</style>
<ellipse class="st0" cx="94.9" cy="73.4" rx="61.1" ry="49.6"/>
<g>
	<defs>
		<rect id="SVGID_1_" width="180.8" height="192"/>
	</defs>
	<clipPath id="SVGID_2_">
		<use xlink:href="#SVGID_1_"  style="overflow:visible;"/>
	</clipPath>
	<path class="st1" d="M61.8,65.3c4.6,0,8.4-3.7,8.4-8.4s-3.7-8.4-8.4-8.4c-4.6,0-8.4,3.7-8.4,8.4v0C53.5,61.5,57.2,65.3,61.8,65.3"
		/>
	<path class="st2" d="M61.8,65.3c4.6,0,8.4-3.7,8.4-8.4s-3.7-8.4-8.4-8.4c-4.6,0-8.4,3.7-8.4,8.4v0C53.5,61.5,57.2,65.3,61.8,65.3"
		/>
	<path class="st1" d="M137.1,97c0,10.8-1.9,13.3-4.2,13.3c-2.3,0-4.2-2.5-4.2-13.3s4.2-25.8,4.2-25.8S137.1,86.2,137.1,97
		 M137.1,56.9c0,7.7-6.2,13.9-13.9,13.9s-13.9-6.2-13.9-13.9S115.4,43,123.1,43S137.1,49.2,137.1,56.9 M75.8,56.9
		c0,7.7-6.2,13.9-13.9,13.9s-13.9-6.2-13.9-13.9S54.1,43,61.8,43S75.8,49.2,75.8,56.9 M159.4,76.8L159.4,76.8
		c0-30.8-25-55.7-55.7-55.7H81.3c-30.8,0-55.7,25-55.7,55.7v100.3l55.7-44.6h22.3C134.4,132.5,159.4,107.6,159.4,76.8"/>
	<path class="st2" d="M137.1,97c0,10.8-1.9,13.3-4.2,13.3c-2.3,0-4.2-2.5-4.2-13.3s4.2-25.8,4.2-25.8S137.1,86.2,137.1,97
		 M137.1,56.9c0,7.7-6.2,13.9-13.9,13.9s-13.9-6.2-13.9-13.9S115.4,43,123.1,43S137.1,49.2,137.1,56.9 M75.8,56.9
		c0,7.7-6.2,13.9-13.9,13.9s-13.9-6.2-13.9-13.9S54.1,43,61.8,43S75.8,49.2,75.8,56.9 M159.4,76.8L159.4,76.8
		c0-30.8-25-55.7-55.7-55.7H81.3c-30.8,0-55.7,25-55.7,55.7v100.3l55.7-44.6h22.3C134.4,132.5,159.4,107.6,159.4,76.8"/>
	<path class="st1" d="M123.1,65.3c4.6,0,8.4-3.7,8.4-8.4s-3.7-8.4-8.4-8.4c-4.6,0-8.4,3.7-8.4,8.4v0
		C114.8,61.5,118.5,65.3,123.1,65.3"/>
	<path class="st2" d="M123.1,65.3c4.6,0,8.4-3.7,8.4-8.4s-3.7-8.4-8.4-8.4c-4.6,0-8.4,3.7-8.4,8.4v0
		C114.8,61.5,118.5,65.3,123.1,65.3"/>
</g>
</svg>
