<svg id="레이어_1" data-name="레이어 1" xmlns="http://www.w3.org/2000/svg" viewBox="0 0 180.77 192"><defs><style>.cls-1{fill:#fff;}.cls-2{fill:#ff5a59;stroke:#fff;stroke-miterlimit:10;stroke-width:2px;}</style></defs><ellipse class="cls-1" cx="93.66" cy="76.54" rx="59.35" ry="51.59"/><path id="패스_1197" data-name="패스 1197" class="cls-2" d="M61.2,65.32A8.36,8.36,0,1,0,52.84,57h0a8.37,8.37,0,0,0,8.36,8.37"/><path id="패스_1198" data-name="패스 1198" class="cls-2" d="M136.46,57A13.94,13.94,0,1,1,122.52,43,13.94,13.94,0,0,1,136.46,57h0m-22.3,27.15c0,4-10,26.18-22.3,26.18s-22.3-22.16-22.3-26.18,10-7.27,22.3-7.27,22.3,3.26,22.3,7.27M75.14,57A13.94,13.94,0,1,1,61.2,43,13.94,13.94,0,0,1,75.14,57h0m83.62,19.88h0A55.75,55.75,0,0,0,103,21.1H80.71A55.75,55.75,0,0,0,25,76.84V177.19l55.74-44.6H103a55.75,55.75,0,0,0,55.75-55.75"/><path id="패스_1199" data-name="패스 1199" class="cls-2" d="M122.52,65.32A8.36,8.36,0,1,0,114.16,57h0a8.37,8.37,0,0,0,8.36,8.37"/></svg>