<?xml version="1.0" encoding="utf-8"?>
<!-- Generator: Adobe Illustrator 22.0.1, SVG Export Plug-In . SVG Version: 6.00 Build 0)  -->
<svg version="1.1" id="Layer_1" xmlns="http://www.w3.org/2000/svg" xmlns:xlink="http://www.w3.org/1999/xlink" x="0px" y="0px"
	 viewBox="0 0 180.8 192" style="enable-background:new 0 0 180.8 192;" xml:space="preserve">
<style type="text/css">
	.st0{clip-path:url(#SVGID_2_);fill:#FFFFFF;}
	.st1{clip-path:url(#SVGID_2_);fill:#FFB4FF;}
	.st2{clip-path:url(#SVGID_2_);fill:#FFB4FF;stroke:#FFFFFF;stroke-width:2;stroke-miterlimit:10;}
</style>
<g>
	<defs>
		<rect id="SVGID_1_" width="180.8" height="192"/>
	</defs>
	<clipPath id="SVGID_2_">
		<use xlink:href="#SVGID_1_"  style="overflow:visible;"/>
	</clipPath>
	<ellipse class="st0" cx="92.8" cy="76.5" rx="61.8" ry="53.5"/>
	<path class="st1" d="M62.1,64.3c4.6,0,8.4-3.7,8.4-8.4c0-4.6-3.7-8.4-8.4-8.4s-8.4,3.7-8.4,8.4C53.7,60.5,57.5,64.3,62.1,64.3"/>
	<path class="st2" d="M153.1,83.5l-11.8,11.8l-3.9-3.9l11.8-11.8L153.1,83.5z M139.2,83.5l-11.8,11.8l-3.9-3.9l11.8-11.8L139.2,83.5
		z M137.4,55.9c0,7.7-6.2,13.9-13.9,13.9c-7.7,0-13.9-6.2-13.9-13.9c0-7.7,6.2-13.9,13.9-13.9C131.1,42,137.4,48.2,137.4,55.9
		 M109.5,91.4l11.8-11.8l3.9,3.9l-11.8,11.8L109.5,91.4z M76,55.9c0,7.7-6.2,13.9-13.9,13.9c-7.7,0-13.9-6.2-13.9-13.9
		c0-7.7,6.2-13.9,13.9-13.9C69.8,42,76,48.2,76,55.9 M44.3,79.5l3.9,3.9L36.4,95.3l-3.9-3.9L44.3,79.5z M46.4,91.4l11.8-11.8
		l3.9,3.9L50.3,95.3L46.4,91.4z M60.3,91.4l11.8-11.8l3.9,3.9L64.2,95.3L60.3,91.4z M159.7,75.8L159.7,75.8
		c0-30.8-25-55.7-55.7-55.7H81.6c-30.8,0-55.7,25-55.7,55.7v0v100.3l55.7-44.6h22.3C134.7,131.6,159.7,106.6,159.7,75.8"/>
	<path class="st1" d="M123.4,64.3c4.6,0,8.4-3.7,8.4-8.4c0-4.6-3.7-8.4-8.4-8.4c-4.6,0-8.4,3.7-8.4,8.4
		C115.1,60.5,118.8,64.3,123.4,64.3"/>
</g>
</svg>
