<svg id="레이어_1" data-name="레이어 1" xmlns="http://www.w3.org/2000/svg" viewBox="0 0 180.77 192"><defs><style>.cls-1{fill:#28e575;stroke:#fff;stroke-miterlimit:10;stroke-width:2px;}</style></defs><g id="그룹_979" data-name="그룹 979"><path id="패스_1188" data-name="패스 1188" class="cls-1" d="M61.82,65.25a8.36,8.36,0,1,0-8.36-8.36h0a8.36,8.36,0,0,0,8.36,8.37"/><path id="패스_1189" data-name="패스 1189" class="cls-1" d="M137.08,97c0,10.78-1.88,13.27-4.18,13.27s-4.19-2.49-4.19-13.27S132.9,71.2,132.9,71.2s4.18,15,4.18,25.75m0-40.06A13.94,13.94,0,1,1,123.14,43a13.94,13.94,0,0,1,13.94,13.94h0m-61.33,0A13.94,13.94,0,1,1,61.82,43,13.94,13.94,0,0,1,75.75,56.89h0m83.63,19.88h0A55.75,55.75,0,0,0,103.63,21H81.33A55.76,55.76,0,0,0,25.58,76.77V177.12l55.75-44.6h22.3a55.75,55.75,0,0,0,55.75-55.75h0"/><path id="패스_1190" data-name="패스 1190" class="cls-1" d="M123.14,65.25a8.36,8.36,0,1,0-8.36-8.36h0a8.36,8.36,0,0,0,8.36,8.37"/></g></svg>