<svg id="레이어_1" data-name="레이어 1" xmlns="http://www.w3.org/2000/svg" viewBox="0 0 180.77 192"><defs><style>.cls-1{fill:#c8c8c8;}</style></defs><g id="그룹_985" data-name="그룹 985"><path id="패스_1206" data-name="패스 1206" class="cls-1" d="M60.36,64.25A8.36,8.36,0,1,0,52,55.89h0a8.36,8.36,0,0,0,8.36,8.36h0"/><path id="패스_1207" data-name="패스 1207" class="cls-1" d="M135.62,55.89A13.94,13.94,0,1,1,121.68,42a13.94,13.94,0,0,1,13.94,13.94h0m-28,36.24a2.79,2.79,0,0,1-.64,5.54c-9-1-13.63-6.17-16-10.68-2.32,4.51-6.92,9.71-16,10.68a2.79,2.79,0,0,1-.64-5.54c5.46-.59,9.4-3.22,11.71-7.85A20.77,20.77,0,0,0,88,78.59a3.1,3.1,0,0,1,6.12,0A20.34,20.34,0,0,0,96,84.43c2.33,4.53,6.24,7.12,11.64,7.7M74.3,55.89A13.94,13.94,0,1,1,60.36,42,13.94,13.94,0,0,1,74.3,55.89h0m83.62,19.88h0A55.75,55.75,0,0,0,102.17,20H79.87A55.75,55.75,0,0,0,24.12,75.77V176.12l55.75-44.6h22.3a55.75,55.75,0,0,0,55.75-55.75"/><path id="패스_1208" data-name="패스 1208" class="cls-1" d="M121.68,64.25a8.36,8.36,0,1,0-8.36-8.36h0a8.36,8.36,0,0,0,8.36,8.36h0"/></g></svg>