<svg id="레이어_1" data-name="레이어 1" xmlns="http://www.w3.org/2000/svg" viewBox="0 0 180.77 192"><defs><style>.cls-1{fill:#fff;}.cls-2{fill:#7f00ff;stroke:#fff;stroke-miterlimit:10;stroke-width:2px;}</style></defs><ellipse class="cls-1" cx="92.42" cy="76.27" rx="59.35" ry="51.59"/><g id="그룹_978" data-name="그룹 978"><path id="패스_1185" data-name="패스 1185" class="cls-2" d="M61.53,65.25a8.36,8.36,0,1,0-8.36-8.36h0a8.36,8.36,0,0,0,8.36,8.37"/><path id="패스_1186" data-name="패스 1186" class="cls-2" d="M122.85,65.25a8.36,8.36,0,1,0-8.36-8.36h0a8.37,8.37,0,0,0,8.36,8.37"/><path id="패스_1187" data-name="패스 1187" class="cls-2" d="M142.37,87.92H42V82.35H142.37ZM61.53,43A13.94,13.94,0,1,1,47.6,56.89h0A13.94,13.94,0,0,1,61.53,43h0m61.33,0a13.94,13.94,0,1,1-13.94,13.94A13.94,13.94,0,0,1,122.86,43h0M103.34,21H81A55.75,55.75,0,0,0,25.3,76.77V177.12L81,132.52h22.3a55.75,55.75,0,0,0,0-111.5"/></g></svg>