<svg id="레이어_1" data-name="레이어 1" xmlns="http://www.w3.org/2000/svg" viewBox="0 0 180.77 192"><defs><style>.cls-1{fill:#0073ff;}</style></defs><g id="그룹_986" data-name="그룹 986"><path id="패스_1209" data-name="패스 1209" class="cls-1" d="M62.05,65.32A8.37,8.37,0,1,0,53.69,57h0a8.36,8.36,0,0,0,8.36,8.36h0"/><path id="패스_1210" data-name="패스 1210" class="cls-1" d="M148.46,88l-9.29,18.58L129.88,88l-9.29,18.58L111.3,88,102,106.57,92.72,88l-9.29,18.58L74.13,88l-9.29,18.58L55.55,88l-9.29,18.58L37,88ZM137.31,57A13.94,13.94,0,1,1,123.37,43,13.94,13.94,0,0,1,137.31,57h0M76,57A13.94,13.94,0,1,1,62.05,43,13.94,13.94,0,0,1,76,57h0m83.62,19.88h0a55.75,55.75,0,0,0-55.74-55.75H81.56A55.74,55.74,0,0,0,25.82,76.84V177.18l55.74-44.6h22.3a55.74,55.74,0,0,0,55.75-55.74"/><path id="패스_1211" data-name="패스 1211" class="cls-1" d="M123.37,65.32A8.37,8.37,0,1,0,115,57h0a8.36,8.36,0,0,0,8.36,8.36h0"/></g></svg>