<svg id="레이어_1" data-name="레이어 1" xmlns="http://www.w3.org/2000/svg" viewBox="0 0 180.77 192"><defs><style>.cls-1{fill:#ff7f0f;stroke:#fff;stroke-miterlimit:10;}</style></defs><g id="그룹_983" data-name="그룹 983"><path id="패스_1200" data-name="패스 1200" class="cls-1" d="M62.62,63.46a8.36,8.36,0,1,0-8.36-8.36h0a8.36,8.36,0,0,0,8.36,8.36"/><path id="패스_1201" data-name="패스 1201" class="cls-1" d="M137.88,55.1a13.94,13.94,0,1,1-13.94-13.94A13.94,13.94,0,0,1,137.88,55.1h0M96.29,91.71l10.92,10.92-3.94,3.94L92.35,95.65,81.42,106.57l-3.94-3.94L88.41,91.71,77.48,80.78l3.94-3.94L92.35,87.77l10.92-10.93,3.94,3.94ZM76.55,55.1A13.94,13.94,0,1,1,62.62,41.16,13.94,13.94,0,0,1,76.55,55.1h0M160.17,75h0a55.74,55.74,0,0,0-55.74-55.74H82.13A55.75,55.75,0,0,0,26.38,75V175.33l55.75-44.6h22.3A55.75,55.75,0,0,0,160.18,75h0"/><path id="패스_1202" data-name="패스 1202" class="cls-1" d="M123.94,63.46a8.36,8.36,0,1,0-8.36-8.36h0a8.36,8.36,0,0,0,8.36,8.36"/></g></svg>