<svg id="레이어_1" data-name="레이어 1" xmlns="http://www.w3.org/2000/svg" viewBox="0 0 180.77 192"><defs><style>.cls-1{fill:#fff;}.cls-2,.cls-3{fill:#0073ff;stroke:#fff;stroke-miterlimit:10;}.cls-3{stroke-width:2px;}</style></defs><ellipse class="cls-1" cx="91.1" cy="76.97" rx="59.35" ry="51.59"/><path id="패스_1182" data-name="패스 1182" class="cls-2" d="M61.12,67.25a8.36,8.36,0,1,0-8.36-8.36h0a8.36,8.36,0,0,0,8.36,8.37"/><path id="패스_1183" data-name="패스 1183" class="cls-3" d="M122.44,72.82a13.94,13.94,0,1,1,13.94-13.93,13.94,13.94,0,0,1-13.94,13.93h0M91.78,93.64a5.58,5.58,0,1,1,5.58-5.58,5.57,5.57,0,0,1-5.58,5.58h0M61.12,72.82A13.94,13.94,0,1,1,75.06,58.89,13.94,13.94,0,0,1,61.12,72.82h0M102.93,23H80.63A55.76,55.76,0,0,0,24.88,78.77V179.12l55.75-44.6h22.3a55.75,55.75,0,0,0,0-111.5"/><path id="패스_1184" data-name="패스 1184" class="cls-2" d="M122.44,67.25a8.36,8.36,0,1,0-8.36-8.36h0a8.36,8.36,0,0,0,8.36,8.37"/></svg>