<svg id="레이어_1" data-name="레이어 1" xmlns="http://www.w3.org/2000/svg" viewBox="0 0 180.77 192"><defs><style>.cls-1{fill:#ffb4ff;}</style></defs><g id="그룹_980" data-name="그룹 980"><path id="패스_1191" data-name="패스 1191" class="cls-1" d="M62.1,64.29a8.37,8.37,0,1,0-8.36-8.36,8.37,8.37,0,0,0,8.36,8.36h0"/><path id="패스_1192" data-name="패스 1192" class="cls-1" d="M153.07,83.47,141.25,95.29l-3.94-3.94,11.82-11.82Zm-13.91,0L127.34,95.29l-3.94-3.94,11.82-11.82Zm-1.8-27.54A13.94,13.94,0,1,1,123.43,42a13.93,13.93,0,0,1,13.93,13.94h0M109.49,91.35l11.83-11.82,3.94,3.94L113.43,95.29ZM76,55.93A13.94,13.94,0,1,1,62.11,42,13.93,13.93,0,0,1,76,55.93h0M44.28,79.53l3.94,3.94L36.4,95.29l-3.94-3.94Zm2.09,11.82L58.19,79.53l3.94,3.94L50.31,95.29Zm13.9,0L72.1,79.53,76,83.47,64.22,95.29Zm99.39-15.54h0a55.75,55.75,0,0,0-55.74-55.75H81.62A55.75,55.75,0,0,0,25.87,75.81h0V176.15l55.74-44.6h22.3a55.75,55.75,0,0,0,55.75-55.74"/><path id="패스_1193" data-name="패스 1193" class="cls-1" d="M123.42,64.29a8.37,8.37,0,1,0-8.36-8.36,8.37,8.37,0,0,0,8.36,8.36h0"/></g></svg>