<svg id="레이어_1" data-name="레이어 1" xmlns="http://www.w3.org/2000/svg" viewBox="0 0 180.77 192"><defs><style>.cls-1{fill:#fff;}.cls-2{fill:#1a247d;stroke:#fff;stroke-miterlimit:10;stroke-width:2px;}</style></defs><ellipse class="cls-1" cx="92.47" cy="76.1" rx="53.74" ry="51.08"/><path id="패스_1203" data-name="패스 1203" class="cls-2" d="M60.79,65.25a8.36,8.36,0,1,0-8.37-8.36h0a8.36,8.36,0,0,0,8.37,8.36"/><path id="패스_1204" data-name="패스 1204" class="cls-2" d="M136,56.89A13.94,13.94,0,1,1,122.11,43,13.93,13.93,0,0,1,136,56.89h0m-14.86,23.6c37.16,0-9.29,39-9.29,39H71s-46.46-39-9.29-39ZM74.72,56.89A13.94,13.94,0,1,1,60.79,43,13.93,13.93,0,0,1,74.72,56.89h0m83.62,19.88h0A55.75,55.75,0,0,0,102.6,21H80.3A55.75,55.75,0,0,0,24.55,76.77V177.12l55.75-44.6h22.3a55.74,55.74,0,0,0,55.74-55.75h0"/><path id="패스_1205" data-name="패스 1205" class="cls-2" d="M122.11,65.25a8.36,8.36,0,1,0-8.36-8.36h0a8.36,8.36,0,0,0,8.36,8.36"/></svg>