<svg id="레이어_1" data-name="레이어 1" xmlns="http://www.w3.org/2000/svg" viewBox="0 0 180.77 192"><defs><style>.cls-1{fill:#6dd2ff;}</style></defs><g id="그룹_981" data-name="그룹 981"><path id="패스_1194" data-name="패스 1194" class="cls-1" d="M60.94,61.78a8.36,8.36,0,1,0-8.36-8.36h0a8.37,8.37,0,0,0,8.36,8.37h0"/><path id="패스_1195" data-name="패스 1195" class="cls-1" d="M136.2,53.42a13.94,13.94,0,1,1-13.94-13.94A13.94,13.94,0,0,1,136.2,53.42h0m-30.66,44H75.81l14.86-22.3Zm-30.66-44A13.94,13.94,0,1,1,60.94,39.48,13.94,13.94,0,0,1,74.88,53.42h0M158.5,73.3h0a55.74,55.74,0,0,0-55.75-55.74H80.45A55.74,55.74,0,0,0,24.71,73.3V173.65l55.74-44.6h22.3A55.75,55.75,0,0,0,158.5,73.3"/><path id="패스_1196" data-name="패스 1196" class="cls-1" d="M122.26,61.78a8.36,8.36,0,1,0-8.36-8.36h0a8.37,8.37,0,0,0,8.36,8.37h0"/></g></svg>