<?xml version="1.0" encoding="utf-8"?>
<!-- Generator: Adobe Illustrator 22.0.1, SVG Export Plug-In . SVG Version: 6.00 Build 0)  -->
<svg version="1.1" xmlns="http://www.w3.org/2000/svg" xmlns:xlink="http://www.w3.org/1999/xlink" x="0px" y="0px"
	 viewBox="0 0 8182.6 4732" style="enable-background:new 0 0 8182.6 4732;" xml:space="preserve">
<style type="text/css">
	.st0{clip-path:url(#SVGID_2_);fill:#0073FF;}
	.st1{clip-path:url(#SVGID_4_);fill:#0073FF;}
	.st2{fill:#F99506;stroke:#FFFFFF;stroke-width:5;stroke-miterlimit:10;}
	.st3{fill:#F9DAD4;stroke:#F9F7F7;stroke-width:10;stroke-miterlimit:10;}
	.st4{fill:#F9DAD4;stroke:#FCFAFA;stroke-width:10;stroke-miterlimit:10;}
	.st5{fill:#F7D8D2;stroke:#FCFCFC;stroke-width:10;stroke-miterlimit:10;}
	.st6{fill:none;stroke:#000000;stroke-miterlimit:10;}
	.st7{fill:#F998BF;stroke:#FFFFFF;stroke-width:5;stroke-miterlimit:10;}
	.st8{fill:none;stroke:#231815;stroke-width:10;stroke-miterlimit:10;}
	.st9{fill:#EF2929;}
	.st10{fill:#753939;}
	.st11{fill:none;stroke:#020202;stroke-width:5;stroke-miterlimit:10;}
</style>
<g id="Layer_1">
	<g>
		<defs>
			<rect id="SVGID_1_" x="-2752.1" y="-1862.7" width="13688.8" height="8493.3"/>
		</defs>
		<clipPath id="SVGID_2_">
			<use xlink:href="#SVGID_1_"  style="overflow:visible;"/>
		</clipPath>
		<path class="st0" d="M2322.8,1162.5h105.7c306.8,0,504.4-230.1,504.4-498.6c0-270.4-197.5-500.5-504.4-500.5h-644.4v1430.1
			L2322.8,1162.5z M2183,474h166.8c107.4,0,176.4,86.3,176.4,189.9c0,103.6-71,189.9-178.4,189.9H2183V474z"/>
		<polygon class="st0" points="3876.4,1145.8 3459,1145.8 3459,163.3 3063.6,163.3 3063.6,1494.1 3876.4,1494.1 		"/>
		<path class="st0" d="M4454.5,1340.1h446.8l45.6,154H5388L4915.8,163.3h-474l-460.7,1330.8h427.8L4454.5,1340.1z M4678.8,562.6
			l140.7,490.5h-281.4L4678.8,562.6z"/>
		<polygon class="st0" points="5493.1,1494.1 5937.9,1494.1 6597.6,163.3 6156.6,163.3 5955,636.7 5740.2,163.3 5276.3,163.3 
			5723.1,1014.6 		"/>
		<polygon class="st0" points="960.6,1699.7 759,2173.1 544.2,1699.7 80.3,1699.7 527.1,2551 297,3030.5 741.9,3030.5 
			1401.6,1699.7 		"/>
		<path class="st0" d="M2765.2,2365.1c0-366.9-264.3-701.5-722.4-701.5c-456.3,0-720.5,334.6-720.5,701.5
			c0,366.9,264.3,701.5,720.5,701.5C2500.9,3066.7,2765.2,2732.1,2765.2,2365.1 M1721.5,2365.1c0-176.8,119.8-340.3,321.3-340.3
			c203.4,0,321.3,163.5,321.3,340.3c0,176.8-117.9,340.3-321.3,340.3C1841.2,2705.4,1721.5,2541.9,1721.5,2365.1"/>
		<path class="st0" d="M3631.3,2564.7c0,91.3-66.5,167.3-161.6,167.3c-91.3,0-159.7-76-159.7-167.3v-865h-395.5v868.8
			c0,289,211,498.1,555.2,498.1c347.9,0,557-209.1,557-498.1v-868.8h-395.4V2564.7z"/>
		<path class="st0" d="M5365.2,2195.9c0-268.1-195.8-496.2-500-496.2h-638.8v1330.8h395.4v-340.3h74.1l226.2,340.3H5388l-266.2-405
			C5273.9,2540,5365.2,2376.5,5365.2,2195.9 M4785.3,2384.1h-163.5v-376.4h165.4c106.5,0,174.9,85.6,174.9,188.2
			C4962.1,2298.6,4891.8,2384.1,4785.3,2384.1"/>
		<polygon class="st0" points="7663.2,3237.8 7461.7,3711.2 7246.8,3237.8 6782.9,3237.8 7229.7,4089.1 6999.7,4568.6 
			7444.5,4568.6 8104.3,3237.8 		"/>
		<polygon class="st0" points="2973.2,3586.1 3286.6,3586.1 3286.6,4568.6 3682,4568.6 3682,3586.1 3995.5,3586.1 3995.5,3237.8 
			2973.2,3237.8 		"/>
		<path class="st0" d="M2392.5,3726.4c-121.7-43.7-182.5-83.6-182.5-152.1c0-72.2,57-104.6,121.7-104.6c89.4,0,131.2,57,131.2,165.4
			h395.5c0-209.1-129.3-433.5-519-433.5c-266.2,0-526.6,112.2-526.6,385.9c0,271.9,218.6,351.7,463.9,446.8
			c140.7,55.1,201.5,85.6,201.5,159.7c0,70.3-51.3,114.1-131.2,114.1c-100.8,0-167.3-68.4-167.3-188.2h-395.5
			c0,311.8,214.8,484.8,547.5,484.8c336.5,0,543.7-159.7,543.7-435.4C2875.4,3893.7,2622.5,3808.1,2392.5,3726.4"/>
		<path class="st0" d="M4795.2,3201.7c-456.3,0-720.5,334.6-720.5,701.5c0,366.9,264.3,701.5,720.5,701.5
			c458.2,0,722.4-334.6,722.4-701.5C5517.7,3536.3,5253.4,3201.7,4795.2,3201.7 M4795.2,4243.5c-201.5,0-321.3-163.5-321.3-340.3
			c0-176.8,119.8-340.3,321.3-340.3c203.4,0,321.3,163.5,321.3,340.3C5116.5,4080,4998.6,4243.5,4795.2,4243.5"/>
		<path class="st0" d="M6800.3,3734c0-268.1-195.8-496.2-500-496.2h-638.8v1330.8H6057v-340.3h74.1l226.2,340.3h465.8L6557,4163.7
			C6709.1,4078.1,6800.3,3914.6,6800.3,3734 M6220.5,3922.2H6057v-376.4h165.4c106.5,0,174.9,85.6,174.9,188.2
			C6397.3,3836.7,6326.9,3922.2,6220.5,3922.2"/>
	</g>
</g>
<g id="Layer_2">
</g>
</svg>
