<svg xmlns="http://www.w3.org/2000/svg" viewBox="0 0 2866.93 798.39"><defs><style>.cls-1{isolation:isolate;}.cls-2{fill:none;}.cls-161,.cls-162,.cls-163,.cls-2{stroke:#0073ff;stroke-miterlimit:10;}.cls-3{fill:#9ac9f7;}.cls-4{fill:#99c9f7;}.cls-5{fill:#98c8f7;}.cls-6{fill:#97c8f7;}.cls-7{fill:#96c8f7;}.cls-8{fill:#95c8f8;}.cls-9{fill:#94c7f8;}.cls-10{fill:#93c7f8;}.cls-11{fill:#92c7f8;}.cls-12{fill:#91c6f8;}.cls-13{fill:#90c6f8;}.cls-14{fill:#8fc6f8;}.cls-15{fill:#8ec6f8;}.cls-16{fill:#8dc5f9;}.cls-17{fill:#8cc5f9;}.cls-18{fill:#8bc5f9;}.cls-19{fill:#8ac5f9;}.cls-20{fill:#89c4f9;}.cls-21{fill:#88c4f9;}.cls-22{fill:#87c4f9;}.cls-23{fill:#86c3f9;}.cls-24{fill:#85c3f9;}.cls-25{fill:#85c3fa;}.cls-26{fill:#84c3fa;}.cls-27{fill:#83c2fa;}.cls-28{fill:#82c2fa;}.cls-29{fill:#81c2fa;}.cls-30{fill:#80c1fa;}.cls-31{fill:#7fc1fa;}.cls-32{fill:#7ec1fa;}.cls-33{fill:#7dc1fa;}.cls-34{fill:#7cc0fb;}.cls-35{fill:#7bc0fb;}.cls-36{fill:#7ac0fb;}.cls-37{fill:#79c0fb;}.cls-38{fill:#78bffb;}.cls-39{fill:#77bffb;}.cls-40{fill:#76bffb;}.cls-41{fill:#75befb;}.cls-42{fill:#74befc;}.cls-43{fill:#73befc;}.cls-44{fill:#72befc;}.cls-45{fill:#71bdfc;}.cls-46{fill:#70bdfc;}.cls-47{fill:#6fbcfc;}.cls-48{fill:#6ebcfc;}.cls-49{fill:#6dbbfc;}.cls-50{fill:#6cbafc;}.cls-51{fill:#6bbafc;}.cls-52{fill:#6ab9fc;}.cls-53{fill:#69b9fc;}.cls-54{fill:#68b8fc;}.cls-55{fill:#67b7fc;}.cls-56{fill:#66b7fb;}.cls-57{fill:#65b6fb;}.cls-58{fill:#64b5fb;}.cls-59{fill:#63b5fb;}.cls-60{fill:#62b4fb;}.cls-61{fill:#61b3fb;}.cls-62{fill:#60b3fb;}.cls-63{fill:#5fb2fb;}.cls-64{fill:#5eb2fb;}.cls-65{fill:#5db1fb;}.cls-66{fill:#5cb0fb;}.cls-67{fill:#5bb0fb;}.cls-68{fill:#5aaffb;}.cls-69{fill:#59aefb;}.cls-70{fill:#58aefb;}.cls-71{fill:#57adfb;}.cls-72{fill:#56adfb;}.cls-73{fill:#55acfb;}.cls-74{fill:#54abfb;}.cls-75{fill:#53abfb;}.cls-76{fill:#52aafb;}.cls-77{fill:#52a9fa;}.cls-78{fill:#51a9fa;}.cls-79{fill:#50a8fa;}.cls-80{fill:#4fa7fa;}.cls-81{fill:#4ea7fa;}.cls-82{fill:#4da6fa;}.cls-83{fill:#4ca6fa;}.cls-84{fill:#4ba5fa;}.cls-85{fill:#4aa4fa;}.cls-86{fill:#49a4fa;}.cls-87{fill:#48a3fa;}.cls-88{fill:#47a2fa;}.cls-89{fill:#46a2fa;}.cls-90{fill:#45a1fa;}.cls-91{fill:#44a1fa;}.cls-92{fill:#43a0fa;}.cls-93{fill:#429ffa;}.cls-94{fill:#419ffa;}.cls-95{fill:#409efa;}.cls-96{fill:#3f9dfa;}.cls-97{fill:#3e9df9;}.cls-98{fill:#3d9cf9;}.cls-99{fill:#3c9bf9;}.cls-100{fill:#3b9bf9;}.cls-101{fill:#3a9af9;}.cls-102{fill:#399af9;}.cls-103{fill:#3899f9;}.cls-104{fill:#3798f9;}.cls-105{fill:#3698f9;}.cls-106{fill:#3597f9;}.cls-107{fill:#3496f9;}.cls-108{fill:#3396f9;}.cls-109{fill:#3295f9;}.cls-110{fill:#3194f9;}.cls-111{fill:#3094fa;}.cls-112{fill:#2f93fa;}.cls-113{fill:#2e92fa;}.cls-114{fill:#2d92fa;}.cls-115{fill:#2c91fa;}.cls-116{fill:#2b90fa;}.cls-117{fill:#2a90fa;}.cls-118{fill:#298ffa;}.cls-119{fill:#288efa;}.cls-120{fill:#278efb;}.cls-121{fill:#268dfb;}.cls-122{fill:#258cfb;}.cls-123{fill:#248cfb;}.cls-124{fill:#238bfb;}.cls-125{fill:#228afb;}.cls-126{fill:#218afb;}.cls-127{fill:#2089fb;}.cls-128{fill:#1f88fb;}.cls-129{fill:#1e88fc;}.cls-130{fill:#1d87fc;}.cls-131{fill:#1c86fc;}.cls-132{fill:#1b86fc;}.cls-133{fill:#1b85fc;}.cls-134{fill:#1a84fc;}.cls-135{fill:#1984fc;}.cls-136{fill:#1883fc;}.cls-137{fill:#1782fc;}.cls-138{fill:#1682fd;}.cls-139{fill:#1581fd;}.cls-140{fill:#1480fd;}.cls-141{fill:#1380fd;}.cls-142{fill:#127ffd;}.cls-143{fill:#117efd;}.cls-144{fill:#107efd;}.cls-145{fill:#0f7dfd;}.cls-146{fill:#0e7cfd;}.cls-147{fill:#0d7cfe;}.cls-148{fill:#0c7bfe;}.cls-149{fill:#0b7afe;}.cls-150{fill:#0a7afe;}.cls-151{fill:#0979fe;}.cls-152{fill:#0878fe;}.cls-153{fill:#0778fe;}.cls-154{fill:#0677fe;}.cls-155{fill:#0576fe;}.cls-156{fill:#0476ff;}.cls-157{fill:#0375ff;}.cls-158{fill:#0274ff;}.cls-159{fill:#0174ff;}.cls-160{fill:#0073ff;}.cls-161{fill:#fff;}.cls-162{fill:#fdfeff;}.cls-163{fill:#fcfcfc;}.cls-164{fill:#7c01fc;}.cls-165{fill:#fc9500;}.cls-166{fill:#6363fc;}</style></defs><g id="Layer_7" data-name="Layer 7"><g class="cls-1"><path class="cls-2" d="M1015.29,55c23.54.31,37.7,14.56,37.41,37.12-.27,21.73-15.23,36.58-38.35,36.29l-7.8-.1-.31,24.09-27.86-.35,1.25-97.5Zm-3.89,53.59c8.35.1,12.89-6,13-16.83.14-10.59-4.38-16.91-12.46-17l-4.73-.06-.44,33.85Z" transform="translate(-32.09 -2.81)"/><path class="cls-2" d="M1063.9,153.15l1.25-97.5L1093,56l-.94,73.4,23.81.31-.31,24.1Z" transform="translate(-32.09 -2.81)"/><path class="cls-2" d="M1186.61,154.73,1184,141.88l-24.52-.32-3,12.78-28.41-.36,29-97.15,31.34.41,26.6,97.85Zm-22.7-33,16.15.21-7.59-38.13Z" transform="translate(-32.09 -2.81)"/><path class="cls-2" d="M1267.53,58.25l29.67.38-41,97-30.23-.38,13.07-30.62-23.93-67,29.66.38,10.34,41.51Z" transform="translate(-32.09 -2.81)"/><path class="cls-2" d="M1305.83,156.26l1.25-97.5,27.86.36-.94,73.4,23.81.31-.31,24.09Z" transform="translate(-32.09 -2.81)"/><path class="cls-2" d="M1372.69,157.12l1.25-97.5,27.85.36-1.25,97.5Z" transform="translate(-32.09 -2.81)"/><path class="cls-2" d="M1413.61,126.72l27.16.35c-.1,8.35,3.32,12.86,9.17,12.93,4.6.06,7.56-3,7.62-7.7.07-4.88-2.54-7.7-8.5-10.56l-13-5.88c-14.12-6.45-21.11-15.59-20.93-29.66.23-17.83,13.33-28.95,34.5-28.67,21.59.27,33.43,11.29,33.17,31.21l-26.32-.34c0-7.52-2.93-11.18-7.94-11.25-4.46-.05-7.14,2.7-7.2,7.16-.06,4.87,3.11,7.28,9.48,10.57l15.65,7.44c12.59,6.29,18,15.28,17.88,28.37-.25,19.36-14,30.75-35.08,30.48C1426.55,160.88,1413.33,148.72,1413.61,126.72Z" transform="translate(-32.09 -2.81)"/><path class="cls-2" d="M1508.76,158.87l1-73.41-18-.23.31-24.09,63.79.81-.31,24.1-18-.23-1,73.4Z" transform="translate(-32.09 -2.81)"/></g><g class="cls-1"><path class="cls-2" d="M971.89,256.26l27.17.35c-.11,8.36,3.31,12.86,9.16,12.93,4.6.06,7.56-3,7.62-7.7s-2.54-7.69-8.5-10.56l-13-5.88c-14.12-6.45-21.11-15.59-20.93-29.66.23-17.83,13.33-28.94,34.5-28.67,21.59.28,33.43,11.29,33.17,31.21l-26.32-.34c0-7.52-2.92-11.18-7.94-11.24-4.46-.06-7.14,2.69-7.2,7.15-.06,4.87,3.11,7.28,9.48,10.57l15.65,7.44c12.59,6.29,18,15.28,17.88,28.37-.25,19.36-14,30.75-35.08,30.48C984.83,290.42,971.61,278.27,971.89,256.26Z" transform="translate(-32.09 -2.81)"/><path class="cls-2" d="M1067.05,288.41,1068,215l-18-.23.31-24.09,63.79.82-.31,24.09-18-.23-.95,73.41Z" transform="translate(-32.09 -2.81)"/><path class="cls-2" d="M1118.51,240.31c.43-33.15,16.82-51.61,45.24-51.24s44.33,19.24,43.9,52.39-16.82,51.6-45.23,51.24S1118.08,273.46,1118.51,240.31Zm60.17.77c.23-17.69-4.81-26.8-15.26-26.94s-15.71,8.85-15.94,26.54,4.81,26.81,15.26,26.95S1178.45,258.77,1178.68,241.08Z" transform="translate(-32.09 -2.81)"/><path class="cls-2" d="M1264,290.94l-10.14-24.23-5.71-.08-.31,24.1-27.85-.36,1.25-97.5,35.66.46c23.53.3,37.7,14.55,37.41,37.12-.16,12.67-5.31,23.06-14.17,29.35l13.81,31.52ZM1248.83,213l-.43,33.84,4.59.06c8.36.11,12.9-6,13-16.82.13-10.59-4.38-16.92-12.46-17Z" transform="translate(-32.09 -2.81)"/><path class="cls-2" d="M1307.31,291.49l1.25-97.5,54.32.7-.27,21-26.46-.34-.23,17.69,26.46.34-.26,20.34-26.46-.34-.23,17.41,26.47.34-.27,21Z" transform="translate(-32.09 -2.81)"/></g></g><g id="Layer_6" data-name="Layer 6"><g class="cls-1"><path class="cls-2" d="M828.68,621.6c13.63,0,21.94,8.15,21.94,21.22,0,12.58-8.55,21.3-21.94,21.3h-4.52v14H808V621.6Zm-1.85,31.06c4.84,0,7.42-3.55,7.42-9.84,0-6.13-2.67-9.76-7.34-9.76h-2.75v19.6Z" transform="translate(-32.09 -2.81)"/><path class="cls-2" d="M857.73,678.07V621.6h16.13v42.52h13.8v14Z" transform="translate(-32.09 -2.81)"/><path class="cls-2" d="M929,678.07l-1.61-7.42h-14.2l-1.61,7.42H895.08l16-56.47h18.15l16.14,56.47Zm-13.39-19h9.36l-4.68-22Z" transform="translate(-32.09 -2.81)"/><path class="cls-2" d="M975.27,621.6h17.18l-23,56.47H952l7.34-17.83L944.94,621.6h17.18l6.29,24Z" transform="translate(-32.09 -2.81)"/><path class="cls-2" d="M998.35,678.07V621.6h16.13v42.52h13.8v14Z" transform="translate(-32.09 -2.81)"/><path class="cls-2" d="M1037.23,678.07V621.6h16.14v56.47Z" transform="translate(-32.09 -2.81)"/><path class="cls-2" d="M1060.87,660.16h15.73c0,4.84,2,7.42,5.41,7.42a4.14,4.14,0,0,0,4.35-4.51c0-2.83-1.53-4.44-5-6.05l-7.58-3.31c-8.23-3.63-12.34-8.88-12.34-17,0-10.33,7.5-16.86,19.76-16.86,12.51,0,19.44,6.29,19.44,17.82H1085.4c-.08-4.35-1.78-6.45-4.68-6.45a3.84,3.84,0,0,0-4.12,4.2c0,2.82,1.86,4.19,5.57,6.05l9.12,4.19c7.34,3.55,10.56,8.71,10.56,16.3,0,11.21-7.9,17.91-20.08,17.91C1068.62,679.85,1060.87,672.91,1060.87,660.16Z" transform="translate(-32.09 -2.81)"/><path class="cls-2" d="M1116.38,678.07V635.56H1106v-14h37v14h-10.41v42.51Z" transform="translate(-32.09 -2.81)"/></g><g class="cls-1"><path class="cls-2" d="M805.45,746.64c0-19.2,9.35-30,25.81-30s25.82,10.81,25.82,30-9.36,30-25.82,30S805.45,765.84,805.45,746.64Zm34.85,0c0-10.25-3-15.49-9-15.49s-9,5.24-9,15.49,3,15.49,9,15.49S840.3,756.88,840.3,746.64Z" transform="translate(-32.09 -2.81)"/><path class="cls-2" d="M890.24,774.87l-6-14h-3.31v14H864.74V718.4H885.4c13.63,0,21.94,8.15,21.94,21.22,0,7.34-2.9,13.39-8,17.1l8.23,18.15Zm-9.36-45v19.6h2.66c4.84,0,7.42-3.55,7.42-9.84,0-6.13-2.66-9.76-7.34-9.76Z" transform="translate(-32.09 -2.81)"/><path class="cls-2" d="M915.49,774.87V718.4h16.14v56.47Z" transform="translate(-32.09 -2.81)"/><path class="cls-2" d="M990.12,744.05v11.14h-2.83c-.72,14-9.2,21.46-22.75,21.46-16.37,0-25.25-11.3-25.25-30.26,0-18.55,9-29.76,25.33-29.76,14.44,0,22.51,7.09,23,19.68H971.32c-.32-4.52-2.58-6.54-6.7-6.54-6,0-8.55,5.41-8.55,16.06,0,12.18,2.74,17.5,8.87,17.5,4.2,0,6.94-2.74,7.27-8.14h-7.35V744.05Z" transform="translate(-32.09 -2.81)"/><path class="cls-2" d="M997.46,774.87V718.4h16.13v56.47Z" transform="translate(-32.09 -2.81)"/><path class="cls-2" d="M1023.84,774.87V718.4h14.6l13.72,30.49V718.4h14.76v56.47h-14.6L1038.68,745v29.85Z" transform="translate(-32.09 -2.81)"/><path class="cls-2" d="M1107.91,774.87l-1.62-7.42h-14.2l-1.61,7.42H1074l16.06-56.47h18.15l16.13,56.47Zm-13.4-19h9.36l-4.68-22Z" transform="translate(-32.09 -2.81)"/><path class="cls-2" d="M1131.46,774.87V718.4h16.14v42.52h13.79v14Z" transform="translate(-32.09 -2.81)"/><path class="cls-2" d="M1167.61,757h15.73c0,4.84,2,7.42,5.41,7.42a4.14,4.14,0,0,0,4.35-4.51c0-2.83-1.53-4.44-5-6l-7.58-3.31c-8.23-3.63-12.35-8.88-12.35-17,0-10.33,7.51-16.86,19.77-16.86,12.5,0,19.44,6.29,19.44,17.82h-15.25c-.08-4.35-1.77-6.45-4.68-6.45a3.83,3.83,0,0,0-4.11,4.2c0,2.82,1.86,4.19,5.57,6l9.11,4.19c7.34,3.55,10.57,8.71,10.57,16.3,0,11.21-7.91,17.91-20.09,17.91C1175.35,776.65,1167.61,769.71,1167.61,757Z" transform="translate(-32.09 -2.81)"/></g></g><g id="Layer_3" data-name="Layer 3"><g class="cls-1"><path class="cls-2" d="M2417.76,154.94c20.88,10.8,27.15,29.87,16.79,49.89-10,19.27-30,25.84-50.49,15.23l-6.92-3.58-11.06,21.38-24.71-12.79,44.75-86.5ZM2390.3,201c7.41,3.84,14.18.45,19.17-9.19,4.86-9.39,3.66-17.06-3.51-20.77l-4.2-2.18-15.54,30Z" transform="translate(-32.09 -2.81)"/><path class="cls-2" d="M2417.37,264.39l44.75-86.5,24.71,12.78-33.69,65.13,21.13,10.93-11.06,21.38Z" transform="translate(-32.09 -2.81)"/><path class="cls-2" d="M2526.36,320.77l3.41-12.64L2508,296.87,2499.67,307l-25.21-13,69.34-73.78,27.8,14.39-20,99.28Zm-5.49-39.65,14.33,7.42,10.29-37.45Z" transform="translate(-32.09 -2.81)"/><path class="cls-2" d="M2641.91,270.9l26.33,13.62-80,68.28-26.82-13.87,25.38-21.49,8.62-70.57,26.32,13.61-9.35,41.69Z" transform="translate(-32.09 -2.81)"/><path class="cls-2" d="M2632.38,375.62l44.75-86.5,24.72,12.79L2668.16,367,2689.29,378l-11.06,21.38Z" transform="translate(-32.09 -2.81)"/><path class="cls-2" d="M2691.82,406.37l44.75-86.5,24.72,12.79-44.75,86.5Z" transform="translate(-32.09 -2.81)"/><path class="cls-2" d="M2742.1,397.61l24.09,12.46c-3.83,7.42-2.79,13,2.4,15.66,4.08,2.1,8.08.73,10.25-3.47s1.17-8-2.86-13.23L2767,398c-9.73-12.08-11.87-23.37-5.42-35.86,8.19-15.81,24.86-19.88,43.64-10.16,19.15,9.91,24.8,25.05,15.65,42.72l-23.35-12.08c3.33-6.74,2.39-11.3-2.06-13.6-4-2-7.57-.79-9.62,3.17-2.24,4.32-.48,7.89,3.73,13.68l10.64,13.65c8.43,11.25,9.28,21.72,3.27,33.33-8.88,17.18-26.3,21.17-45,11.52C2738.36,433.9,2732,417.13,2742.1,397.61Z" transform="translate(-32.09 -2.81)"/><path class="cls-2" d="M2812.8,469l33.69-65.12-15.94-8.25,11.06-21.38,56.6,29.28-11.07,21.38-15.94-8.25-33.69,65.13Z" transform="translate(-32.09 -2.81)"/></g><g class="cls-1"><path class="cls-2" d="M2274.65,343.74l24.1,12.47c-3.83,7.41-2.79,13,2.4,15.65,4.08,2.11,8.08.73,10.25-3.47s1.17-8-2.87-13.23l-9-11.08c-9.73-12.08-11.88-23.37-5.42-35.85,8.18-15.82,24.85-19.88,43.64-10.17,19.15,9.91,24.79,25.05,15.65,42.72l-23.35-12.08c3.32-6.74,2.39-11.29-2.06-13.6-3.95-2-7.58-.78-9.62,3.17-2.24,4.33-.49,7.9,3.73,13.68l10.64,13.65c8.43,11.25,9.28,21.72,3.27,33.34-8.88,17.17-26.3,21.16-45,11.51C2270.92,380,2264.55,363.26,2274.65,343.74Z" transform="translate(-32.09 -2.81)"/><path class="cls-2" d="M2345.36,415.09,2379.05,350l-15.94-8.25,11.06-21.37,56.59,29.28L2419.7,371l-15.94-8.24-33.69,65.12Z" transform="translate(-32.09 -2.81)"/><path class="cls-2" d="M2485.87,378.14l26.32,13.61-80,68.28-26.82-13.87,25.37-21.49,8.63-70.57,26.32,13.62-9.35,41.68Z" transform="translate(-32.09 -2.81)"/><path class="cls-2" d="M2476.34,482.86l44.75-86.5,24.72,12.78-33.69,65.12,21.13,10.94-11.06,21.38Z" transform="translate(-32.09 -2.81)"/><path class="cls-2" d="M2535.78,513.61l44.75-86.5L2628.72,452l-9.65,18.66-23.48-12.15-8.12,15.7L2611,486.39l-9.33,18-23.48-12.14-8,15.44,23.48,12.15L2584,538.54Z" transform="translate(-32.09 -2.81)"/></g></g><g id="Layer_1" data-name="Layer 1"><path class="cls-3" d="M789.65,6.76H667.52C498.9,6.76,362.26,133.6,362.26,290.07V800L667.52,573.39H789.65c168.63,0,305.26-126.84,305.26-283.32h0c0-156.6-136.63-283.31-305.26-283.31" transform="translate(-32.09 -2.81)"/><path class="cls-4" d="M788.78,6.63H666.65C498,6.63,361.39,133.47,361.39,290v510L666.65,573.26H788.78C957.41,573.26,1094,446.42,1094,290h0C1094.17,133.47,957.41,6.63,788.78,6.63" transform="translate(-32.09 -2.81)"/><path class="cls-5" d="M788,6.63H665.91C497.28,6.63,360.65,133.47,360.65,290v510L665.91,573.26H788c168.62,0,305.26-126.84,305.26-283.31h0C1093.3,133.47,956.66,6.63,788,6.63" transform="translate(-32.09 -2.81)"/><path class="cls-6" d="M787.17,6.63H665C496.42,6.63,359.78,133.47,359.78,290v510L665,573.26H787.17c168.63,0,305.26-126.84,305.26-283.31h0c0-156.48-136.63-283.32-305.26-283.32" transform="translate(-32.09 -2.81)"/><path class="cls-7" d="M786.3,6.63H664.17C495.67,6.63,358.91,133.47,358.91,290v510L664.17,573.26H786.3c168.63,0,305.26-126.84,305.26-283.31h0C1091.69,133.47,954.93,6.63,786.3,6.63" transform="translate(-32.09 -2.81)"/><path class="cls-8" d="M785.56,6.63H663.43C494.8,6.63,358.17,133.47,358.17,290v510L663.43,573.26H785.56c168.62,0,305.26-126.84,305.26-283.31h0c0-156.48-136.64-283.32-305.26-283.32" transform="translate(-32.09 -2.81)"/><path class="cls-9" d="M784.69,6.63H662.56C493.94,6.63,357.3,133.47,357.3,290v510L662.56,573.26H784.69C953.32,573.26,1090,446.42,1090,290h0C1090.08,133.47,953.32,6.63,784.69,6.63" transform="translate(-32.09 -2.81)"/><path class="cls-10" d="M784,6.63H661.82C493.19,6.63,356.43,133.47,356.43,290v510L661.69,573.26H783.82c168.63,0,305.26-126.84,305.26-283.31h0C1089.21,133.47,952.57,6.63,784,6.63" transform="translate(-32.09 -2.81)"/><path class="cls-11" d="M783.08,6.63H661C492.32,6.63,355.69,133.47,355.69,290v510L661,573.26H783.08c168.62,0,305.26-126.84,305.26-283.31h0C1088.46,133.47,951.7,6.63,783.08,6.63" transform="translate(-32.09 -2.81)"/><path class="cls-12" d="M782.34,6.63H660.21C491.58,6.63,354.94,133.47,354.94,290v510L660.21,573.14H782.34c168.62,0,305.26-126.84,305.26-283.32h0C1087.6,133.47,951,6.63,782.34,6.63" transform="translate(-32.09 -2.81)"/><path class="cls-13" d="M781.47,6.63H659.34C490.71,6.63,354.08,133.47,354.08,290v510L659.34,573.26H781.47c168.62,0,305.26-126.84,305.26-283.31h0C1086.85,133.47,950.09,6.63,781.47,6.63" transform="translate(-32.09 -2.81)"/><path class="cls-14" d="M780.72,6.63H658.59C490,6.63,353.33,133.47,353.33,290v510L658.59,573.26H780.72C949.35,573.26,1086,446.42,1086,290h0C1086,133.35,949.22,6.63,780.72,6.63" transform="translate(-32.09 -2.81)"/><path class="cls-15" d="M779.86,6.51H657.73c-168.63,0-305.26,126.84-305.26,283.31v510L657.73,573.14H779.86c168.62,0,305.26-126.84,305.26-283.32h0c0-156.47-136.64-283.31-305.26-283.31" transform="translate(-32.09 -2.81)"/><path class="cls-16" d="M779,6.51H656.86C488.23,6.51,351.6,133.35,351.6,289.82v510L656.86,573.14H779c168.62,0,305.26-126.84,305.26-283.32h0C1084.37,133.35,947.61,6.51,779,6.51" transform="translate(-32.09 -2.81)"/><path class="cls-17" d="M778.24,6.51H656.11c-168.62,0-305.26,126.84-305.26,283.31v510L656.11,573.14H778.24c168.63,0,305.26-126.84,305.26-283.32h0c0-156.47-136.63-283.31-305.26-283.31" transform="translate(-32.09 -2.81)"/><path class="cls-18" d="M777.38,6.51H655.25C486.62,6.51,350,133.35,350,289.82v510L655.25,573.14H777.38c168.62,0,305.26-126.84,305.26-283.32h0C1082.76,133.35,946,6.51,777.38,6.51" transform="translate(-32.09 -2.81)"/><path class="cls-19" d="M776.63,6.51H654.5c-168.62,0-305.26,126.84-305.26,283.31v510L654.5,573.14H776.63c168.63,0,305.26-126.84,305.26-283.32h0c0-156.47-136.63-283.31-305.26-283.31" transform="translate(-32.09 -2.81)"/><path class="cls-20" d="M775.76,6.51H653.63C485,6.51,348.37,133.35,348.37,289.82v510L653.63,573.14H775.76C944.39,573.14,1081,446.3,1081,289.82h0C1081.15,133.35,944.39,6.51,775.76,6.51" transform="translate(-32.09 -2.81)"/><path class="cls-21" d="M775,6.51H652.89c-168.62,0-305.26,126.84-305.26,283.31v510L652.89,573.14H775c168.63,0,305.26-126.84,305.26-283.32h0C1080.28,133.35,943.65,6.51,775,6.51" transform="translate(-32.09 -2.81)"/><path class="cls-22" d="M774.15,6.51H652c-168.62,0-305.26,126.84-305.26,283.31v510L652,573.14H774.15c168.63,0,305.26-126.84,305.26-283.32h0c0-156.47-136.63-283.31-305.26-283.31" transform="translate(-32.09 -2.81)"/><path class="cls-23" d="M773.41,6.51H651.28C482.65,6.51,346,133.35,346,289.82v510L651.28,573.14H773.41c168.62,0,305.26-126.84,305.26-283.32h0c0-156.47-136.76-283.31-305.26-283.31" transform="translate(-32.09 -2.81)"/><path class="cls-24" d="M772.54,6.51H650.41c-168.62,0-305.26,126.84-305.26,283.31v510L650.41,573.14H772.54c168.63,0,305.26-126.84,305.26-283.32h0c0-156.47-136.63-283.31-305.26-283.31" transform="translate(-32.09 -2.81)"/><path class="cls-25" d="M771.67,6.51H649.54c-168.62,0-305.26,126.84-305.26,283.31v510L649.54,573.14H771.67c168.63,0,305.26-126.84,305.26-283.32h0C1077.06,133.23,940.3,6.51,771.67,6.51" transform="translate(-32.09 -2.81)"/><path class="cls-26" d="M770.93,6.39H648.8c-168.63,0-305.26,126.84-305.26,283.31v510L648.8,573H770.93c168.62,0,305.26-126.84,305.26-283.32h0c0-156.47-136.64-283.31-305.26-283.31" transform="translate(-32.09 -2.81)"/><path class="cls-27" d="M770.06,6.39H647.93c-168.62,0-305.26,126.84-305.26,283.31v510L647.93,573H770.06c168.63,0,305.26-126.84,305.26-283.32h0C1075.45,133.23,938.69,6.39,770.06,6.39" transform="translate(-32.09 -2.81)"/><path class="cls-28" d="M769.32,6.39H647.19c-168.63,0-305.26,126.84-305.26,283.31v510L647.19,573H769.32c168.62,0,305.26-126.84,305.26-283.32h0c0-156.47-136.64-283.31-305.26-283.31" transform="translate(-32.09 -2.81)"/><path class="cls-29" d="M768.45,6.39H646.32c-168.63,0-305.26,126.84-305.26,283.31V799.54L646.32,572.89H768.45c168.62,0,305.26-126.84,305.26-283.31h0C1073.83,133.23,937.07,6.39,768.45,6.39" transform="translate(-32.09 -2.81)"/><path class="cls-30" d="M767.7,6.39H645.58C477,6.39,340.31,133.23,340.31,289.7V799.54L645.58,572.89H767.7c168.63,0,305.27-126.84,305.27-283.31h0C1073,133.23,936.33,6.39,767.7,6.39" transform="translate(-32.09 -2.81)"/><path class="cls-31" d="M766.84,6.39H644.71c-168.63,0-305.26,126.84-305.26,283.31V799.54L644.71,572.89H766.84c168.62,0,305.26-126.84,305.26-283.31h0c0-156.35-136.64-283.19-305.26-283.19" transform="translate(-32.09 -2.81)"/><path class="cls-32" d="M766.09,6.39H644C475.34,6.39,338.7,133.23,338.7,289.7V799.54L644,572.89H766.09c168.63,0,305.26-126.84,305.26-283.31h0c0-156.35-136.76-283.19-305.26-283.19" transform="translate(-32.09 -2.81)"/><path class="cls-33" d="M765.22,6.39H643.1c-168.63,0-305.27,126.84-305.27,283.31V799.54L643.1,572.89H765.22c168.63,0,305.27-126.84,305.27-283.31h0c0-156.35-136.64-283.19-305.27-283.19" transform="translate(-32.09 -2.81)"/><path class="cls-34" d="M764.36,6.39H642.23C473.6,6.39,337,133.23,337,289.7V799.54L642.23,572.89H764.36c168.62,0,305.26-126.84,305.26-283.31h0C1069.74,133.23,933,6.39,764.36,6.39" transform="translate(-32.09 -2.81)"/><path class="cls-35" d="M763.61,6.39H641.48c-168.62,0-305.26,126.84-305.26,283.31V799.54L641.48,572.89H763.61c168.63,0,305.26-126.84,305.26-283.31h0c0-156.35-136.63-283.19-305.26-283.19" transform="translate(-32.09 -2.81)"/><path class="cls-36" d="M762.75,6.39H640.62C472,6.39,335.35,133.1,335.35,289.58v510L640.62,572.89H762.75c168.62,0,305.26-126.84,305.26-283.31h0C1068.13,133.1,931.37,6.39,762.75,6.39" transform="translate(-32.09 -2.81)"/><path class="cls-37" d="M762,6.39H639.87c-168.62,0-305.26,126.84-305.26,283.31V799.54L639.87,572.89H762c168.63,0,305.26-126.84,305.26-283.31h0C1067.26,133.1,930.63,6.39,762,6.39" transform="translate(-32.09 -2.81)"/><path class="cls-38" d="M761.13,6.26H639c-168.62,0-305.26,126.84-305.26,283.32v510L639,572.89H761.13c168.63,0,305.26-126.84,305.26-283.31h0C1066.52,133.1,929.76,6.26,761.13,6.26" transform="translate(-32.09 -2.81)"/><path class="cls-39" d="M760.39,6.26H638.26c-168.63,0-305.39,126.84-305.39,283.32v510L638.14,572.89H760.27c168.62,0,305.26-126.84,305.26-283.31h0C1065.65,133.1,929,6.26,760.39,6.26" transform="translate(-32.09 -2.81)"/><path class="cls-40" d="M759.52,6.26H637.39c-168.62,0-305.26,126.84-305.26,283.32v510L637.39,572.89H759.52c168.63,0,305.26-126.84,305.26-283.31h0c0-156.48-136.63-283.32-305.26-283.32" transform="translate(-32.09 -2.81)"/><path class="cls-41" d="M758.65,6.26h-122C468,6.26,331.39,133.1,331.39,289.58v510L636.65,572.89H758.78C927.4,572.89,1064,446.05,1064,289.58h0C1064,133.1,927.28,6.26,758.65,6.26" transform="translate(-32.09 -2.81)"/><path class="cls-42" d="M757.91,6.26H635.78c-168.62,0-305.26,126.84-305.26,283.32v510L635.78,572.89H757.91c168.62,0,305.26-126.84,305.26-283.31h0c0-156.48-136.64-283.32-305.26-283.32" transform="translate(-32.09 -2.81)"/><path class="cls-43" d="M757,6.26H634.91c-168.62,0-305.26,126.84-305.26,283.32v510L634.91,572.89H757c168.63,0,305.26-126.84,305.26-283.31h0C1062.43,133.1,925.67,6.26,757,6.26" transform="translate(-32.09 -2.81)"/><path class="cls-44" d="M756.3,6.26H634.17c-168.63,0-305.26,126.84-305.26,283.32v510L634.17,572.77H756.3c168.62,0,305.26-126.84,305.26-283.32h0C1061.56,133.1,924.92,6.26,756.3,6.26" transform="translate(-32.09 -2.81)"/><path class="cls-45" d="M755.43,6.26H633.3C464.68,6.26,328,133.1,328,289.58v510L633.3,572.89H755.43c168.62,0,305.26-126.84,305.26-283.31h0C1060.81,133.1,924.05,6.26,755.43,6.26" transform="translate(-32.09 -2.81)"/><path class="cls-46" d="M754.69,6.26H632.56C463.93,6.26,327.3,133.1,327.3,289.58v510L632.56,572.89H754.69c168.62,0,305.26-126.84,305.26-283.31h0C1060,133.1,923.31,6.26,754.69,6.26" transform="translate(-32.09 -2.81)"/><path class="cls-47" d="M753.94,6.26H631.81c-168.62,0-305.26,126.84-305.26,283.32v510L631.81,572.89H753.94c168.63,0,305.26-126.84,305.26-283.31h0C1059.33,133.1,922.57,6.26,753.94,6.26" transform="translate(-32.09 -2.81)"/><path class="cls-48" d="M753.32,6.26H631.19c-168.62,0-305.26,126.84-305.26,283.32v510L631.19,572.89H753.32c168.63,0,305.26-126.84,305.26-283.31h0C1058.58,133.1,922,6.26,753.32,6.26" transform="translate(-32.09 -2.81)"/><path class="cls-49" d="M752.58,6.26H630.45c-168.63,0-305.26,126.84-305.26,283.32v510L630.45,572.89H752.58c168.62,0,305.26-126.84,305.26-283.31h0C1057.84,133.1,921.2,6.26,752.58,6.26" transform="translate(-32.09 -2.81)"/><path class="cls-50" d="M751.83,6.39H629.7c-168.62,0-305.26,126.84-305.26,283.31V799.54L629.7,572.89H751.83c168.63,0,305.27-126.84,305.27-283.31h0C1057.22,133.1,920.46,6.39,751.83,6.39" transform="translate(-32.09 -2.81)"/><path class="cls-51" d="M751.21,6.39H629.08c-168.62,0-305.26,126.84-305.26,283.31V799.54L629.08,572.89H751.21c168.63,0,305.27-126.84,305.27-283.31h0c0-156.35-136.64-283.19-305.27-283.19" transform="translate(-32.09 -2.81)"/><path class="cls-52" d="M750.47,6.39H628.34c-168.62,0-305.26,126.84-305.26,283.31V799.54L628.34,572.89H750.47c168.63,0,305.26-126.84,305.26-283.31h0C1055.86,133.23,919.1,6.39,750.47,6.39" transform="translate(-32.09 -2.81)"/><path class="cls-53" d="M749.85,6.39H627.72C459.1,6.39,322.46,133.23,322.46,289.7V799.54L627.72,572.89H749.85c168.63,0,305.26-126.84,305.26-283.31h0c0-156.35-136.63-283.19-305.26-283.19" transform="translate(-32.09 -2.81)"/><path class="cls-54" d="M749.11,6.39H627c-168.63,0-305.26,126.84-305.26,283.31v510L627,573H749.11c168.62,0,305.26-126.84,305.26-283.32h0C1054.49,133.23,917.73,6.39,749.11,6.39" transform="translate(-32.09 -2.81)"/><path class="cls-55" d="M748.49,6.51H626.36C457.73,6.51,321.1,133.35,321.1,289.82v510L626.36,573.14H748.49c168.62,0,305.26-126.84,305.26-283.32h0c0-156.47-136.64-283.31-305.26-283.31" transform="translate(-32.09 -2.81)"/><path class="cls-56" d="M747.74,6.51H625.61C457,6.51,320.35,133.35,320.35,289.82v510L625.61,573.14H747.74C916.37,573.14,1053,446.3,1053,289.82h0C1053.13,133.35,916.37,6.51,747.74,6.51" transform="translate(-32.09 -2.81)"/><path class="cls-57" d="M747.12,6.51H625c-168.62,0-305.26,126.84-305.26,283.31v510L625,573.14H747.12c168.63,0,305.26-126.84,305.26-283.32h0c0-156.47-136.63-283.31-305.26-283.31" transform="translate(-32.09 -2.81)"/><path class="cls-58" d="M746.38,6.51H624.25C455.62,6.51,319,133.35,319,289.82v510L624.25,573.14H746.38c168.62,0,305.26-126.84,305.26-283.32h0C1051.64,133.35,915,6.51,746.38,6.51" transform="translate(-32.09 -2.81)"/><path class="cls-59" d="M745.76,6.63H623.63C455,6.63,318.37,133.47,318.37,290v510L623.63,573.26H745.76C914.38,573.26,1051,446.42,1051,290h0C1051,133.35,914.26,6.63,745.76,6.63" transform="translate(-32.09 -2.81)"/><path class="cls-60" d="M745,6.63H622.89C454.26,6.63,317.62,133.47,317.62,290v510L622.89,573.26H745c168.63,0,305.27-126.84,305.27-283.31h0C1050.28,133.47,913.64,6.63,745,6.63" transform="translate(-32.09 -2.81)"/><path class="cls-61" d="M744.27,6.63H622.14C453.52,6.63,316.88,133.47,316.88,290v510L622.14,573.26H744.27c168.63,0,305.26-126.84,305.26-283.31h0C1049.66,133.47,912.9,6.63,744.27,6.63" transform="translate(-32.09 -2.81)"/><path class="cls-62" d="M743.65,6.63H621.52C452.9,6.63,316.26,133.47,316.26,290v510L621.52,573.26H743.65c168.63,0,305.26-126.84,305.26-283.31h0c0-156.48-136.63-283.32-305.26-283.32" transform="translate(-32.09 -2.81)"/><path class="cls-63" d="M742.91,6.63H620.78C452.15,6.63,315.52,133.47,315.52,290v510L620.78,573.26H742.91c168.62,0,305.26-126.84,305.26-283.31h0C1048.29,133.47,911.53,6.63,742.91,6.63" transform="translate(-32.09 -2.81)"/><path class="cls-64" d="M742.29,6.76H620.16C451.53,6.76,314.9,133.6,314.9,290.07V800L620.16,573.39H742.29c168.62,0,305.26-126.84,305.26-283.32h0c0-156.47-136.64-283.31-305.26-283.31" transform="translate(-32.09 -2.81)"/><path class="cls-65" d="M741.54,6.76H619.41c-168.62,0-305.26,126.84-305.26,283.31V800L619.41,573.39H741.54c168.63,0,305.26-126.84,305.26-283.32h0C1046.93,133.6,910.17,6.76,741.54,6.76" transform="translate(-32.09 -2.81)"/><path class="cls-66" d="M740.92,6.76H618.79c-168.62,0-305.26,126.84-305.26,283.31V800L618.79,573.39H740.92c168.63,0,305.26-126.84,305.26-283.32h0c0-156.47-136.63-283.31-305.26-283.31" transform="translate(-32.09 -2.81)"/><path class="cls-67" d="M740.18,6.76H618.05c-168.63,0-305.26,126.84-305.26,283.31V800L618.05,573.39H740.18c168.62,0,305.26-126.84,305.26-283.32h0C1045.56,133.6,908.8,6.76,740.18,6.76" transform="translate(-32.09 -2.81)"/><path class="cls-68" d="M739.56,6.88H617.43C448.8,6.88,312.17,133.72,312.17,290.2v510L617.43,573.51H739.56c168.62,0,305.26-126.84,305.26-283.31h0c0-156.48-136.64-283.32-305.26-283.32" transform="translate(-32.09 -2.81)"/><path class="cls-69" d="M738.82,6.88H616.69c-168.63,0-305.27,126.84-305.27,283.32v510L616.69,573.51H738.82c168.62,0,305.26-126.84,305.26-283.31h0c0-156.48-136.64-283.32-305.26-283.32" transform="translate(-32.09 -2.81)"/><path class="cls-70" d="M738.07,6.88H615.94c-168.62,0-305.26,126.84-305.26,283.32v510L615.94,573.51H738.07c168.63,0,305.26-126.84,305.26-283.31h0C1043.46,133.72,906.7,6.88,738.07,6.88" transform="translate(-32.09 -2.81)"/><path class="cls-71" d="M737.45,6.88H615.32C446.7,6.88,310.06,133.72,310.06,290.2v510L615.32,573.51H737.45c168.63,0,305.26-126.84,305.26-283.31h0c0-156.48-136.63-283.32-305.26-283.32" transform="translate(-32.09 -2.81)"/><path class="cls-72" d="M736.71,6.88H614.58C446,6.88,309.32,133.72,309.32,290.2v510L614.58,573.51H736.71C905.33,573.51,1042,446.67,1042,290.2h0C1042.09,133.72,905.33,6.88,736.71,6.88" transform="translate(-32.09 -2.81)"/><path class="cls-73" d="M736.09,7H614C445.33,7,308.7,133.85,308.7,290.32v510L614,573.64H736.09c168.62,0,305.26-126.84,305.26-283.32h0C1041.35,133.85,904.71,7,736.09,7" transform="translate(-32.09 -2.81)"/><path class="cls-74" d="M735.34,7H613.21C444.59,7,308,133.85,308,290.32v510L613.21,573.64H735.34c168.63,0,305.26-126.84,305.26-283.32h0C1040.73,133.85,904,7,735.34,7" transform="translate(-32.09 -2.81)"/><path class="cls-75" d="M734.72,7H612.59C444,7,307.33,133.85,307.33,290.32v510L612.59,573.64H734.72C903.35,573.64,1040,446.8,1040,290.32h0C1040,133.85,903.35,7,734.72,7" transform="translate(-32.09 -2.81)"/><path class="cls-76" d="M734,7H611.85C443.23,7,306.59,133.85,306.59,290.32v510L611.85,573.64H734c168.62,0,305.26-126.84,305.26-283.32h0C1039.36,133.85,902.6,7,734,7" transform="translate(-32.09 -2.81)"/><path class="cls-77" d="M733.36,7.13H611.23C442.61,7.13,306,134,306,290.44v510L611.23,573.76H733.36c168.62,0,305.26-126.84,305.26-283.32h0C1038.62,134,902,7.13,733.36,7.13" transform="translate(-32.09 -2.81)"/><path class="cls-78" d="M732.62,7.13H610.49C441.86,7.13,305.23,134,305.23,290.44v510L610.49,573.76H732.62c168.62,0,305.26-126.84,305.26-283.32h0C1037.88,134,901.24,7.13,732.62,7.13" transform="translate(-32.09 -2.81)"/><path class="cls-79" d="M732,7.13H609.87C441.24,7.13,304.61,134,304.61,290.44v510L609.87,573.76H732c168.62,0,305.26-126.84,305.26-283.32h0C1037.26,134,900.5,7.13,732,7.13" transform="translate(-32.09 -2.81)"/><path class="cls-80" d="M731.25,7.13H609.12C440.5,7.13,303.86,134,303.86,290.44v510L609.12,573.76H731.25c168.63,0,305.26-126.84,305.26-283.32h0C1036.51,134,899.88,7.13,731.25,7.13" transform="translate(-32.09 -2.81)"/><path class="cls-81" d="M730.51,7.13H608.38C439.88,7.13,303.12,134,303.12,290.44v510L608.38,573.76H730.51c168.62,0,305.26-126.84,305.26-283.32h0C1035.89,134,899.13,7.13,730.51,7.13" transform="translate(-32.09 -2.81)"/><path class="cls-82" d="M729.89,7.25H607.76C439.13,7.25,302.5,134.09,302.5,290.57v510L607.76,573.88H729.89c168.62,0,305.26-126.84,305.26-283.31h0c0-156.48-136.64-283.32-305.26-283.32" transform="translate(-32.09 -2.81)"/><path class="cls-83" d="M729.14,7.25H607c-168.62,0-305.26,126.84-305.26,283.32v510L607,573.88H729.14c168.63,0,305.27-126.84,305.27-283.31h0C1034.53,134.09,897.77,7.25,729.14,7.25" transform="translate(-32.09 -2.81)"/><path class="cls-84" d="M728.52,7.25H606.39c-168.62,0-305.26,126.84-305.26,283.32v510L606.39,573.88H728.52c168.63,0,305.27-126.84,305.27-283.31h0c0-156.48-136.64-283.32-305.27-283.32" transform="translate(-32.09 -2.81)"/><path class="cls-85" d="M727.78,7.25H605.65C437,7.25,300.39,134.09,300.39,290.57v510L605.65,573.88H727.78C896.41,573.88,1033,447,1033,290.57h0C1033.17,134.09,896.41,7.25,727.78,7.25" transform="translate(-32.09 -2.81)"/><path class="cls-86" d="M727.16,7.38H605c-168.62,0-305.26,126.84-305.26,283.31v510L605,573.88H727.16c168.63,0,305.26-126.84,305.26-283.31h0c0-156.35-136.63-283.19-305.26-283.19" transform="translate(-32.09 -2.81)"/><path class="cls-87" d="M726.42,7.38H604.29C435.66,7.38,299,134.22,299,290.69v510L604.29,573.88H726.42c168.62,0,305.26-126.84,305.26-283.31h0C1031.8,134.22,895,7.38,726.42,7.38" transform="translate(-32.09 -2.81)"/><path class="cls-88" d="M725.8,7.38H603.67C435,7.38,298.41,134.22,298.41,290.69v510L603.67,574H725.8c168.62,0,305.26-126.84,305.26-283.32h0c0-156.47-136.64-283.31-305.26-283.31" transform="translate(-32.09 -2.81)"/><path class="cls-89" d="M725.05,7.38H602.92c-168.62,0-305.26,126.84-305.26,283.31v510L602.92,574H725.05c168.63,0,305.26-126.84,305.26-283.32h0c0-156.47-136.63-283.31-305.26-283.31" transform="translate(-32.09 -2.81)"/><path class="cls-90" d="M724.31,7.38H602.18c-168.5,0-305.26,126.84-305.26,283.31v510L602.18,574H724.31c168.62,0,305.26-126.84,305.26-283.32h0C1029.69,134.22,892.93,7.38,724.31,7.38" transform="translate(-32.09 -2.81)"/><path class="cls-91" d="M723.69,7.5H601.56C432.93,7.5,296.3,134.34,296.3,290.82v510L601.56,574.13H723.69c168.62,0,305.26-126.84,305.26-283.31h0C1029,134.34,892.31,7.5,723.69,7.5" transform="translate(-32.09 -2.81)"/><path class="cls-92" d="M722.94,7.5H600.82c-168.63,0-305.27,126.84-305.27,283.32v510L600.82,574.13H722.94c168.63,0,305.27-126.84,305.27-283.31h0C1028.33,134.34,891.57,7.5,722.94,7.5" transform="translate(-32.09 -2.81)"/><path class="cls-93" d="M722.32,7.5H600.2c-168.63,0-305.27,126.84-305.27,283.32v510L600.2,574.13H722.32c168.63,0,305.27-126.84,305.27-283.31h0C1027.59,134.34,891,7.5,722.32,7.5" transform="translate(-32.09 -2.81)"/><path class="cls-94" d="M721.58,7.5H599.45c-168.62,0-305.26,126.84-305.26,283.32v510L599.45,574.13H721.58c168.63,0,305.26-126.84,305.26-283.31h0C1027,134.34,890.21,7.5,721.58,7.5" transform="translate(-32.09 -2.81)"/><path class="cls-95" d="M721,7.63H598.83c-168.62,0-305.26,126.84-305.26,283.31V800.78L598.83,574.13H721c168.63,0,305.26-126.84,305.26-283.31h0C1026.22,134.47,889.59,7.63,721,7.63" transform="translate(-32.09 -2.81)"/><path class="cls-96" d="M720.22,7.63H598.09c-168.63,0-305.26,126.84-305.26,283.31V800.78L598.09,574.13H720.22c168.62,0,305.26-126.84,305.26-283.31h0C1025.6,134.47,888.84,7.63,720.22,7.63" transform="translate(-32.09 -2.81)"/><path class="cls-97" d="M719.6,7.63H597.47c-168.63,0-305.26,126.84-305.26,283.31V800.78L597.47,574.13H719.6c168.62,0,305.26-126.84,305.26-283.31h0c0-156.35-136.64-283.19-305.26-283.19" transform="translate(-32.09 -2.81)"/><path class="cls-98" d="M718.85,7.63H596.72c-168.62,0-305.26,126.84-305.26,283.31v510L596.72,574.26H718.85c168.63,0,305.26-126.84,305.26-283.32h0c0-156.47-136.63-283.31-305.26-283.31" transform="translate(-32.09 -2.81)"/><path class="cls-99" d="M718.23,7.75H596.1c-168.62,0-305.38,126.72-305.38,283.19v510L596,574.26H718.11c168.62,0,305.26-126.84,305.26-283.32h0C1023.49,134.47,886.73,7.75,718.23,7.75" transform="translate(-32.09 -2.81)"/><path class="cls-100" d="M717.49,7.75H595.36C426.73,7.75,290.1,134.59,290.1,291.06V801L595.36,574.38H717.49c168.62,0,305.26-126.84,305.26-283.32h0c0-156.47-136.64-283.31-305.26-283.31" transform="translate(-32.09 -2.81)"/><path class="cls-101" d="M716.75,7.75H594.62C426,7.75,289.35,134.59,289.35,291.06V801L594.62,574.38H716.75c168.62,0,305.26-126.84,305.26-283.32h0C1022.13,134.59,885.37,7.75,716.75,7.75" transform="translate(-32.09 -2.81)"/><path class="cls-102" d="M716.13,7.75H594c-168.63,0-305.27,126.84-305.27,283.31V801L594,574.38H716.13c168.62,0,305.26-126.84,305.26-283.32h0c0-156.47-136.64-283.31-305.26-283.31" transform="translate(-32.09 -2.81)"/><path class="cls-103" d="M715.38,7.75H593.25C424.63,7.75,288,134.59,288,291.06V801L593.25,574.38H715.38c168.63,0,305.26-126.84,305.26-283.32h0C1020.77,134.59,884,7.75,715.38,7.75" transform="translate(-32.09 -2.81)"/><path class="cls-104" d="M714.76,7.87H592.63C424,7.87,287.37,134.71,287.37,291.19v510L592.63,574.5H714.76C883.39,574.5,1020,447.66,1020,291.19h0C1020,134.71,883.39,7.87,714.76,7.87" transform="translate(-32.09 -2.81)"/><path class="cls-105" d="M714,7.87H591.89c-168.63,0-305.26,126.84-305.26,283.32v510L591.89,574.5H714c168.62,0,305.26-126.84,305.26-283.31h0C1019.4,134.71,882.64,7.87,714,7.87" transform="translate(-32.09 -2.81)"/><path class="cls-106" d="M713.4,7.87H591.27C422.64,7.87,286,134.71,286,291.19v510L591.27,574.5H713.4c168.62,0,305.26-126.84,305.26-283.31h0C1018.66,134.71,882,7.87,713.4,7.87" transform="translate(-32.09 -2.81)"/><path class="cls-107" d="M712.53,7.87H590.4c-168.62,0-305.26,126.84-305.26,283.32v510L590.4,574.5H712.53c168.62,0,305.26-126.84,305.26-283.31h0C1017.79,134.71,881,7.87,712.53,7.87" transform="translate(-32.09 -2.81)"/><path class="cls-108" d="M711.54,7.87H589.41c-168.63,0-305.26,126.84-305.26,283.32v510L589.41,574.5H711.54c168.62,0,305.26-126.84,305.26-283.31h0C1016.92,134.71,880.16,7.87,711.54,7.87" transform="translate(-32.09 -2.81)"/><path class="cls-109" d="M710.67,7.75H588.54c-168.62,0-305.26,126.84-305.26,283.31V801L588.54,574.38H710.67c168.62,0,305.26-126.84,305.26-283.32h0C1016.05,134.59,879.29,7.75,710.67,7.75" transform="translate(-32.09 -2.81)"/><path class="cls-110" d="M709.8,7.75H587.67c-168.62,0-305.26,126.84-305.26,283.31V801L587.67,574.38H709.8c168.63,0,305.26-126.84,305.26-283.32h0C1015.19,134.59,878.43,7.75,709.8,7.75" transform="translate(-32.09 -2.81)"/><path class="cls-111" d="M708.93,7.75H586.8c-168.62,0-305.26,126.84-305.26,283.31V801L586.8,574.38H708.93c168.63,0,305.26-126.84,305.26-283.32h0C1014.32,134.59,877.56,7.75,708.93,7.75" transform="translate(-32.09 -2.81)"/><path class="cls-112" d="M708.07,7.75H585.94c-168.63,0-305.26,126.84-305.26,283.31V801L585.94,574.38H708.07c168.62,0,305.26-126.84,305.26-283.32h0c0-156.47-136.64-283.31-305.26-283.31" transform="translate(-32.09 -2.81)"/><path class="cls-113" d="M707.2,7.75H585.07c-168.63,0-305.26,126.84-305.26,283.31V801L585.07,574.38H707.2c168.62,0,305.26-126.84,305.26-283.32h0c0-156.59-136.64-283.31-305.26-283.31" transform="translate(-32.09 -2.81)"/><path class="cls-114" d="M706.33,7.63H584.2c-168.62,0-305.26,126.84-305.26,283.31v510L584.2,574.26H706.33c168.63,0,305.26-126.84,305.26-283.32h0C1011.59,134.47,875,7.63,706.33,7.63" transform="translate(-32.09 -2.81)"/><path class="cls-115" d="M705.46,7.63H583.33c-168.62,0-305.26,126.84-305.26,283.31V800.78L583.33,574.26H705.46c168.63,0,305.26-126.84,305.26-283.32h0c0-156.47-136.63-283.31-305.26-283.31" transform="translate(-32.09 -2.81)"/><path class="cls-116" d="M704.59,7.63H582.46c-168.62,0-305.38,126.84-305.38,283.31V800.78L582.34,574.13H704.47c168.63,0,305.26-126.84,305.26-283.31h0C1009.86,134.47,873.22,7.63,704.59,7.63" transform="translate(-32.09 -2.81)"/><path class="cls-117" d="M703.73,7.63H581.6C413,7.63,276.34,134.47,276.34,290.94V800.78L581.6,574.13H703.73c168.62,0,305.26-126.84,305.26-283.31h0C1009,134.47,872.23,7.63,703.73,7.63" transform="translate(-32.09 -2.81)"/><path class="cls-118" d="M702.73,7.5H580.61C412,7.5,275.34,134.34,275.34,290.82v510L580.61,574.13H702.73c168.63,0,305.27-126.84,305.27-283.31h0C1008.12,134.34,871.36,7.5,702.73,7.5" transform="translate(-32.09 -2.81)"/><path class="cls-119" d="M701.87,7.5H579.74c-168.63,0-305.26,126.84-305.26,283.32v510L579.74,574.13H701.87c168.62,0,305.26-126.84,305.26-283.31h0C1007.25,134.34,870.49,7.5,701.87,7.5" transform="translate(-32.09 -2.81)"/><path class="cls-120" d="M701,7.5H578.87c-168.63,0-305.26,126.84-305.26,283.32v510L578.87,574.13H701c168.62,0,305.26-126.84,305.26-283.31h0C1006.38,134.34,869.62,7.5,701,7.5" transform="translate(-32.09 -2.81)"/><path class="cls-121" d="M700.13,7.5H578c-168.62,0-305.26,126.84-305.26,283.32v510L578,574.13H700.13c168.63,0,305.26-126.84,305.26-283.31h0C1005.39,134.34,868.76,7.5,700.13,7.5" transform="translate(-32.09 -2.81)"/><path class="cls-122" d="M699.26,7.5H577.13c-168.62,0-305.26,126.84-305.26,283.32v510L577.13,574H699.26c168.63,0,305.26-126.84,305.26-283.32h0C1004.52,134.34,867.89,7.5,699.26,7.5" transform="translate(-32.09 -2.81)"/><path class="cls-123" d="M698.39,7.38H576.27C407.64,7.38,271,134.22,271,290.69v510L576.27,574H698.39c168.63,0,305.27-126.84,305.27-283.32h0C1003.66,134.22,867,7.38,698.39,7.38" transform="translate(-32.09 -2.81)"/><path class="cls-124" d="M697.53,7.38H575.4c-168.63,0-305.26,126.84-305.26,283.31v510L575.4,574H697.53c168.62,0,305.26-126.84,305.26-283.32h0c0-156.47-136.64-283.31-305.26-283.31" transform="translate(-32.09 -2.81)"/><path class="cls-125" d="M696.66,7.38H574.53c-168.63,0-305.26,126.84-305.26,283.31v510L574.53,573.88H696.66c168.62,0,305.26-126.84,305.26-283.31h0c0-156.35-136.64-283.19-305.26-283.19" transform="translate(-32.09 -2.81)"/><path class="cls-126" d="M695.79,7.38H573.66C405,7.38,268.4,134.22,268.4,290.69v510L573.66,573.88H695.79c168.63,0,305.26-126.84,305.26-283.31h0c0-156.35-136.63-283.19-305.26-283.19" transform="translate(-32.09 -2.81)"/><path class="cls-127" d="M694.8,7.38H572.67C404,7.38,267.41,134.22,267.41,290.69v510L572.79,573.88H694.92c168.63,0,305.26-126.84,305.26-283.31h0c0-156.48-136.76-283.19-305.38-283.19" transform="translate(-32.09 -2.81)"/><path class="cls-128" d="M693.93,7.25H571.8c-168.62,0-305.26,126.84-305.26,283.32v510L571.8,573.88H693.93c168.63,0,305.26-126.84,305.26-283.31h0C999.32,134.09,862.56,7.25,693.93,7.25" transform="translate(-32.09 -2.81)"/><path class="cls-129" d="M693.06,7.25H570.93c-168.62,0-305.26,126.84-305.26,283.32v510L570.93,573.88H693.06c168.63,0,305.26-126.84,305.26-283.31h0C998.45,134.09,861.69,7.25,693.06,7.25" transform="translate(-32.09 -2.81)"/><path class="cls-130" d="M692.2,7.25H570.07C401.44,7.25,264.8,134.09,264.8,290.57v510L570.07,573.88H692.2c168.62,0,305.26-126.84,305.26-283.31h0C997.58,134.09,860.82,7.25,692.2,7.25" transform="translate(-32.09 -2.81)"/><path class="cls-131" d="M691.33,7.25H569.2c-168.63,0-305.26,126.84-305.26,283.32v510L569.2,573.88H691.33C860,573.88,996.59,447,996.59,290.57h0C996.59,134.09,860,7.25,691.33,7.25" transform="translate(-32.09 -2.81)"/><path class="cls-132" d="M690.46,7.13H568.33C399.71,7.13,263.07,134,263.07,290.44v510L568.33,573.76H690.46c168.62,0,305.26-126.84,305.26-283.32h0C995.72,134,859.08,7.13,690.46,7.13" transform="translate(-32.09 -2.81)"/><path class="cls-133" d="M689.59,7.13H567.46C398.84,7.13,262.2,134,262.2,290.44v510L567.46,573.76H689.59c168.63,0,305.26-126.84,305.26-283.32h0C994.85,134,858.22,7.13,689.59,7.13" transform="translate(-32.09 -2.81)"/><path class="cls-134" d="M688.72,7.13H566.59C398,7.13,261.33,134,261.33,290.44v510L566.59,573.76H688.72C857.35,573.76,994,446.92,994,290.44h0C994,134,857.35,7.13,688.72,7.13" transform="translate(-32.09 -2.81)"/><path class="cls-135" d="M687.86,7.13H565.73C397.1,7.13,260.47,134,260.47,290.44v510L565.73,573.76H687.86c168.62,0,305.26-126.84,305.26-283.32h0C993.12,134,856.48,7.13,687.86,7.13" transform="translate(-32.09 -2.81)"/><path class="cls-136" d="M687,7.13H564.86C396.23,7.13,259.6,134,259.6,290.44v510L564.86,573.76H687c168.62,0,305.26-126.84,305.26-283.32h0C992.25,134,855.49,7.13,687,7.13" transform="translate(-32.09 -2.81)"/><path class="cls-137" d="M686,7H563.87C395.24,7,258.61,133.85,258.61,290.32v510L563.87,573.64H686c168.62,0,305.26-126.84,305.26-283.32h0C991.38,133.85,854.62,7,686,7" transform="translate(-32.09 -2.81)"/><path class="cls-138" d="M685.13,7H563C394.37,7,257.74,133.85,257.74,290.32v510L563,573.64H685.13c168.62,0,305.26-126.84,305.26-283.32h0C990.51,133.85,853.75,7,685.13,7" transform="translate(-32.09 -2.81)"/><path class="cls-139" d="M684.26,7H562.13C393.51,7,256.87,133.85,256.87,290.32v510L562.13,573.64H684.26c168.63,0,305.26-126.84,305.26-283.32h0C989.65,133.85,852.89,7,684.26,7" transform="translate(-32.09 -2.81)"/><path class="cls-140" d="M683.39,7H561.26C392.64,7,256,133.85,256,290.2v510L561.26,573.51H683.39c168.63,0,305.26-126.84,305.26-283.31h0C988.78,133.85,852,7,683.39,7" transform="translate(-32.09 -2.81)"/><path class="cls-141" d="M682.52,7H560.39C391.77,7,255.13,133.85,255.13,290.32v510L560.39,573.64H682.52c168.63,0,305.27-126.84,305.27-283.32h0C987.79,133.72,851.15,7,682.52,7" transform="translate(-32.09 -2.81)"/><path class="cls-142" d="M681.66,6.88H559.53C390.9,6.88,254.27,133.72,254.27,290.2v510L559.53,573.51H681.66c168.62,0,305.26-126.84,305.26-283.31h0c0-156.48-136.64-283.32-305.26-283.32" transform="translate(-32.09 -2.81)"/><path class="cls-143" d="M680.79,6.88H558.66C390,6.88,253.4,133.72,253.4,290.2v510L558.66,573.51H680.79c168.62,0,305.26-126.84,305.26-283.31h0c0-156.48-136.64-283.32-305.26-283.32" transform="translate(-32.09 -2.81)"/><path class="cls-144" d="M679.92,6.88H557.79c-168.62,0-305.26,126.84-305.26,283.32v510L557.79,573.51H679.92c168.63,0,305.26-126.84,305.26-283.31h0c0-156.48-136.63-283.32-305.26-283.32" transform="translate(-32.09 -2.81)"/><path class="cls-145" d="M679.05,6.88H556.92C388.3,6.88,251.66,133.72,251.66,290.2v510L556.92,573.51H679.05c168.63,0,305.26-126.84,305.26-283.31h0c0-156.48-136.63-283.32-305.26-283.32" transform="translate(-32.09 -2.81)"/><path class="cls-146" d="M678.18,6.76H556.06c-168.63,0-305.27,126.84-305.27,283.31V800L556.06,573.39H678.18c168.63,0,305.27-126.84,305.27-283.32h0C983.45,133.6,846.69,6.76,678.18,6.76" transform="translate(-32.09 -2.81)"/><path class="cls-147" d="M677.19,6.76H555.06C386.56,6.76,249.8,133.6,249.8,290.07V800L555.06,573.39H677.19c168.63,0,305.26-126.84,305.26-283.32h0C982.58,133.6,845.82,6.76,677.19,6.76" transform="translate(-32.09 -2.81)"/><path class="cls-148" d="M676.32,6.76H554.2c-168.63,0-305.27,126.84-305.27,283.31V800L554.2,573.39H676.32c168.63,0,305.27-126.84,305.27-283.32h0C981.71,133.6,845,6.76,676.32,6.76" transform="translate(-32.09 -2.81)"/><path class="cls-149" d="M675.46,6.76H553.33C384.7,6.76,248.07,133.6,248.07,290.07V800L553.33,573.39H675.46c168.62,0,305.26-126.84,305.26-283.32h0C980.84,133.6,844.08,6.76,675.46,6.76" transform="translate(-32.09 -2.81)"/><path class="cls-150" d="M674.59,6.76H552.46C383.83,6.76,247.2,133.6,247.2,290.07V800L552.46,573.39H674.59c168.62,0,305.26-126.84,305.26-283.32h0C979.85,133.6,843.21,6.76,674.59,6.76" transform="translate(-32.09 -2.81)"/><path class="cls-151" d="M673.72,6.63H551.59C383,6.63,246.33,133.47,246.33,290v510L551.59,573.26H673.72C842.35,573.26,979,446.42,979,290h0C979,133.47,842.35,6.63,673.72,6.63" transform="translate(-32.09 -2.81)"/><path class="cls-152" d="M672.85,6.63H550.72C382.1,6.63,245.46,133.47,245.46,290v510L550.72,573.26H672.85c168.63,0,305.26-126.84,305.26-283.31h0c0-156.48-136.63-283.32-305.26-283.32" transform="translate(-32.09 -2.81)"/><path class="cls-153" d="M672,6.63H549.86C381.23,6.63,244.47,133.47,244.47,290v510L549.86,573.14H672c168.62,0,305.26-126.84,305.26-283.32h0C977.25,133.47,840.61,6.63,672,6.63" transform="translate(-32.09 -2.81)"/><path class="cls-154" d="M671.12,6.63H549C380.36,6.63,243.6,133.47,243.6,289.82v510L548.86,573.14H671c168.63,0,305.26-126.84,305.26-283.32h0C976.38,133.47,839.74,6.63,671.12,6.63" transform="translate(-32.09 -2.81)"/><path class="cls-155" d="M670.25,6.63H548.12C379.49,6.63,242.86,133.47,242.86,290v510L548.12,573.26H670.25c168.62,0,305.26-126.84,305.26-283.31h0c0-156.6-136.64-283.32-305.26-283.32" transform="translate(-32.09 -2.81)"/><path class="cls-156" d="M669.26,6.51H547.13c-168.63,0-305.26,126.84-305.26,283.31v510L547.13,573.14H669.26c168.62,0,305.26-126.84,305.26-283.32h0C974.64,133.35,837.88,6.51,669.26,6.51" transform="translate(-32.09 -2.81)"/><path class="cls-157" d="M668.39,6.51H546.26C377.63,6.51,241,133.35,241,289.82v510L546.26,573.14H668.39c168.62,0,305.26-126.84,305.26-283.32h0C973.77,133.35,837,6.51,668.39,6.51" transform="translate(-32.09 -2.81)"/><path class="cls-158" d="M667.52,6.51H545.39c-168.62,0-305.26,126.84-305.26,283.31v510L545.39,573.14H667.52c168.63,0,305.26-126.84,305.26-283.32h0C972.91,133.35,836.15,6.51,667.52,6.51" transform="translate(-32.09 -2.81)"/><path class="cls-159" d="M666.65,6.51H544.52c-168.62,0-305.26,126.84-305.26,283.31v510L544.52,573.14H666.65c168.63,0,305.26-126.84,305.26-283.32h0C972,133.35,835.28,6.51,666.65,6.51" transform="translate(-32.09 -2.81)"/><path class="cls-160" d="M665.79,6.39H543.66C375,6.39,238.4,133.23,238.4,289.7v510L543.66,573H665.79c168.62,0,305.26-126.84,305.26-283.32h0c0-156.47-136.64-283.31-305.26-283.31" transform="translate(-32.09 -2.81)"/></g><g id="Layer_8" data-name="Layer 8"><path class="cls-161" d="M1624.4,182.72h19.07c55.47,0,91.26-41.35,91.26-89.52,0-48.53-35.79-89.89-91.26-89.89H1526.84V260ZM1599.15,59.15h30.21c19.44,0,31.94,15.48,31.94,34.05s-12.87,34.05-32.31,34.05h-29.84V59.15Z" transform="translate(-32.09 -2.81)"/><polygon class="cls-161" points="1873.5 176.94 1797.97 176.94 1797.97 0.62 1726.41 0.62 1726.41 239.47 1873.5 239.47 1873.5 176.94"/><path class="cls-161" d="M2010.22,214.67h80.85l8.3,27.61h79.86L2093.67,3.43h-85.8l-83.33,238.85h77.39Zm40.49-139.55,25.51,88h-50.89Z" transform="translate(-32.09 -2.81)"/><polygon class="cls-161" points="2165.96 239.47 2246.57 239.47 2365.93 0.62 2286.07 0.62 2249.66 85.56 2210.78 0.62 2126.84 0.62 2207.69 153.41 2165.96 239.47"/><polygon class="cls-162" points="1345.79 276.37 1309.39 361.43 1270.51 276.37 1186.56 276.37 1267.41 429.16 1225.69 515.34 1306.29 515.34 1425.65 276.37 1345.79 276.37"/><path class="cls-161" d="M1704.51,398.66c0-65.87-47.79-125.92-130.75-125.92-82.58,0-130.38,60.05-130.38,125.92s47.8,125.92,130.38,125.92c82.84,0,130.75-60.05,130.75-125.92m-188.94,0c0-31.7,21.67-61,58.19-61,36.78,0,58.2,29.34,58.2,61s-21.3,61-58.2,61c-36.52,0-58.19-29.34-58.19-61" transform="translate(-32.09 -2.81)"/><path class="cls-161" d="M1861.14,434.44c0,16.35-12,30.09-29.22,30.09-16.46,0-28.85-13.62-28.85-30.09V279.18h-71.56V435.06c0,51.88,38.13,89.4,100.41,89.4,62.9,0,100.79-37.52,100.79-89.4V279.18h-71.57Z" transform="translate(-32.09 -2.81)"/><path class="cls-161" d="M2174.9,368.33c0-48.17-35.41-89-90.51-89H1968.87V518.15h71.56v-61h13.38l41,61h84.32l-48.17-72.69c27.49-15.47,44-44.82,44-77.13M2070,402h-29.6V334.4h30c19.31,0,31.69,15.35,31.69,33.8S2089.34,402,2070,402" transform="translate(-32.09 -2.81)"/><polygon class="cls-161" points="2558.71 552.48 2522.31 637.42 2483.43 552.48 2399.48 552.48 2480.34 705.27 2438.61 791.33 2519.22 791.33 2638.57 552.48 2558.71 552.48"/><polygon class="cls-161" points="1710.06 615.01 1766.77 615.01 1766.77 791.33 1838.34 791.33 1838.34 615.01 1895.05 615.01 1895.05 552.48 1710.06 552.48 1710.06 615.01"/><path class="cls-163" d="M1637,643c-22-7.8-33.06-15-33.06-27.24,0-13,10.28-18.82,22-18.82,16.22,0,23.78,10.28,23.78,29.72h71.56c0-37.52-23.4-77.76-94-77.76-48.17,0-95.34,20.18-95.34,69.22,0,48.78,39.62,63.14,83.94,80.23,25.51,9.91,36.53,15.35,36.53,28.73,0,12.63-9.29,20.43-23.77,20.43-18.2,0-30.34-12.26-30.34-33.81h-71.56c0,56,38.87,87.05,99.05,87.05,60.92,0,98.44-28.73,98.44-78.13S1678.64,657.69,1637,643" transform="translate(-32.09 -2.81)"/><path class="cls-162" d="M2071.76,548.85c-82.59,0-130.38,60-130.38,125.93s47.79,125.92,130.38,125.92c83,0,130.75-60.05,130.75-125.92s-47.79-125.93-130.75-125.93m0,187c-36.53,0-58.2-29.35-58.2-61s21.67-61,58.2-61c36.77,0,58.19,29.35,58.19,61s-21.29,61-58.19,61" transform="translate(-32.09 -2.81)"/><path class="cls-161" d="M2434.67,644.32c0-48.17-35.41-89-90.51-89H2228.51V794.14h71.57v-61h13.37l41,61h84.32l-48.17-72.69c27.61-15.35,44.08-44.69,44.08-77.13m-105,33.8h-29.59V610.51h30c19.32,0,31.7,15.36,31.7,33.81s-12.75,33.8-32.07,33.8" transform="translate(-32.09 -2.81)"/><path class="cls-160" d="M1566.71,182.85h19.06c55.47,0,91.26-41.36,91.26-89.52,0-48.54-35.79-89.9-91.26-89.9H1469.14V260.11ZM1541.45,59.28h30.21c19.44,0,31.94,15.47,31.94,34.05s-12.87,34.05-32.31,34.05h-29.84V59.28Z" transform="translate(-32.09 -2.81)"/><polygon class="cls-160" points="1815.81 176.94 1740.28 176.94 1740.28 0.62 1668.71 0.62 1668.71 239.47 1815.81 239.47 1815.81 176.94"/><path class="cls-160" d="M1952.52,214.67h80.86l8.29,27.61h79.86L2036,3.43h-85.69L1867,242.28h77.39Zm40.61-139.55,25.51,88h-51Z" transform="translate(-32.09 -2.81)"/><polygon class="cls-160" points="2108.39 239.47 2188.87 239.47 2308.23 0.62 2228.49 0.62 2191.96 85.56 2153.09 0.62 2069.14 0.62 2149.99 153.41 2108.39 239.47"/><polygon class="cls-160" points="1288.22 276.37 1251.69 361.43 1212.81 276.37 1128.86 276.37 1209.71 429.16 1168.11 515.34 1248.59 515.34 1367.95 276.37 1288.22 276.37"/><path class="cls-160" d="M1646.82,398.66c0-65.87-47.8-125.92-130.76-125.92-82.58,0-130.38,60.05-130.38,125.92s47.8,125.92,130.38,125.92c83,0,130.76-60.05,130.76-125.92m-188.83,0c0-31.7,21.67-61,58.2-61,36.77,0,58.19,29.34,58.19,61s-21.29,61-58.19,61c-36.53,0-58.2-29.34-58.2-61" transform="translate(-32.09 -2.81)"/><path class="cls-160" d="M1803.57,434.44c0,16.35-12,30.09-29.22,30.09-16.47,0-28.85-13.62-28.85-30.09V279.18h-71.57V435.06c0,51.88,38.14,89.4,100.42,89.4,62.9,0,100.79-37.52,100.79-89.4V279.18h-71.57V434.44Z" transform="translate(-32.09 -2.81)"/><path class="cls-160" d="M2117.32,368.33c0-48.17-35.41-89-90.51-89H1911.17V518.15h71.56v-61h13.38l41,61h84.32l-48.17-72.69c27.62-15.35,44.08-44.69,44.08-77.13m-104.87,33.8h-29.59V334.52h30c19.32,0,31.7,15.36,31.7,33.81s-12.88,33.8-32.07,33.8" transform="translate(-32.09 -2.81)"/><polygon class="cls-160" points="2501.14 552.48 2464.61 637.42 2425.73 552.48 2341.78 552.48 2422.64 705.27 2381.03 791.33 2461.52 791.33 2580.88 552.48 2501.14 552.48"/><polygon class="cls-160" points="1652.37 615.01 1709.07 615.01 1709.07 791.33 1780.64 791.33 1780.64 615.01 1837.35 615.01 1837.35 552.48 1652.37 552.48 1652.37 615.01"/><path class="cls-160" d="M1579.33,643c-22-7.8-33-15-33-27.24,0-13,10.27-18.82,22-18.82,16.23,0,23.78,10.28,23.78,29.72h71.56c0-37.52-23.4-77.76-94-77.76-48.17,0-95.34,20.18-95.34,69.22,0,48.78,39.62,63.14,84,80.23,25.5,9.91,36.52,15.35,36.52,28.73,0,12.63-9.28,20.43-23.77,20.43-18.2,0-30.34-12.26-30.34-33.81h-71.56c0,56,38.88,87.05,99,87.05,60.92,0,98.44-28.73,98.44-78.13s-45.57-64.88-87.3-79.62" transform="translate(-32.09 -2.81)"/><path class="cls-160" d="M2014.18,548.85c-82.58,0-130.38,60-130.38,125.93s47.8,125.92,130.38,125.92c83,0,130.76-60.05,130.76-125.92s-47.8-125.93-130.76-125.93m0,187c-36.52,0-58.19-29.35-58.19-61s21.67-61,58.19-61c36.78,0,58.2,29.35,58.2,61s-21.42,61-58.2,61" transform="translate(-32.09 -2.81)"/><path class="cls-160" d="M2377,644.32c0-48.17-35.41-89-90.51-89H2170.81V794.14h71.57v-61h13.37l41,61h84.32l-48.17-72.69c27.61-15.35,44.08-44.69,44.08-77.13m-104.87,33.8h-29.6V610.51h30c19.31,0,31.7,15.36,31.7,33.81s-12.76,33.8-32.07,33.8" transform="translate(-32.09 -2.81)"/></g><g id="Layer_5" data-name="Layer 5"><g class="cls-1"><path class="cls-164" d="M32.09,164.81,95.78,40.11,137.47,61.4l-22.62,92.22,61.63-72.29,41.68,21.29-63.69,124.7-32.06-16.38,37.12-72.68-53.69,64.22L80.72,189.65l20.38-81.23L64,181.09Z" transform="translate(-32.09 -2.81)"/><path class="cls-164" d="M199.72,196.75l41.95-82.12,35.8,18.29L235.8,214.5c-5.18,10.16-3.56,18.4,3.93,22.22s15.11.31,20.3-9.84l41.67-81.59,35.81,18.29L295.56,245.7c-15.1,29.57-40.93,37-71.39,21.48S184.71,226.14,199.72,196.75Z" transform="translate(-32.09 -2.81)"/></g><g class="cls-1"><path class="cls-164" d="M305.74,304.58l9.11-17.83,17.83,9.11-9.11,17.83Zm38.08-74.53,9.1-17.84,17.83,9.11-9.1,17.83Z" transform="translate(-32.09 -2.81)"/></g><g class="cls-1"><path class="cls-164" d="M475.18,233.9c30.11,15.38,39.27,42.75,24.53,71.6-14.2,27.79-42.91,37.39-72.48,22.28l-10-5.09L401.52,353.5l-35.63-18.19,63.69-124.7Zm-39.13,66.49c10.69,5.46,20.4.54,27.49-13.36,6.92-13.54,5.13-24.55-5.2-29.83l-6-3.1-22.11,43.29Z" transform="translate(-32.09 -2.81)"/><path class="cls-164" d="M477.75,392.44l63.69-124.69L577.07,286l-48,93.87,30.46,15.56L543.84,426.2Z" transform="translate(-32.09 -2.81)"/><path class="cls-164" d="M680.21,338.63,718.15,358,603.69,456.77,565,437l36.31-31.09,11.88-101.52,37.94,19.38L638,383.8Z" transform="translate(-32.09 -2.81)"/></g></g><g id="Layer_4" data-name="Layer 4"><g class="cls-1"><path class="cls-165" d="M2224.43,546.56,2190,460.21l-21.14,8.44-11.31-28.34,75-29.95,11.31,28.34-21.14,8.43,34.47,86.35Z" transform="translate(-32.09 -2.81)"/><path class="cls-165" d="M2292.91,519.23l-45.78-114.69L2311,379l9.88,24.74-31.13,12.42,8.3,20.81,31.13-12.43,9.55,23.92-31.13,12.43,8.17,20.48L2346.93,469l9.87,24.74Z" transform="translate(-32.09 -2.81)"/><path class="cls-165" d="M2376.79,485.75,2331,371.06l63.9-25.5,9.88,24.74-31.13,12.42,8.3,20.81,31.13-12.43,9.55,23.93-31.13,12.42,8.17,20.48,31.13-12.42,9.87,24.74Z" transform="translate(-32.09 -2.81)"/><path class="cls-165" d="M2460.67,452.27,2414.9,337.58l29.65-11.83,52.57,50.81-24.72-61.93,30-12,45.77,114.69-29.66,11.84-51.88-49.57,24.2,60.62Z" transform="translate(-32.09 -2.81)"/><path class="cls-165" d="M2565.46,277.49c27.69-11.05,51.17-1.24,61.76,25.3,10.2,25.56-.1,50.19-27.3,61l-9.18,3.67,11.32,28.34-32.77,13.08-45.77-114.69Zm21.41,64.58c9.83-3.92,12.19-13.22,7.09-26-5-12.45-13.32-17.67-22.82-13.88l-5.57,2.23,15.89,39.81Z" transform="translate(-32.09 -2.81)"/><path class="cls-165" d="M2670.54,368.51l-45.78-114.69,32.77-13.08L2692,327.09l28-11.19,11.31,28.35Z" transform="translate(-32.09 -2.81)"/><path class="cls-165" d="M2815.53,310.64l-9.29-13.76-28.84,11.5,2.74,16.39-33.42,13.33-13.17-127.7,36.86-14.71L2849,297.3ZM2773,283l19-7.58-27.35-40.94Z" transform="translate(-32.09 -2.81)"/><path class="cls-165" d="M2864.12,158.29l34.9-13.93-.92,133.33-35.56,14.19.46-42.16-60.48-66.84,34.9-13.93,32.2,43.56Z" transform="translate(-32.09 -2.81)"/></g></g><g id="Layer_2" data-name="Layer 2"><path class="cls-166" d="M840.71,621.6c13.63,0,21.94,8.15,21.94,21.22,0,12.58-8.55,21.3-21.94,21.3h-4.52v14H820.06V621.6Zm-1.86,31.06c4.84,0,7.42-3.55,7.42-9.84,0-6.13-2.66-9.76-7.34-9.76h-2.74v19.6Z" transform="translate(-32.09 -2.81)"/><path class="cls-166" d="M869.75,678.07V621.6h16.14v42.52h13.79v14Z" transform="translate(-32.09 -2.81)"/><path class="cls-166" d="M941,678.07l-1.61-7.42h-14.2l-1.62,7.42H907.11l16-56.47h18.15l16.14,56.47Zm-13.39-19H937l-4.68-22Z" transform="translate(-32.09 -2.81)"/><path class="cls-166" d="M987.3,621.6h17.18l-23,56.47H964l7.34-17.83L957,621.6h17.19l6.29,24Z" transform="translate(-32.09 -2.81)"/><path class="cls-166" d="M1010.37,678.07V621.6h16.14v42.52h13.79v14Z" transform="translate(-32.09 -2.81)"/><path class="cls-166" d="M1049.26,678.07V621.6h16.13v56.47Z" transform="translate(-32.09 -2.81)"/><path class="cls-166" d="M1072.9,660.16h15.73c0,4.84,2,7.42,5.4,7.42a4.15,4.15,0,0,0,4.36-4.51c0-2.83-1.53-4.44-5-6.05l-7.58-3.31c-8.23-3.63-12.35-8.88-12.35-17,0-10.33,7.51-16.86,19.77-16.86,12.5,0,19.44,6.29,19.44,17.82h-15.25c-.08-4.35-1.77-6.45-4.68-6.45a3.83,3.83,0,0,0-4.11,4.2c0,2.82,1.85,4.19,5.57,6.05l9.11,4.19c7.34,3.55,10.57,8.71,10.57,16.3,0,11.21-7.91,17.91-20.09,17.91C1080.64,679.85,1072.9,672.91,1072.9,660.16Z" transform="translate(-32.09 -2.81)"/><path class="cls-166" d="M1128.4,678.07V635.56H1118v-14h37v14h-10.41v42.51Z" transform="translate(-32.09 -2.81)"/><path class="cls-166" d="M817.47,746.64c0-19.2,9.36-30,25.82-30s25.81,10.81,25.81,30-9.35,30-25.81,30S817.47,765.84,817.47,746.64Zm34.85,0c0-10.25-3-15.49-9-15.49s-9,5.24-9,15.49,3,15.49,9,15.49S852.32,756.88,852.32,746.64Z" transform="translate(-32.09 -2.81)"/><path class="cls-166" d="M902.26,774.87l-6-14h-3.3v14H876.77V718.4h20.65c13.64,0,22,8.15,22,21.22,0,7.34-2.91,13.39-8,17.1l8.23,18.15Zm-9.35-45v19.6h2.66c4.84,0,7.42-3.55,7.42-9.84,0-6.13-2.66-9.76-7.34-9.76Z" transform="translate(-32.09 -2.81)"/><path class="cls-166" d="M927.52,774.87V718.4h16.13v56.47Z" transform="translate(-32.09 -2.81)"/><path class="cls-166" d="M1002.14,744.05v11.14h-2.82c-.73,14-9.2,21.46-22.75,21.46-16.38,0-25.25-11.3-25.25-30.26,0-18.55,9-29.76,25.33-29.76,14.44,0,22.51,7.09,23,19.68H983.35c-.33-4.52-2.59-6.54-6.7-6.54-6,0-8.55,5.41-8.55,16.06,0,12.18,2.74,17.5,8.87,17.5,4.2,0,6.94-2.74,7.26-8.14h-7.34V744.05Z" transform="translate(-32.09 -2.81)"/><path class="cls-166" d="M1009.49,774.87V718.4h16.13v56.47Z" transform="translate(-32.09 -2.81)"/><path class="cls-166" d="M1035.87,774.87V718.4h14.6l13.71,30.49V718.4H1079v56.47h-14.6L1050.71,745v29.85Z" transform="translate(-32.09 -2.81)"/><path class="cls-166" d="M1119.93,774.87l-1.61-7.42h-14.2l-1.61,7.42h-16.46l16-56.47h18.16l16.13,56.47Zm-13.39-19h9.36l-4.68-22Z" transform="translate(-32.09 -2.81)"/><path class="cls-166" d="M1143.49,774.87V718.4h16.14v42.52h13.79v14Z" transform="translate(-32.09 -2.81)"/><path class="cls-166" d="M1179.64,757h15.73c0,4.84,2,7.42,5.4,7.42a4.15,4.15,0,0,0,4.36-4.51c0-2.83-1.53-4.44-5-6l-7.59-3.31c-8.23-3.63-12.34-8.88-12.34-17,0-10.33,7.5-16.86,19.77-16.86,12.5,0,19.44,6.29,19.44,17.82h-15.25c-.08-4.35-1.77-6.45-4.68-6.45a3.83,3.83,0,0,0-4.11,4.2c0,2.82,1.85,4.19,5.56,6l9.12,4.19c7.34,3.55,10.57,8.71,10.57,16.3,0,11.21-7.91,17.91-20.09,17.91C1187.38,776.65,1179.64,769.71,1179.64,757Z" transform="translate(-32.09 -2.81)"/></g></svg>