<?xml version="1.0" encoding="utf-8"?>
<!-- Generator: Adobe Illustrator 22.0.1, SVG Export Plug-In . SVG Version: 6.00 Build 0)  -->
<svg version="1.1" id="Layer_1" xmlns="http://www.w3.org/2000/svg" xmlns:xlink="http://www.w3.org/1999/xlink" x="0px" y="0px"
	 viewBox="0 0 616.6 528.8" style="enable-background:new 0 0 616.6 528.8;" xml:space="preserve">
<style type="text/css">
	.st0{clip-path:url(#SVGID_2_);fill:#0073FF;}
	.st1{clip-path:url(#SVGID_4_);fill:#0073FF;}
	.st2{clip-path:url(#SVGID_6_);fill:#0073FF;}
	.st3{clip-path:url(#SVGID_8_);fill:#0073FF;}
	.st4{clip-path:url(#SVGID_10_);fill:#0073FF;}
	.st5{clip-path:url(#SVGID_12_);fill:#0073FF;}
	.st6{clip-path:url(#SVGID_14_);fill:#0073FF;}
	.st7{clip-path:url(#SVGID_16_);fill:#0073FF;}
	.st8{clip-path:url(#SVGID_18_);fill:#0073FF;}
	.st9{clip-path:url(#SVGID_20_);fill:#0073FF;}
	.st10{clip-path:url(#SVGID_22_);fill:#0073FF;}
	.st11{clip-path:url(#SVGID_24_);fill:#0073FF;}
	.st12{clip-path:url(#SVGID_26_);fill:#0073FF;}
</style>
<g id="Layer_1_1_">
	<g>
		<g>
			<g>
				<g>
					<defs>
						<rect id="SVGID_1_" x="-211.8" y="-114.7" width="1042.2" height="760.7"/>
					</defs>
					<clipPath id="SVGID_2_">
						<use xlink:href="#SVGID_1_"  style="overflow:visible;"/>
					</clipPath>
					<path class="st0" d="M174.6,156.2h8c23.4,0,38.4-20.6,38.4-44.6c0-24.2-15-44.9-38.4-44.9h-49.1v128.1L174.6,156.2z
						 M163.9,94.6h12.7c8.2,0,13.4,7.7,13.4,17s-5.4,17-13.6,17h-12.5L163.9,94.6L163.9,94.6z"/>
				</g>
			</g>
		</g>
		<g>
			<g>
				<g>
					<defs>
						<rect id="SVGID_3_" x="-211.8" y="-114.7" width="1042.2" height="760.7"/>
					</defs>
					<clipPath id="SVGID_4_">
						<use xlink:href="#SVGID_3_"  style="overflow:visible;"/>
					</clipPath>
					<polygon class="st1" points="292.9,154.7 261.1,154.7 261.1,66.8 231,66.8 231,186 292.9,186 					"/>
				</g>
			</g>
		</g>
		<g>
			<g>
				<g>
					<defs>
						<rect id="SVGID_5_" x="-211.8" y="-114.7" width="1042.2" height="760.7"/>
					</defs>
					<clipPath id="SVGID_6_">
						<use xlink:href="#SVGID_5_"  style="overflow:visible;"/>
					</clipPath>
					<path class="st2" d="M336.9,172.2h34l3.5,13.8H408L372,66.8h-36.1L300.8,186h32.6L336.9,172.2z M354,102.6l10.7,43.9h-21.4
						L354,102.6z"/>
				</g>
			</g>
		</g>
		<g>
			<g>
				<g>
					<defs>
						<rect id="SVGID_7_" x="-211.8" y="-114.7" width="1042.2" height="760.7"/>
					</defs>
					<clipPath id="SVGID_8_">
						<use xlink:href="#SVGID_7_"  style="overflow:visible;"/>
					</clipPath>
					<polygon class="st3" points="416,186 449.8,186 500,66.8 466.5,66.8 451.1,109.1 434.8,66.8 399.4,66.8 433.5,143 					"/>
				</g>
			</g>
		</g>
		<g>
			<g>
				<g>
					<defs>
						<rect id="SVGID_9_" x="-211.8" y="-114.7" width="1042.2" height="760.7"/>
					</defs>
					<clipPath id="SVGID_10_">
						<use xlink:href="#SVGID_9_"  style="overflow:visible;"/>
					</clipPath>
					<polygon class="st4" points="70.9,204.4 55.5,246.8 39.2,204.4 3.8,204.4 37.9,280.6 20.3,323.5 54.2,323.5 104.4,204.4 					
						"/>
				</g>
			</g>
		</g>
		<g>
			<g>
				<g>
					<defs>
						<rect id="SVGID_11_" x="-211.8" y="-114.7" width="1042.2" height="760.7"/>
					</defs>
					<clipPath id="SVGID_12_">
						<use xlink:href="#SVGID_11_"  style="overflow:visible;"/>
					</clipPath>
					<path class="st5" d="M208.3,263.9c0-32.9-20.1-62.8-55-62.8c-34.7,0-54.9,29.9-54.9,62.8s20.1,62.8,54.9,62.8
						C188.1,326.9,208.3,296.8,208.3,263.9 M128.8,263.9c0-15.8,9.1-30.5,24.5-30.5c15.5,0,24.5,14.6,24.5,30.5s-9,30.5-24.5,30.5
						C137.9,294.4,128.8,279.8,128.8,263.9"/>
				</g>
			</g>
		</g>
		<g>
			<g>
				<g>
					<defs>
						<rect id="SVGID_13_" x="-211.8" y="-114.7" width="1042.2" height="760.7"/>
					</defs>
					<clipPath id="SVGID_14_">
						<use xlink:href="#SVGID_13_"  style="overflow:visible;"/>
					</clipPath>
					<path class="st6" d="M274.2,281.8c0,8.2-5.1,14.9-12.3,14.9c-7,0-12.2-6.9-12.2-14.9v-77.5h-30.1v77.9
						c0,25.9,16.1,44.6,42.3,44.6c26.5,0,42.4-18.7,42.4-44.6v-77.9h-30.1V281.8z"/>
				</g>
			</g>
		</g>
		<g>
			<g>
				<g>
					<defs>
						<rect id="SVGID_15_" x="-211.8" y="-114.7" width="1042.2" height="760.7"/>
					</defs>
					<clipPath id="SVGID_16_">
						<use xlink:href="#SVGID_15_"  style="overflow:visible;"/>
					</clipPath>
					<path class="st7" d="M406.2,248.8c0-24-14.9-44.5-38.1-44.5h-48.6v119.2h30.1V293h5.6l17.2,30.5h35.5l-20.3-36.2
						C399.3,279.6,406.2,265,406.2,248.8 M362.1,265.7h-12.4v-33.6h12.6c8.1,0,13.3,7.6,13.3,16.9
						C375.5,258,370.2,265.7,362.1,265.7"/>
				</g>
			</g>
		</g>
		<g>
			<g>
				<g>
					<defs>
						<rect id="SVGID_17_" x="-211.8" y="-114.7" width="1042.2" height="760.7"/>
					</defs>
					<clipPath id="SVGID_18_">
						<use xlink:href="#SVGID_17_"  style="overflow:visible;"/>
					</clipPath>
					<polygon class="st8" points="581.2,342.1 565.8,384.5 549.5,342.1 514.2,342.1 548.2,418.4 530.7,461.3 564.5,461.3 
						614.8,342.1 					"/>
				</g>
			</g>
		</g>
		<g>
			<g>
				<g>
					<defs>
						<rect id="SVGID_19_" x="-211.8" y="-114.7" width="1042.2" height="760.7"/>
					</defs>
					<clipPath id="SVGID_20_">
						<use xlink:href="#SVGID_19_"  style="overflow:visible;"/>
					</clipPath>
					<polygon class="st9" points="224.1,373.3 248,373.3 248,461.3 278.1,461.3 278.1,373.3 301.9,373.3 301.9,342.1 224.1,342.1 
											"/>
				</g>
			</g>
		</g>
		<g>
			<g>
				<g>
					<defs>
						<rect id="SVGID_21_" x="-211.8" y="-114.7" width="1042.2" height="760.7"/>
					</defs>
					<clipPath id="SVGID_22_">
						<use xlink:href="#SVGID_21_"  style="overflow:visible;"/>
					</clipPath>
					<path class="st10" d="M179.9,385.9c-9.3-3.9-13.9-7.5-13.9-13.6c0-6.5,4.3-9.4,9.3-9.4c6.8,0,10,5.1,10,14.8h30.1
						c0-18.7-9.8-38.8-39.5-38.8c-20.3,0-40.1,10.1-40.1,34.6c0,24.3,16.6,31.5,35.3,40c10.7,4.9,15.3,7.6,15.3,14.4
						c0,6.3-3.9,10.2-10,10.2c-7.7,0-12.7-6.1-12.7-16.9h-30.1c0,27.9,16.4,43.5,41.7,43.5c25.6,0,41.4-14.4,41.4-39
						C216.6,400.8,197.4,393.2,179.9,385.9"/>
				</g>
			</g>
		</g>
		<g>
			<g>
				<g>
					<defs>
						<rect id="SVGID_23_" x="-211.8" y="-114.7" width="1042.2" height="760.7"/>
					</defs>
					<clipPath id="SVGID_24_">
						<use xlink:href="#SVGID_23_"  style="overflow:visible;"/>
					</clipPath>
					<path class="st11" d="M362.8,338.8c-34.7,0-54.9,29.9-54.9,62.8s20.1,62.8,54.9,62.8c34.9,0,55-29.9,55-62.8
						S397.7,338.8,362.8,338.8 M362.8,432.2c-15.3,0-24.5-14.6-24.5-30.5s9.1-30.5,24.5-30.5c15.5,0,24.5,14.6,24.5,30.5
						S378.3,432.2,362.8,432.2"/>
				</g>
			</g>
		</g>
		<g>
			<g>
				<g>
					<defs>
						<rect id="SVGID_25_" x="-211.8" y="-114.7" width="1042.2" height="760.7"/>
					</defs>
					<clipPath id="SVGID_26_">
						<use xlink:href="#SVGID_25_"  style="overflow:visible;"/>
					</clipPath>
					<path class="st12" d="M515.5,386.6c0-24-14.9-44.5-38.1-44.5h-48.6v119.2h30.1v-30.5h5.6l17.2,30.5h35.5L497,425
						C508.5,417.4,515.5,402.8,515.5,386.6 M471.3,403.4h-12.4v-33.6h12.6c8.1,0,13.3,7.6,13.3,16.9
						C484.8,395.7,479.4,403.4,471.3,403.4"/>
				</g>
			</g>
		</g>
	</g>
</g>
</svg>
