<?xml version="1.0" encoding="utf-8"?>
<!-- Generator: Adobe Illustrator 22.0.1, SVG Export Plug-In . SVG Version: 6.00 Build 0)  -->
<svg version="1.1" id="Layer_1" xmlns="http://www.w3.org/2000/svg" xmlns:xlink="http://www.w3.org/1999/xlink" x="0px" y="0px"
	 viewBox="0 0 616.6 528.8" style="enable-background:new 0 0 616.6 528.8;" xml:space="preserve">
<style type="text/css">
	.st0{clip-path:url(#SVGID_2_);fill:#0073FF;}
	.st1{clip-path:url(#SVGID_4_);fill:#0073FF;}
	.st2{clip-path:url(#SVGID_6_);fill:#0073FF;}
	.st3{clip-path:url(#SVGID_8_);fill:#0073FF;}
	.st4{clip-path:url(#SVGID_10_);fill:#0073FF;}
	.st5{clip-path:url(#SVGID_12_);fill:#0073FF;}
	.st6{clip-path:url(#SVGID_14_);fill:#0073FF;}
	.st7{clip-path:url(#SVGID_16_);fill:#0073FF;}
	.st8{clip-path:url(#SVGID_18_);fill:#0073FF;}
	.st9{clip-path:url(#SVGID_20_);fill:#0073FF;}
	.st10{clip-path:url(#SVGID_22_);fill:#0073FF;}
	.st11{clip-path:url(#SVGID_24_);fill:#0073FF;}
	.st12{clip-path:url(#SVGID_26_);fill:#0073FF;}
</style>
<g id="Layer_1_1_">
	<g>
		<g>
			<g>
				<defs>
					<rect id="SVGID_1_" x="-211.8" y="-145.7" width="1042.2" height="820.7"/>
				</defs>
				<clipPath id="SVGID_2_">
					<use xlink:href="#SVGID_1_"  style="overflow:visible;"/>
				</clipPath>
				<path class="st0" d="M174.6,146.6h8c23.4,0,38.4-22.2,38.4-48.1c0-26.1-15-48.4-38.4-48.4h-49.1v138.2L174.6,146.6z M163.9,80.1
					h12.7c8.2,0,13.4,8.3,13.4,18.3s-5.4,18.3-13.6,18.3h-12.5L163.9,80.1L163.9,80.1z"/>
			</g>
		</g>
		<g>
			<g>
				<defs>
					<rect id="SVGID_3_" x="-211.8" y="-145.7" width="1042.2" height="820.7"/>
				</defs>
				<clipPath id="SVGID_4_">
					<use xlink:href="#SVGID_3_"  style="overflow:visible;"/>
				</clipPath>
				<polygon class="st1" points="292.9,145 261.1,145 261.1,50.1 231,50.1 231,178.7 292.9,178.7 				"/>
			</g>
		</g>
		<g>
			<g>
				<defs>
					<rect id="SVGID_5_" x="-211.8" y="-145.7" width="1042.2" height="820.7"/>
				</defs>
				<clipPath id="SVGID_6_">
					<use xlink:href="#SVGID_5_"  style="overflow:visible;"/>
				</clipPath>
				<path class="st2" d="M336.9,163.8h34l3.5,14.9H408L372,50.1h-36.1l-35.1,128.6h32.6L336.9,163.8z M354,88.7l10.7,47.4h-21.4
					L354,88.7z"/>
			</g>
		</g>
		<g>
			<g>
				<defs>
					<rect id="SVGID_7_" x="-211.8" y="-145.7" width="1042.2" height="820.7"/>
				</defs>
				<clipPath id="SVGID_8_">
					<use xlink:href="#SVGID_7_"  style="overflow:visible;"/>
				</clipPath>
				<polygon class="st3" points="416,178.7 449.8,178.7 500,50.1 466.5,50.1 451.1,95.8 434.8,50.1 399.4,50.1 433.5,132.3 				"/>
			</g>
		</g>
		<g>
			<g>
				<defs>
					<rect id="SVGID_9_" x="-211.8" y="-145.7" width="1042.2" height="820.7"/>
				</defs>
				<clipPath id="SVGID_10_">
					<use xlink:href="#SVGID_9_"  style="overflow:visible;"/>
				</clipPath>
				<polygon class="st4" points="70.9,198.6 55.5,244.3 39.2,198.6 3.8,198.6 37.9,280.8 20.3,327.1 54.2,327.1 104.4,198.6 				"/>
			</g>
		</g>
		<g>
			<g>
				<defs>
					<rect id="SVGID_11_" x="-211.8" y="-145.7" width="1042.2" height="820.7"/>
				</defs>
				<clipPath id="SVGID_12_">
					<use xlink:href="#SVGID_11_"  style="overflow:visible;"/>
				</clipPath>
				<path class="st5" d="M208.3,262.8c0-35.5-20.1-67.7-55-67.7c-34.7,0-54.9,32.3-54.9,67.7s20.1,67.7,54.9,67.7
					C188.1,330.7,208.3,298.3,208.3,262.8 M128.8,262.8c0-17.1,9.1-32.9,24.5-32.9c15.5,0,24.5,15.8,24.5,32.9s-9,32.9-24.5,32.9
					C137.9,295.7,128.8,279.9,128.8,262.8"/>
			</g>
		</g>
		<g>
			<g>
				<defs>
					<rect id="SVGID_13_" x="-211.8" y="-145.7" width="1042.2" height="820.7"/>
				</defs>
				<clipPath id="SVGID_14_">
					<use xlink:href="#SVGID_13_"  style="overflow:visible;"/>
				</clipPath>
				<path class="st6" d="M274.2,282.1c0,8.8-5.1,16.1-12.3,16.1c-7,0-12.2-7.4-12.2-16.1v-83.6h-30.1v84c0,27.9,16.1,48.1,42.3,48.1
					c26.5,0,42.4-20.2,42.4-48.1v-84h-30.1V282.1z"/>
			</g>
		</g>
		<g>
			<g>
				<defs>
					<rect id="SVGID_15_" x="-211.8" y="-145.7" width="1042.2" height="820.7"/>
				</defs>
				<clipPath id="SVGID_16_">
					<use xlink:href="#SVGID_15_"  style="overflow:visible;"/>
				</clipPath>
				<path class="st7" d="M406.2,246.5c0-25.9-14.9-48-38.1-48h-48.6v128.6h30.1v-32.9h5.6l17.2,32.9h35.5L387.6,288
					C399.3,279.7,406.2,263.9,406.2,246.5 M362.1,264.7h-12.4v-36.3h12.6c8.1,0,13.3,8.2,13.3,18.2
					C375.5,256.4,370.2,264.7,362.1,264.7"/>
			</g>
		</g>
		<g>
			<g>
				<defs>
					<rect id="SVGID_17_" x="-211.8" y="-145.7" width="1042.2" height="820.7"/>
				</defs>
				<clipPath id="SVGID_18_">
					<use xlink:href="#SVGID_17_"  style="overflow:visible;"/>
				</clipPath>
				<polygon class="st8" points="581.2,347.1 565.8,392.9 549.5,347.1 514.2,347.1 548.2,429.4 530.7,475.7 564.5,475.7 
					614.8,347.1 				"/>
			</g>
		</g>
		<g>
			<g>
				<defs>
					<rect id="SVGID_19_" x="-211.8" y="-145.7" width="1042.2" height="820.7"/>
				</defs>
				<clipPath id="SVGID_20_">
					<use xlink:href="#SVGID_19_"  style="overflow:visible;"/>
				</clipPath>
				<polygon class="st9" points="224.1,380.8 248,380.8 248,475.7 278.1,475.7 278.1,380.8 301.9,380.8 301.9,347.1 224.1,347.1 
									"/>
			</g>
		</g>
		<g>
			<g>
				<defs>
					<rect id="SVGID_21_" x="-211.8" y="-145.7" width="1042.2" height="820.7"/>
				</defs>
				<clipPath id="SVGID_22_">
					<use xlink:href="#SVGID_21_"  style="overflow:visible;"/>
				</clipPath>
				<path class="st10" d="M179.9,394.4c-9.3-4.2-13.9-8.1-13.9-14.7c0-7,4.3-10.1,9.3-10.1c6.8,0,10,5.5,10,16h30.1
					c0-20.2-9.8-41.9-39.5-41.9c-20.3,0-40.1,10.9-40.1,37.3c0,26.2,16.6,34,35.3,43.2c10.7,5.3,15.3,8.2,15.3,15.5
					c0,6.8-3.9,11-10,11c-7.7,0-12.7-6.6-12.7-18.2h-30.1c0,30.1,16.4,46.9,41.7,46.9c25.6,0,41.4-15.5,41.4-42.1
					C216.6,410.5,197.4,402.3,179.9,394.4"/>
			</g>
		</g>
		<g>
			<g>
				<defs>
					<rect id="SVGID_23_" x="-211.8" y="-145.7" width="1042.2" height="820.7"/>
				</defs>
				<clipPath id="SVGID_24_">
					<use xlink:href="#SVGID_23_"  style="overflow:visible;"/>
				</clipPath>
				<path class="st11" d="M362.8,343.6c-34.7,0-54.9,32.3-54.9,67.7s20.1,67.7,54.9,67.7c34.9,0,55-32.3,55-67.7
					S397.7,343.6,362.8,343.6 M362.8,444.3c-15.3,0-24.5-15.8-24.5-32.9c0-17.1,9.1-32.9,24.5-32.9c15.5,0,24.5,15.8,24.5,32.9
					C387.3,428.5,378.3,444.3,362.8,444.3"/>
			</g>
		</g>
		<g>
			<g>
				<defs>
					<rect id="SVGID_25_" x="-211.8" y="-145.7" width="1042.2" height="820.7"/>
				</defs>
				<clipPath id="SVGID_26_">
					<use xlink:href="#SVGID_25_"  style="overflow:visible;"/>
				</clipPath>
				<path class="st12" d="M515.5,395.1c0-25.9-14.9-48-38.1-48h-48.6v128.6h30.1v-32.9h5.6l17.2,32.9h35.5L497,436.6
					C508.5,428.4,515.5,412.6,515.5,395.1 M471.3,413.3h-12.4v-36.3h12.6c8.1,0,13.3,8.2,13.3,18.2
					C484.8,405,479.4,413.3,471.3,413.3"/>
			</g>
		</g>
	</g>
</g>
</svg>
