<?xml version="1.0" encoding="utf-8"?>
<!-- Generator: Adobe Illustrator 22.0.1, SVG Export Plug-In . SVG Version: 6.00 Build 0)  -->
<svg version="1.1" id="Layer_1" xmlns="http://www.w3.org/2000/svg" xmlns:xlink="http://www.w3.org/1999/xlink" x="0px" y="0px"
	 viewBox="0 0 1507.4 490.4" style="enable-background:new 0 0 1507.4 490.4;" xml:space="preserve">
<style type="text/css">
	.st0{fill:#FFFFFF;}
	.st1{opacity:0.29;fill:#FFFFFF;enable-background:new    ;}
	.st2{opacity:0.5;}
</style>
<g id="Grupo_199" transform="translate(-52.935 -140)">
	<circle id="Elipse_2" class="st0" cx="750.5" cy="216.5" r="76.5"/>
	<circle id="Elipse_3" class="st1" cx="872.5" cy="197.5" r="24.5"/>
	<g id="Grupo_26" transform="translate(-70.413 192.992)" class="st2">
		<path id="Caminho_32" class="st0" d="M123.3,433.4l4.2-254.7h67.9l23.2,131l25.8-131h65.1l4.2,254.7h-43.3l-4.9-165.2l-26,165.2
			h-39.8l-28.1-166.7l-4.1,166.7H123.3z"/>
		<path id="Caminho_33" class="st0" d="M338.4,433.4l46.2-254.7h72.5L503,433.4h-57l-8-50.9h-33l-7.7,50.9H338.4z M409.9,346.6h22.9
			l-11.5-95.1L409.9,346.6z"/>
		<path id="Caminho_34" class="st0" d="M528.6,433.4V178.6h76c9.6-0.1,19.3,0.5,28.8,1.7c8.2,1.1,16.3,3.2,24,6.1
			c7,2.6,13.4,6.6,18.7,11.9c4.9,5,8.7,11.4,11.6,19.4c2.9,7.9,4.3,17.3,4.3,28c0,17.1-2.2,30.7-6.5,40.9s-12.5,18.4-24.7,24.7
			l34.7,122h-65.3l-26.4-112.6H591v112.6H528.6z M591,286.5h16.3c10.2,0,17.3-2.9,21.3-8.8c3.9-5.9,5.9-14.3,5.9-25.1
			c0-10.4-1.9-18.5-5.6-24.2c-3.7-5.7-9.9-8.5-18.5-8.5H591V286.5z"/>
		<path id="Caminho_35" class="st0" d="M724.8,433.4V178.6h62.4v99.2l38.6-99.2H887l-46.2,115.7l46.9,139h-64.1l-33.2-110.3l-3.2,4
			v106.3H724.8z"/>
		<path id="Caminho_36" class="st0" d="M909.9,433.4V178.6h119.2v41.8h-56.8v56.8h42.4v43.3h-42.4v71.1h57.5v41.6H909.9z"/>
		<path id="Caminho_37" class="st0" d="M1077.4,433.4V224.7h-37.2v-46.1h136.6v46.1h-37v208.6H1077.4z"/>
		<path id="Caminho_38" class="st0" d="M1199.5,433.4V178.6h62.2v254.7H1199.5z"/>
		<path id="Caminho_39" class="st0" d="M1298.8,433.4V178.6h44.2l46.6,109.1V178.6h51.5v254.7h-42.6l-46.2-119.8v119.8H1298.8z"/>
		<path id="Caminho_40" class="st0" d="M1546.3,437.4c-13.2,0-24.5-2.2-34-6.5c-9-3.9-16.7-10.4-22.1-18.6
			c-5.5-8.5-9.4-17.8-11.6-27.7c-2.6-11.8-3.8-23.8-3.6-35.8v-85.7c0-13.8,1.4-26,4.1-36.5c2.5-10,6.9-19.4,13.1-27.7
			c6-7.9,14.2-14,24.5-18.1c10.3-4.2,22.8-6.2,37.3-6.2c10.3-0.2,20.7,1.1,30.7,3.8c8.9,2.5,16.2,5.9,21.9,10.2
			c5.8,4.3,10.6,9.8,14.1,16.1c3.7,6.4,6.3,13.3,7.8,20.5c1.6,7.9,2.4,16,2.3,24.1v18.3h-61.3v-24.4c0-2.9-0.1-5.2-0.2-7
			c-0.2-2.2-0.5-4.4-0.9-6.6c-0.3-2.2-1.1-4.3-2.2-6.1c-1.1-1.6-2.6-3-4.4-3.9c-2.2-1.2-4.6-1.8-7.1-1.7c-3-0.1-5.9,0.7-8.5,2.3
			c-2.3,1.6-4,3.9-4.8,6.5c-0.9,2.6-1.6,5.3-1.9,8c-0.3,2.9-0.5,5.9-0.5,8.8v124.9c0,3,0.2,5.9,0.8,8.8c0.5,2.8,1.4,5.5,2.5,8.1
			c1.1,2.6,3,4.8,5.4,6.4c2.6,1.6,5.6,2.5,8.7,2.4c4.1,0.1,8.1-1.4,11-4.3c2.8-2.7,4.8-6,5.8-9.8c1-3.8,1.5-7.8,1.5-11.8V335h-20.4
			v-35.8h76.5v134.1h-41.6l-3.1-18.6C1578.6,429.8,1565.3,437.4,1546.3,437.4z"/>
	</g>
	<path id="Caminho_73" class="st0" d="M625.5,191.5h-18.6v-18.6h-10.5v18.6h-18.6v10.5h18.6v18.6h10.5v-18.6h18.6L625.5,191.5z"/>
	<path id="Caminho_74" class="st0" d="M716.5,573h-9.1v-9.1h-5.1v9.1h-9.1v5.1h9.1v9.1h5.1v-9.1h9.1V573z"/>
</g>
</svg>
