<svg id="Layer_1" data-name="Layer 1" xmlns="http://www.w3.org/2000/svg" viewBox="0 0 1106.83 229.52"><defs><style>.cls-1{font-size:167.18px;fill:#6000ff;font-family:Bauhaus93, Bauhaus 93;}.cls-11,.cls-12,.cls-13,.cls-2,.cls-3,.cls-4,.cls-6,.cls-8{fill:#fff;}.cls-2,.cls-3,.cls-4,.cls-9{stroke:#6000ff;}.cls-10,.cls-11,.cls-12,.cls-2,.cls-3,.cls-4,.cls-6,.cls-8,.cls-9{stroke-miterlimit:10;}.cls-10,.cls-11,.cls-12,.cls-2,.cls-3,.cls-4{stroke-width:3px;}.cls-3{letter-spacing:0em;}.cls-4{font-size:27.86px;font-family:MyriadPro-Regular, Myriad Pro;letter-spacing:0em;}.cls-5{font-size:68.43px;fill:#ff0074;font-family:WaltDisneyScript, Walt Disney Script;}.cls-6,.cls-8{stroke:#ff0074;stroke-width:2px;}.cls-7,.cls-8{letter-spacing:0em;}.cls-10,.cls-9{fill:none;}.cls-9{stroke-width:4px;}.cls-10,.cls-11,.cls-12{stroke:#000;}.cls-10,.cls-12{stroke-linecap:round;}</style></defs><title>logo_th</title><text class="cls-1" transform="translate(249.57 186.23)">P<tspan class="cls-2" x="93.96" y="0">ORT</tspan><tspan x="405.95" y="0">F</tspan><tspan class="cls-3" x="486.43" y="0">OLIO</tspan><tspan class="cls-4" x="849.85" y="0"> </tspan></text><text class="cls-5" transform="translate(327.7 58.99) scale(2.08 1)">A<tspan class="cls-6" x="37.16" y="0">N</tspan><tspan class="cls-7" x="75.75" y="0">T</tspan><tspan class="cls-8" x="110.65" y="0">ER</tspan><tspan x="191.94" y="0">H</tspan><tspan class="cls-6" x="233.41" y="0">YUN</tspan></text><rect class="cls-9" x="2" y="25.35" width="240.67" height="144.67"/><path class="cls-10" d="M163.94,196.35s13.81,15,25.19,0" transform="translate(-52.67 -52.32)"/><circle class="cls-11" cx="66.07" cy="107.4" r="46.12"/><line class="cls-12" x1="19.95" y1="61.28" x2="30.91" y2="77.56"/><line class="cls-12" x1="46.52" y1="43.99" x2="51.05" y2="63.09"/><line class="cls-12" x1="74" y1="41.7" x2="72.46" y2="61.28"/><line class="cls-12" x1="100.41" y1="51.49" x2="92.13" y2="69.29"/><circle cx="79.04" cy="120.34" r="27.99"/><circle class="cls-13" cx="90.14" cy="113.54" r="6.14"/><circle class="cls-11" cx="181.28" cy="107.11" r="46.12"/><line class="cls-12" x1="147.37" y1="51.39" x2="154.17" y2="69.81"/><line class="cls-12" x1="177.27" y1="40.88" x2="177.16" y2="60.51"/><line class="cls-12" x1="204.51" y1="45.16" x2="198.38" y2="63.81"/><line class="cls-12" x1="227.86" y1="60.91" x2="215.61" y2="76.25"/><circle cx="168.69" cy="121.67" r="27.99"/><circle class="cls-13" cx="179.28" cy="113.54" r="6.14"/></svg>